<svg viewBox="0 0 180 180" fill="none" xmlns="http://www.w3.org/2000/svg">
  <style>
    :root { color-scheme: light dark; }
      .favicon__txt { fill: white; }
      .favicon__bg { fill: black; }

    @media (prefers-color-scheme: dark) {
      .favicon__txt { fill: black; }
      .favicon__bg { fill: white; }
    }
  </style>
  <rect class="favicon__bg" width="100%" height="100%" rx="20" />
  <path class="favicon__txt" d="M60.168 136.536C53.8533 136.536 48.1787 135.128 43.144 132.312C38.1947 129.411 34.312 125.443 31.496 120.408C28.7653 115.288 27.4 109.485 27.4 103C27.4 96.2587 28.7653 90.3707 31.496 85.336C34.312 80.216 38.1947 76.2053 43.144 73.304C48.1787 70.4027 53.896 68.952 60.296 68.952C68.3173 68.952 75.0587 71.0853 80.52 75.352C85.9813 79.5333 89.48 85.2933 91.016 92.632H74.888C74.0347 89.3893 72.2427 86.8293 69.512 84.952C66.8667 83.0747 63.7093 82.136 60.04 82.136C56.8827 82.136 53.9813 82.9467 51.336 84.568C48.776 86.1893 46.728 88.536 45.192 91.608C43.7413 94.68 43.016 98.392 43.016 102.744C43.016 106.072 43.4427 109.016 44.296 111.576C45.1493 114.136 46.344 116.312 47.88 118.104C49.5013 119.811 51.336 121.133 53.384 122.072C55.432 123.011 57.6507 123.48 60.04 123.48C62.5147 123.48 64.7333 123.096 66.696 122.328C68.744 121.475 70.4507 120.237 71.816 118.616C73.2667 116.995 74.2907 115.075 74.888 112.856H91.016C89.48 120.024 85.9813 125.784 80.52 130.136C75.0587 134.403 68.2747 136.536 60.168 136.536ZM100.322 148.824L132.45 35.8H147.426L115.298 148.824H100.322Z" />
</svg>