<svg width="32" height="32" viewBox="0 0 32 32" fill="none" xmlns="http://www.w3.org/2000/svg">
<style>
  path { fill: #1C1A17; }
  @media (prefers-color-scheme: dark) {
    path { fill: #DAD6D2; }
  }
</style>
<path d="M18.4004 25.4053C17.8398 25.7334 16.958 26 15.7549 26.2051C14.5518 26.4102 13.1641 26.5127 11.5918 26.5127C9.37695 26.5127 7.39453 26.0684 5.64453 25.1797C3.9082 24.2773 2.56152 23.0195 1.60449 21.4062C0.647461 19.793 0.168945 17.9814 0.168945 15.9717C0.168945 13.5654 0.674805 11.5078 1.68652 9.79883C2.71191 8.07617 4.16797 6.76367 6.05469 5.86133C7.94141 4.94531 10.1289 4.4873 12.6172 4.4873C13.9844 4.4873 15.208 4.57617 16.2881 4.75391C17.3818 4.93164 18.0859 5.13672 18.4004 5.36914V12.1777C17.9629 11.8359 17.334 11.5352 16.5137 11.2754C15.6934 11.0156 14.9346 10.8857 14.2373 10.8857C12.5283 10.8857 11.2295 11.2959 10.3408 12.1162C9.46582 12.9229 9.02832 14.0645 9.02832 15.541C9.02832 16.9902 9.45898 18.1182 10.3203 18.9248C11.1953 19.7178 12.3916 20.1143 13.9092 20.1143C15.5361 20.1143 17.0332 19.7246 18.4004 18.9453V25.4053ZM31.3818 22.3496C31.3818 23.5938 30.9443 24.5986 30.0693 25.3643C29.1943 26.1299 27.9844 26.5127 26.4395 26.5127C25.0312 26.5127 23.876 26.1162 22.9736 25.3232C22.085 24.5166 21.6406 23.5254 21.6406 22.3496C21.6406 21.1465 22.0781 20.1758 22.9531 19.4375C23.8418 18.6855 25.0312 18.3096 26.5215 18.3096C27.9707 18.3096 29.1396 18.6855 30.0283 19.4375C30.9307 20.1758 31.3818 21.1465 31.3818 22.3496Z" fill="#1C1A17"/>
</svg>
