<svg xmlns="http://www.w3.org/2000/svg" id="Layer_1" viewBox="0 0 500 500"><rect width="500" height="500" style="fill:#fff;"></rect><path d="M500,0v500H0V0h500ZM480,18H20v462h460V18Z"></path><path d="M271,289V53c0-4.32,80.27.16,86.31,1.19,71.74,12.22,63.84,93.47,60.74,150.36-5.39,98.93-67.79,85.92-147.05,84.45ZM342.5,92c-7.51-1.08-17.22.79-25,0l-1.5,1.5v155l1.5,1.5h25c39.22,0,32.48-89.62,30.55-114.55-1.57-20.21-7.42-40.14-30.55-43.45Z"></path><path d="M187.5,129c-2.72-1.19.34-35.95-23.08-39.92-14.25-2.42-29.34,1.51-34.65,16.19-4.84,13.4-4.54,99.5-2.8,117.26,2.27,23.22,14.16,34.69,38.29,30.23,9.42-1.74,20.74-16.02,20.74-25.26v-21.5c0-.13-2.37-1-2.5-1h-28l-1.5-1.5v-34l1.5-1.5h73l2.5,2.5v118l-1.5,1.5h-21c-1.96,0-5.05-19.22-9.01-18.68-1.75.24-17.04,17.06-28.7,19.98-35.55,8.89-75.83-9.54-85.12-46.47-5.17-20.54-5.22-126.14-.18-146.83,13.98-57.39,103.67-66.27,132.46-20.45,3.3,5.25,19.89,51.45,11.55,51.45h-42Z"></path><path d="M91,320h21.5l1.5,1.5v92c0,18.94,35,16.92,35,2v-94l1.5-1.5h21l1.5,1.5v94c0,42.62-83,45.15-83-2v-91c0-.35,1.28-1.54,1-2.5Z"></path><path d="M397.5,447l-9.11-27.76-31.12.38-8.51,26.13-22.76.23,31.19-124.29c1.82-2.62,29.58-2.71,31.89,0l28.42,125.32h-20ZM362.5,399h21l-10-49.97c-2.52-.46-14.12,48.56-11,49.97Z"></path><path d="M290.95,348.96l-20.32,5.13c-2.36-18.6-32.25-23.48-32.56-3.5-.28,18.23,50.8,24.3,54.85,54.99,7.72,58.42-79.03,49.91-80.91,10.83-.26-5.44,21.87-9.14,22.93-8.36.54.4,2.49,9.02,5.05,12.45,9.7,12.99,30.13,8.63,30.04-6.94-.14-25.16-58.85-23.75-55.05-66.05,3.67-40.92,72.99-38.64,75.95,1.46Z"></path></svg>