<svg xmlns="http://www.w3.org/2000/svg" xml:space="preserve" x="0" y="0" viewBox="300 45 290 125"><style>.st2{fill:#00477e}.st6{fill:#d5c5b3}.st7{fill:#966e41}</style><linearGradient id="SVGID_1_" x1="-.001" x2=".707" y1="0" y2="-.707" gradientUnits="userSpaceOnUse"><stop offset="0" style="stop-color:#1eab4b"/><stop offset=".983" style="stop-color:#19361a"/></linearGradient><linearGradient id="SVGID_00000139992746554403848480000009620086029511199935_" x1="489.812" x2="388.943" y1="272.231" y2="-104.216" gradientTransform="matrix(-1 0 0 1 890.002 0)" gradientUnits="userSpaceOnUse"><stop offset="0" style="stop-color:#00477e"/><stop offset=".489" style="stop-color:#346c98"/><stop offset="1" style="stop-color:#6690b2"/></linearGradient><circle cx="454.1" cy="122" r="52.5" style="fill:#fff" transform="rotate(-23.56 454.095 121.964)"/><radialGradient id="SVGID_00000114764106043373695270000014076731132403956889_" cx="438.073" cy="118.183" r="74.466" gradientTransform="matrix(.9711 -.2386 2386 .9711 .182 113.4)" gradientUnits="userSpaceOnUse"><stop offset=".601" style="stop-color:#fff"/><stop offset=".651" style="stop-color:#fcfaf9"/><stop offset=".718" style="stop-color:#f2eee8"/><stop offset=".794" style="stop-color:#e3d8cc"/><stop offset=".877" style="stop-color:#cebba6"/><stop offset=".965" style="stop-color:#b39675"/><stop offset=".988" style="stop-color:#ab8b67"/></radialGradient><path d="M521.5 95.6c-7.8-31.9-40.1-51.5-72-43.6-31.5 7.7-50.9 39.2-43.9 70.7.4-21.4 15-40.7 36.8-46 25.9-6.4 52.2 9.5 58.5 35.4 5.9 24-7.2 48.1-29.7 56.7 2.2-.3 4.5-.7 6.8-1.2 31.8-7.8 51.3-40.1 43.5-72" style="fill:url(#SVGID_00000114764106043373695270000014076731132403956889_)"/><path d="M458.5 94c.2-.2.6-.1.8.1s.2.6-.1.8c-.2.2-.6.1-.8-.1s-.2-.6.1-.8M448.5 139.2c.4-.3.9-.2 1.1.1.3.4.2.9-.1 1.1-.3.3-.9.2-1.1-.1-.3-.3-.3-.8.1-1.1M440.8 115.4c.3-.3.8-.2 1.1.1s.2.8-.1 1.1-.8.2-1.1-.1c-.3-.4-.2-.9.1-1.1" class="st6"/><path d="m466 131.1.1-.1c.1-.2 0-.3-.2-.4 0 0-13.4-5.5-14.9-6.1 1.3-.3 8.5-2.1 8.5-2.1s.1 0 .1-.1c.1-.1.1-.2.1-.3 0-.2-.2-.3-.3-.2 0 0-8.2 1.5-9.5 1.7.4-.5 5.7-6.9 5.7-6.9.1-.1.1-.3 0-.4s-.3-.1-.4 0c0 0-3.4 3.5-4.8 4.9.7-2.3 8.1-25.2 8.1-25.2 0-.2 0-.3-.2-.4h-.3l-.1.1s-8.5 22.5-9.4 24.7c-.2-1.9-.8-10.5-.8-10.5q0-.3-.3-.3c-.1 0-.1 0-.2.1s-.1.1-.1.2c0 0 .3 12 .3 12.7-.9-1.1-4.5-5.1-4.5-5.1-.1-.1-.3-.1-.4 0s-.1.3 0 .4c0 0 2.7 3.6 3.5 4.7-1.6-.5-16.7-5.3-16.7-5.3-.1 0-.2 0-.3.1l-.1.1c-.1.2 0 .3.2.4 0 0 14.7 5.9 16.3 6.5-1.3.3-5.6 1.4-5.6 1.4s-.1 0-.1.1c-.1.1-.1.2-.1.3 0 .2.2.3.3.2 0 0 5.3-.9 6.6-1.1-.4.5-6.4 7.8-6.4 7.8-.1.1-.1.3 0 .4s.3.1.4 0c0 0 4.1-4.3 5.4-5.7-.7 2.3-8.1 25.2-8.1 25.2 0 .2 0 .3.2.4h.3l.1-.1s8.5-22.5 9.4-24.7c.2 1.9.7 7 .7 7 0 .2.2.3.3.3s.1 0 .2-.1.1-.1.1-.2c0 0-.1-8.6-.1-9.2.9 1.1 4.5 5.1 4.5 5.1.1.1.3.1.4 0s.2-.3.1-.4c0 0-2.7-3.6-3.5-4.7 1.6.5 15.3 4.8 15.3 4.8 0 .1.1.1.2 0" class="st6"/><path d="m336.1 130.9 13.9-28.7h.8l1.4 29.8c.2 4.1.5 4.5 2.7 4.9v.9c-1.4 0-2.9-.2-4.7-.2-1.4 0-2.9.2-4.2.2v-.9c2.1-.1 2.5-1.6 2.5-3.4 0-1.9-.1-3.5-.1-4.3l-1-17.8h-.2L335 136.6l-14.3-25.4h-.2l-.9 15.7c-.1 1.3-.1 3.6-.1 4.9 0 3.5 1.4 4.7 3.1 4.9v.9c-1.4 0-2.8-.2-4.3-.2-1.4 0-2.8.2-4.3.2v-.9c2.6-.6 3-1.4 3.3-5.8l1.9-28.9h.9zM375.7 114.1h-.7c-.4-1.8-1.9-2.9-5.2-2.9h-6.2c-.2 1.8-.3 5-.3 7.4v4.1h6.9c2.2 0 3-.5 3.4-2h.7c0 .8-.1 1.7-.1 2.7s.1 1.9.1 2.7h-.7c-.4-1.5-1.2-2-3.4-2h-6.9v12.1h8.3c2.5 0 3.7-1.2 4.4-2.8l.6.1-.6 4.4c-1.4-.3-2.7-.4-5.3-.4h-12.8v-.5c1.6-.1 2.2-.6 2.2-2.4v-11.2c0-12.4-.2-12.7-2.2-12.8v-.7h15.8c.9 0 1.1-.2 1.3-.6h.7zM381.1 123.7c0-3.6-.2-7.3-.2-10.2 0-2.1-.4-3.1-2.2-3.1v-.7c1.9 0 5.3-.2 7.4-.2 5.5 0 10.6 2.1 10.6 8.3 0 3.7-3.3 6.4-6.7 7.3l8.8 10.3c.8 1 1.5 1.3 2.5 1.7v.7c-1 0-2.1-.2-3.1-.2s-2.1.2-3.1.2v-.8c.1-.1.3-.2.3-.3s-.2-.4-.3-.6l-6.8-8.3c-1-1.2-2.2-2.1-4.1-2.3v9.1c0 1.3.5 2.4 1.9 2.4v.7c-1 0-2.2-.2-3.5-.2-1.2 0-2.4.2-3.4.2v-.7c1.4 0 1.9-1.1 1.9-2.4zm3.2.5c.5.1 1.1.2 1.8.2 4.4 0 7.2-2.7 7.2-6.7 0-3.9-2.5-7-7-7-1.6 0-1.9.1-1.9 1.4 0 1.8-.2 4-.2 5.7v6.4zM431.5 136.9c-3.1.9-7.3 1.4-10.6 1.4-11.9 0-19.7-7.3-19.7-18.1s7.9-18.1 19.7-18.1c4.5 0 9.2 1.8 10.2 1.8.2 0 .4-.2.7-.2l.5 5.4h-.9c-1.7-3.8-6.8-5.3-10.5-5.3-8.9 0-15 5.9-15 16.5 0 7.5 6.7 16.5 15 16.5 5.9 0 9.3-1.5 11.7-5.2l.6.4zM448.3 109.2c8.3 0 14.3 6.2 14.3 14.5 0 8.2-6.1 14.5-14.3 14.5-8.3 0-14.3-6.2-14.3-14.5-.1-8.2 6-14.5 14.3-14.5m0 27.7c7.4 0 10.6-5.9 10.6-13.2s-3.1-13.2-10.6-13.2c-7.4 0-10.6 5.9-10.6 13.2s3.1 13.2 10.6 13.2M480.2 132.2l11.1-23h.7l1.2 23.9c.2 3.3.4 3.6 2.1 3.9v.7c-1.2 0-2.3-.2-3.7-.2-1.2 0-2.3.2-3.3.2v-.7c1.7-.1 2-1.3 2-2.7 0-1.5-.1-2.8-.1-3.5l-.8-14.2h-.2l-9.8 20.2-11.5-20.3h-.2l-.8 12.6c-.1 1-.1 2.9-.1 3.9 0 2.8 1.1 3.8 2.5 3.9v.7c-1.1 0-2.3-.2-3.5-.2s-2.3.2-3.4.2v-.6c2.1-.5 2.4-1.1 2.7-4.6l1.5-23.1h.7zM515.4 132.2l11.1-23h.7l1.1 23.9c.2 3.3.4 3.6 2.1 3.9v.7c-1.2 0-2.3-.2-3.7-.2-1.2 0-2.3.2-3.3.2v-.7c1.7-.1 2-1.3 2-2.7 0-1.5-.1-2.8-.1-3.5l-.8-14.2h-.2l-9.8 20.2-11.5-20.3h-.2l-.8 12.6c-.1 1-.1 2.9-.1 3.9 0 2.8 1.1 3.8 2.5 3.9v.7c-1.1 0-2.3-.2-3.5-.2s-2.3.2-3.4.2v-.6c2.1-.5 2.4-1.1 2.7-4.6l1.5-23.1h.7zM540.4 124.2c-.7.1-.8.7-.8 1.3 0 1.9-.1 4.3-.1 6.4v3.9c0 .7.2 1.4 1 1.4v.4c-.7 0-1.4-.1-2-.1-.7 0-1.4.1-2 .1v-.4c.6 0 1-.6 1-1.4v-2.9c0-2.4-.2-5.9-.2-7.2 0-.8-.1-1.5-.9-1.6v-.4c.7 0 1.3.1 2 .1s1.4-.1 2-.1zM542.3 137.2c.8-.2 1.2-.8 1.2-1.9l.1-11.8h.8l9.6 10.7v-6.8c0-2.5-.5-3.1-1.5-3.2v-.4c.7 0 1.3.1 2 .1s1.3-.1 2-.1v.4c-.9.2-1.3.9-1.3 2.5l-.1 11.2h-.7l-9.8-10.8.1 7.6c0 1.5.5 2.3 1.4 2.5v.4c-.7 0-1.3-.1-2-.1s-1.3.1-1.9.1v-.4zM570.1 126.9h-.8c-.6-1.9-2.5-2.6-4.2-2.6-3.4 0-4.8 2.8-4.8 6.1 0 5.6 4 6.6 5.7 6.6 1.6 0 3-.7 3.9-2.1l.6.3-.6 2.2c-1.6.3-2.6.5-3.8.5-5.9 0-8.5-3.7-8.5-7.2 0-4.1 3.1-7.1 7.5-7.1 2.6 0 3.5.4 4.9.8zM573.8 135.8c.6 0 1 .5 1 1 0 .6-.4 1-1 1s-1-.5-1-1c0-.6.4-1 1-1" class="st2"/><path d="M308.4 148.4h1.2v9.6h-1.2zM321.3 158h-.4c-.2-.2-.4-.5-.7-.9l-6.1-6.7h-.1v7.6h-.8v-9.6h.5l6.7 7.2h.1v-7.2h.8zM328.1 158h-1.2v-9c-1.4 0-2.3.1-3.1.2v-.8h7.3v.8c-.7-.1-1.7-.2-2.9-.2v9zM334.7 152.6h2.2c.4 0 .8-.1 1.2-.1v.8c-.4 0-.8-.1-1.2-.1h-2.2v4.1c.9 0 1.7 0 2.5-.1.4 0 .9-.1 1.3-.1v.8h-5.1v-9.6h5v.8c-.4-.1-.8-.1-1.3-.2h-2.5v3.7zM341.3 148.4h3c2.2 0 3.1.7 3.1 2.1 0 1.6-1.5 2.4-2.9 2.7l2.9 3.7.7.8.3.4h-1.6l-.9-1.2-1.7-2.1-1.1-1.3h-.5v4.7h-1.2v-9.8zm1.2 4.4c.2 0 1.1.1 1.8-.1 1-.2 1.8-.9 1.8-2q0-1.5-1.5-1.8c-.5-.1-1.5 0-2.1 0zM359 158h-.4c-.2-.2-.4-.5-.7-.9l-6.1-6.7h-.1v7.6h-.8v-9.6h.5l6.7 7.2h.1v-7.2h.8zM370.3 158h-1.4c-.4-1.2-.9-2.5-1.5-3.8h-3.6c-.5 1.2-1 2.5-1.4 3.8h-1l4.4-9.8h.3zm-4.7-8-1.5 3.6h3.1zM375.1 158h-1.2v-9c-1.4 0-2.3.1-3.1.2v-.8h7.3v.8c-.7-.1-1.7-.2-2.9-.2v9zM380.5 148.4h1.2v9.6h-1.2zM384.6 153.2c0-3.1 2.3-5 5.2-5 2.6 0 5.3 1.4 5.3 4.8 0 3.1-2.2 5.2-5.4 5.2-3-.1-5.1-2-5.1-5m8.3-3.2c-.7-.9-1.8-1.4-2.9-1.4-2.5 0-4 1.9-4 4.7 0 2.9 1.7 4.3 3.8 4.3 3 0 4-3.1 3.9-4.6.1-1.1-.1-2.1-.8-3M406.3 158h-.4c-.2-.2-.4-.5-.7-.9l-6.1-6.7h-.1v7.6h-.8v-9.6h.5l6.7 7.2h.1v-7.2h.8zM417.6 158h-1.4c-.4-1.2-.9-2.5-1.5-3.8h-3.6c-.5 1.2-1 2.5-1.4 3.8h-1l4.4-9.8h.3zm-4.7-8-1.5 3.6h3.1zM421.3 157.3c.9 0 1.7 0 2.5-.1.4 0 .9-.1 1.3-.1v.8H420v-9.6h1.2v9zM440.3 158h-1.4c-.4-1.2-.9-2.5-1.5-3.8h-3.6c-.5 1.2-1 2.5-1.4 3.8h-1l4.4-9.8h.3zm-4.7-8-1.5 3.6h3.1zM441 148.4h1.3c.2.5.3 1 .4 1.5l.8 2.9 1.2 3.7h.1c.9-2.6 2.4-6.9 2.7-8.1h.8c.3 1 1.4 4.2 2.7 8.1h.1c.2-.5.4-1.1.6-1.6l1.6-5.3.3-1.2h1c-.3.6-.5 1.2-.7 1.8l-2.7 7.8h-1c-.2-.5-1.7-5.1-2.5-7.9h-.1L445 158h-1c-.2-.6-.4-1.3-.6-1.9zM464.2 158h-1.4c-.4-1.2-.9-2.5-1.5-3.8h-3.6c-.5 1.2-1 2.5-1.4 3.8h-1l4.4-9.8h.3zm-4.7-8-1.5 3.6h3.1zM466.6 148.4h3c2.2 0 3.1.7 3.1 2.1 0 1.6-1.5 2.4-2.9 2.7l2.9 3.7.7.8.3.4h-1.6l-.9-1.2-1.7-2.1-1.1-1.3h-.5v4.7h-1.2v-9.8zm1.3 4.4c.2 0 1.1.1 1.8-.1 1-.2 1.8-.9 1.8-2q0-1.5-1.5-1.8c-.5-.1-1.5 0-2.1 0zM476.2 148.4h3.2c1.5 0 2.9-.1 4.1.8 1.1.9 1.5 2.2 1.5 3.5 0 2-.7 3.2-1.8 4.1-1.2 1-2.8 1.1-4.2 1.1h-2.7v-9.5zm1.2 8.9c1.2.1 3 .2 4.1-.3 1.5-.8 2-2.3 2-4 0-3-1.2-4.1-4.4-4.1-.6 0-1.2 0-1.8.1v8.3zM487.6 156.1c.5.9 1.2 1.5 2.3 1.5s2-.9 2-2.1c0-2.6-4.4-1.5-4.4-4.6 0-1.8 1.4-2.7 3.1-2.7.7 0 1.5.2 2 .7-.2.4-.3.8-.4 1.2h-.2c-.3-.8-.9-1.2-1.7-1.2-1 0-1.8.6-1.8 1.6 0 2.6 4.4 1.5 4.4 4.5 0 2-1.6 3.2-3.5 3.2-.7 0-1.8-.3-2.3-.8.1-.4.2-.8.3-1.3zM501.2 158H500v-9.6h2.5c2.7 0 3.6.6 3.6 2.3s-1 2.5-3 2.9c-.6.1-1.5 0-1.9 0zm0-5h1.4c1.4-.1 2.2-1 2.2-2.3 0-1-.5-1.7-1.6-1.8-.6-.1-1.6 0-2 0zM508.7 148.4h3c2.2 0 3.1.7 3.1 2.1 0 1.6-1.5 2.4-2.9 2.7l2.9 3.7.7.8.3.4h-1.6l-.9-1.2-1.7-2.1-1.1-1.3h-.5v4.7h-1.2v-9.8zm1.3 4.4c.2 0 1.1.1 1.8-.1 1-.2 1.8-.9 1.8-2q0-1.5-1.5-1.8c-.5-.1-1.5 0-2.1 0zM517.3 153.2c0-3.1 2.3-5 5.2-5 2.6 0 5.3 1.4 5.3 4.8 0 3.1-2.2 5.2-5.4 5.2-3-.1-5.1-2-5.1-5m8.3-3.2c-.7-.9-1.8-1.4-2.9-1.4-2.5 0-4 1.9-4 4.7 0 2.9 1.7 4.3 3.8 4.3 3 0 4-3.1 3.9-4.6.1-1.1-.1-2.1-.8-3M538.9 150.1c-.8-.9-2-1.4-3.2-1.4-2.4 0-4 1.6-4 4.4s1.4 4.5 4.2 4.5c.8 0 1.5-.1 2.2-.5v-3.6h1.2v4c-1.2.4-2.5.6-3.8.6-3.6 0-5.2-2.1-5.2-5 0-3.3 2.4-5 5.5-5 2.1 0 3.3.6 3.6.8-.1.4-.2.7-.3 1.1h-.2zM542.5 148.4h3c2.2 0 3.1.7 3.1 2.1 0 1.6-1.5 2.4-2.9 2.7l2.9 3.7.7.8.3.4H548l-.9-1.2-1.7-2.1-1.1-1.3h-.5v4.7h-1.2v-9.8zm1.3 4.4c.2 0 1.1.1 1.8-.1 1-.2 1.8-.9 1.8-2q0-1.5-1.5-1.8c-.5-.1-1.5 0-2.1 0zM560.4 158H559c-.4-1.2-.9-2.5-1.5-3.8h-3.6c-.5 1.2-1 2.5-1.4 3.8h-1l4.4-9.8h.3zm-4.8-8-1.5 3.6h3.1zM572.4 148.4c.4 3.5.8 6.9 1.1 9.6h-1.4c-.2-2.8-.5-5.9-.7-7.3-1.6 2.9-2.8 5.2-3.7 7.1h-.2l-.8-1.6c-.9-1.9-1.9-3.7-2.8-5.5-.3 2.7-.7 5.5-.7 7.3h-1c.4-2.3 1.2-8.1 1.3-9.6h.4c1.1 2.2 2.5 4.9 4 7.4 1.3-2.4 2.6-4.8 4-7.4zM576.3 156.1c.5.9 1.2 1.5 2.3 1.5s2-.9 2-2.1c0-2.6-4.4-1.5-4.4-4.6 0-1.8 1.4-2.7 3.1-2.7.7 0 1.5.2 2 .7-.2.4-.3.8-.4 1.2h-.1c-.3-.8-.9-1.2-1.7-1.2-1 0-1.8.6-1.8 1.6 0 2.6 4.4 1.5 4.4 4.5 0 2-1.6 3.2-3.5 3.2-.7 0-1.8-.3-2.3-.8.1-.4.2-.8.3-1.3z" class="st7"/></svg>