<svg version="1.1" id="Layer_1" xmlns="http://www.w3.org/2000/svg" xmlns:xlink="http://www.w3.org/1999/xlink" x="0px" y="0px" viewBox="0 0 342 119" style="enable-background:new 0 0 342 119;" xml:space="preserve">
 <style type="text/css">
  .st0{fill:#0071CE;}
 </style>
 <g>
  <path class="st0" d="M81.4,9.6c-13-9.3-29.7-12-45-7.4L0,13.2v21L81.4,9.6z M99.2,32.5C96.6,25.9,92.7,20,87.7,15L0,41.5v21
		L99.2,32.5L99.2,32.5z M101.7,60c1.3-6.7,1.2-13.8-0.4-20.8L0,69.8v21L101.7,60L101.7,60z M66.3,99C82.3,94.2,94.1,82.4,99.5,68
		L0,98v21C0,119,66.3,99,66.3,99z">
  </path>
  <path d="M127.8,17.1h13c10.8,0,17.4,6.7,17.4,17c0,10.3-6.6,17-17.4,17h-13L127.8,17.1L127.8,17.1z M140.4,43.4
		c5.7,0,8.9-3.6,8.9-9.3c0-5.8-3.2-9.4-8.9-9.4h-3.7v18.7L140.4,43.4C140.4,43.4,140.4,43.4,140.4,43.4z M173.6,51.7
		c-7.6,0-12.9-5.3-12.9-13c0-7.7,5.3-13,12.9-13c7.7,0,12.9,5.3,12.9,13C186.5,46.4,181.3,51.7,173.6,51.7L173.6,51.7z M173.6,32.8
		c-2.7,0-4.2,2.4-4.2,5.9c0,3.4,1.5,5.8,4.2,5.8c2.8,0,4.3-2.4,4.3-5.8C177.8,35.2,176.3,32.8,173.6,32.8L173.6,32.8z M220,25.6
		c5.3,0,8.5,3.5,8.5,9.1v16.3h-8.8V36.9c0-2.1-0.9-3.6-2.9-3.6c-1.5,0-2.8,0.9-3.2,2.7v15.2h-8.7V36.9c0-2.1-0.9-3.6-2.9-3.6
		c-1.5,0-2.9,0.9-3.2,2.7v15.2h-8.8V26.2h8.8v2.1c1.3-1.5,3.7-2.6,6.5-2.6c3.2,0,5.4,1.2,6.9,3C213.7,27.1,216.3,25.6,220,25.6z
		 M242.1,51.1h-8.8V26.2h8.8V51.1z M246.8,26.2h8.8v2.2c1.4-1.5,3.9-2.7,6.8-2.7c5.6,0,8.9,3.6,8.9,9.1v16.3h-8.8V36.9
		c0-2.1-1.1-3.5-3.3-3.5c-1.7,0-3.2,1-3.6,2.7v15.1h-8.8L246.8,26.2L246.8,26.2L246.8,26.2z M284.9,51.1h-8.8V26.2h8.8V51.1z
		 M301.2,51.7c-7.6,0-12.9-5.3-12.9-13c0-7.7,5.3-13,12.9-13c7.7,0,12.9,5.3,12.9,13C314.1,46.4,308.9,51.7,301.2,51.7L301.2,51.7z
		 M301.2,32.8c-2.7,0-4.2,2.4-4.2,5.9c0,3.4,1.5,5.8,4.2,5.8c2.7,0,4.3-2.4,4.3-5.8C305.5,35.2,304,32.8,301.2,32.8L301.2,32.8z
		 M317.5,26.2h8.8v2.2c1.4-1.5,3.9-2.7,6.8-2.7c5.6,0,8.9,3.6,8.9,9.1v16.3h-8.7V36.9c0-2.1-1.1-3.5-3.3-3.5c-1.7,0-3.2,1-3.6,2.7
		v15.1h-8.8V26.2L317.5,26.2z M276.1,17.1h8.8v6.2h-8.8V17.1z M233.3,17.1h8.8v6.2h-8.8V17.1z M157,66.9h8.8v2.2
		c1.4-1.5,3.9-2.7,6.8-2.7c5.6,0,8.9,3.6,8.9,9.1v16.3h-8.7V77.6c0-2.1-1.1-3.5-3.3-3.5c-1.7,0-3.2,1-3.6,2.7v15.1H157L157,66.9
		C157,66.9,157,66.9,157,66.9z M230.9,74.6c-1.2-0.5-2.1-0.7-3.5-0.7c-2.1,0-4.3,1.2-4.6,3.4v14.6h-8.8V66.9h8.8v2.2
		c1.2-1.7,3.2-2.8,5.7-2.8c1.1,0,2,0.2,2.4,0.4L230.9,74.6L230.9,74.6z M266.8,101.4l4-10.2l-9.4-24.3h9.1l4.8,14.2l4.7-14.2h8.7
		l-13.3,34.5L266.8,101.4L266.8,101.4z M258.5,66.9h-8.7v1.9c-1.1-1.3-3.2-2.4-5.9-2.4c-7.1,0-11.2,5.4-11.2,12.2
		c0,6.9,4,12.3,11.2,12.3c2.5,0,4.4-0.9,5.6-2.1l0.2-0.2v1.9c-0.1,3.3-3,4.8-6.3,4.8c-3.5,0-6.2-0.9-8.8-3v7.6
		c2.4,1.6,5.6,2.1,9.1,2.1c8.1,0,14.8-4,14.8-13.2C258.5,88.7,258.5,66.9,258.5,66.9z M246,84.3c-3.5,0-5-2.6-5-5.8
		c0-3.2,1.4-5.6,4.7-5.6c1.7,0,3.5,1.3,4.2,2.4v6.6C249.2,83,247.7,84.3,246,84.3z M136.7,78.3h13.4v-7.5h-13.4v-5.3h15.7v-7.6
		h-24.6v34h24.6v-7.7h-15.7V78.3z M197.7,66.2c-7.5,0-12.8,5.8-12.8,13.1c0,9.1,5.5,13.2,13.9,13.2c3.7,0,6.8-0.8,9.1-1.9v-6.1
		c-2.3,1.3-4.9,1.9-7.6,1.9c-4,0-6.7-1.8-6.9-5h17c0-0.6,0-1,0-1.5C210.6,72.6,206.5,66.2,197.7,66.2z M193.4,76.7
		c0.3-2.9,2.5-4.2,4.4-4.2c1.9,0,4.2,1.3,4.5,4.2H193.4z M297.3,73.7c-2.4,0-4.4-1.9-4.5-4.4c0,0,0,0,0,0c0-2.4,2-4.4,4.4-4.4
		c0,0,0,0,0,0c2.5,0,4.5,2,4.5,4.4C301.7,71.8,299.7,73.7,297.3,73.7 M297.3,64.3c-2.8,0-5.1,2.3-5.1,5s2.3,5,5.1,5
		c2.8,0,5.1-2.2,5.1-5C302.3,66.5,300.1,64.3,297.3,64.3">
  </path>
  <path d="M297,68.9h-1v-1.5h1.5c0.6,0,1.3,0.1,1.3,0.7C298.8,69.1,297.7,68.9,297,68.9 M299.4,68.2c0-0.8-0.4-1.3-1.8-1.3h-2.2v4.9
		h0.6v-2.3h1.2l1.4,2.3h0.7l-1.5-2.3C298.7,69.5,299.4,69.1,299.4,68.2">
  </path>
 </g>
</svg>