<svg xmlns="http://www.w3.org/2000/svg" viewBox="0 0 342 119"><style>.st0-de{fill:var(--color-black)}</style><path d="M81.4 9.6c-13-9.3-29.7-12-45-7.4L0 13.2v21zm17.8 22.9C96.6 25.9 92.7 20 87.7 15L0 41.5v21zm2.5 27.5c1.3-6.7 1.2-13.8-.4-20.8L0 69.8v21zM66.3 99c16-4.8 27.8-16.6 33.2-31L0 98v21zM127.8 17.1h13c10.8 0 17.4 6.7 17.4 17s-6.6 17-17.4 17h-13zm12.6 26.3c5.7 0 8.9-3.6 8.9-9.3 0-5.8-3.2-9.4-8.9-9.4h-3.7v18.7zm33.2 8.3c-7.6 0-12.9-5.3-12.9-13s5.3-13 12.9-13c7.7 0 12.9 5.3 12.9 13s-5.2 13-12.9 13m0-18.9c-2.7 0-4.2 2.4-4.2 5.9 0 3.4 1.5 5.8 4.2 5.8 2.8 0 4.3-2.4 4.3-5.8-.1-3.5-1.6-5.9-4.3-5.9m46.4-7.2c5.3 0 8.5 3.5 8.5 9.1V51h-8.8V36.9c0-2.1-.9-3.6-2.9-3.6-1.5 0-2.8.9-3.2 2.7v15.2h-8.7V36.9c0-2.1-.9-3.6-2.9-3.6-1.5 0-2.9.9-3.2 2.7v15.2H190v-25h8.8v2.1c1.3-1.5 3.7-2.6 6.5-2.6 3.2 0 5.4 1.2 6.9 3 1.5-1.6 4.1-3.1 7.8-3.1m22.1 25.5h-8.8V26.2h8.8zm4.7-24.9h8.8v2.2c1.4-1.5 3.9-2.7 6.8-2.7 5.6 0 8.9 3.6 8.9 9.1v16.3h-8.8V36.9c0-2.1-1.1-3.5-3.3-3.5-1.7 0-3.2 1-3.6 2.7v15.1h-8.8zm38.1 24.9h-8.8V26.2h8.8zm16.3.6c-7.6 0-12.9-5.3-12.9-13s5.3-13 12.9-13c7.7 0 12.9 5.3 12.9 13s-5.2 13-12.9 13m0-18.9c-2.7 0-4.2 2.4-4.2 5.9 0 3.4 1.5 5.8 4.2 5.8s4.3-2.4 4.3-5.8c0-3.5-1.5-5.9-4.3-5.9m16.3-6.6h8.8v2.2c1.4-1.5 3.9-2.7 6.8-2.7 5.6 0 8.9 3.6 8.9 9.1v16.3h-8.7V36.9c0-2.1-1.1-3.5-3.3-3.5-1.7 0-3.2 1-3.6 2.7v15.1h-8.8v-25zm-41.4-9.1h8.8v6.2h-8.8zm-42.8 0h8.8v6.2h-8.8zM157 66.9h8.8v2.2c1.4-1.5 3.9-2.7 6.8-2.7 5.6 0 8.9 3.6 8.9 9.1v16.3h-8.7V77.6c0-2.1-1.1-3.5-3.3-3.5-1.7 0-3.2 1-3.6 2.7v15.1H157zm73.9 7.7c-1.2-.5-2.1-.7-3.5-.7-2.1 0-4.3 1.2-4.6 3.4v14.6H214v-25h8.8v2.2c1.2-1.7 3.2-2.8 5.7-2.8 1.1 0 2 .2 2.4.4zm35.9 26.8 4-10.2-9.4-24.3h9.1l4.8 14.2 4.7-14.2h8.7l-13.3 34.5zm-8.3-34.5h-8.7v1.9c-1.1-1.3-3.2-2.4-5.9-2.4-7.1 0-11.2 5.4-11.2 12.2 0 6.9 4 12.3 11.2 12.3 2.5 0 4.4-.9 5.6-2.1l.2-.2v1.9c-.1 3.3-3 4.8-6.3 4.8-3.5 0-6.2-.9-8.8-3v7.6c2.4 1.6 5.6 2.1 9.1 2.1 8.1 0 14.8-4 14.8-13.2zM246 84.3c-3.5 0-5-2.6-5-5.8s1.4-5.6 4.7-5.6c1.7 0 3.5 1.3 4.2 2.4v6.6c-.7 1.1-2.2 2.4-3.9 2.4m-109.3-6h13.4v-7.5h-13.4v-5.3h15.7v-7.6h-24.6v34h24.6v-7.7h-15.7zm61-12.1c-7.5 0-12.8 5.8-12.8 13.1 0 9.1 5.5 13.2 13.9 13.2 3.7 0 6.8-.8 9.1-1.9v-6.1c-2.3 1.3-4.9 1.9-7.6 1.9-4 0-6.7-1.8-6.9-5h17v-1.5c.2-7.3-3.9-13.7-12.7-13.7m-4.3 10.5c.3-2.9 2.5-4.2 4.4-4.2s4.2 1.3 4.5 4.2zm103.9-3c-2.4 0-4.4-1.9-4.5-4.4 0-2.4 2-4.4 4.4-4.4 2.5 0 4.5 2 4.5 4.4 0 2.5-2 4.4-4.4 4.4m0-9.4c-2.8 0-5.1 2.3-5.1 5s2.3 5 5.1 5 5.1-2.2 5.1-5c-.1-2.8-2.3-5-5.1-5" class="st0-de"/><path d="M297 68.9h-1v-1.5h1.5c.6 0 1.3.1 1.3.7 0 1-1.1.8-1.8.8m2.4-.7c0-.8-.4-1.3-1.8-1.3h-2.2v4.9h.6v-2.3h1.2l1.4 2.3h.7l-1.5-2.3c.9 0 1.6-.4 1.6-1.3" class="st0-de"/></svg>
