<svg xmlns="http://www.w3.org/2000/svg" viewBox="0 0 341.8 103"><style>.st0-gsk{fill:var(--color-black)}</style><path d="M94.9 41.3h-34v6.4c0 7.5 6 13.7 13.5 13.7h8.3v16.5c0 2.2-1.8 3.9-3.9 3.9H27.2c-3.3 0-5.9-2.7-5.9-5.9V27.2c0-3.3 2.6-5.9 5.9-5.9h55.4V0h-57c-4 0-7.9.9-11.5 2.7-5 2.4-9 6.5-11.4 11.4C.9 17.7 0 21.6 0 25.6v51.8c0 4 .9 7.9 2.7 11.5 2.4 5 6.5 9 11.4 11.4 3.6 1.8 7.5 2.7 11.5 2.7h43c8 0 14.5-6.5 14.5-14.5v-5.8c0-.5.4-1 .9-1h.1c11.5-.3 18.9-5.9 18.9-15.6V41.3zM118.5 40c0 13.2 11 21.4 26 21.4h50.3c3-.2 5.7 2.1 5.9 5.1v9.4c.2 3-2.1 5.7-5.1 5.9H124V103h71.4c14.1.4 25.8-10.8 26.2-24.9V67.4c.4-14.1-10.8-25.8-24.9-26.2h-51.5c-3 .2-5.7-2.1-5.9-5.1V25.2c-.2-2 1.3-3.8 3.3-3.9H213V0h-59.7c-7.9 0-14.4 6.4-14.5 14.3v5.9c0 .5-.4 1-.9 1h-.1c-10.2.4-19.3 6.1-19.3 18.8M238.8 72.9V103H260V55.8c0-2.1 1.6-2.5 2.8-1.3l50 48.5h29l-53-51.5 53-51.5h-29l-50 48.5c-1.2 1.2-2.8.8-2.8-1.3V0h-21.2v30.3c0 10.9 7.1 17.4 19.7 20.9.5.2.5.7 0 .8-12.6 3.4-19.7 10-19.7 20.9" class="st0-gsk"/></svg>
