<svg width="94" height="29" viewBox="0 0 94 29" fill="none" xmlns="http://www.w3.org/2000/svg">
<path class="dot" d="M88.1348 28.196C86.7617 28.196 85.5839 27.7166 84.6014 26.7578C83.6307 25.7872 83.1513 24.6094 83.1632 23.2244C83.1513 21.875 83.6307 20.7209 84.6014 19.7621C85.5839 18.8033 86.7617 18.3239 88.1348 18.3239C89.4368 18.3239 90.5851 18.8033 91.5794 19.7621C92.5855 20.7209 93.0945 21.875 93.1064 23.2244C93.0945 24.1477 92.8519 24.9882 92.3784 25.7457C91.9167 26.4915 91.313 27.0892 90.5673 27.5391C89.8216 27.977 89.0107 28.196 88.1348 28.196Z" fill="#333935"/>
<path class="c" d="M65.625 28.125C62.6657 28.125 60.1326 27.5391 58.0256 26.3672C55.9186 25.1835 54.3028 23.5381 53.1783 21.4311C52.0537 19.3123 51.4915 16.8561 51.4915 14.0625C51.4915 11.2689 52.0537 8.81865 53.1783 6.71165C54.3028 4.5928 55.9186 2.94744 58.0256 1.77556C60.1326 0.591854 62.6657 0 65.625 0C68.3002 0 70.6143 0.485321 72.5675 1.45597C74.5324 2.41477 76.0535 3.77604 77.1307 5.53977C78.2079 7.29167 78.7524 9.35132 78.7642 11.7187H69.6733C69.5431 10.2865 69.1288 9.19744 68.4304 8.4517C67.7438 7.69413 66.8561 7.31534 65.767 7.31534C64.9148 7.31534 64.169 7.56392 63.5298 8.06108C62.8906 8.5464 62.3935 9.28622 62.0384 10.2805C61.6832 11.263 61.5057 12.5 61.5057 13.9915C61.5057 15.483 61.6832 16.7258 62.0384 17.7202C62.3935 18.7026 62.8906 19.4425 63.5298 19.9396C64.169 20.425 64.9148 20.6676 65.767 20.6676C66.4891 20.6676 67.1283 20.5019 67.6847 20.1705C68.241 19.8272 68.6908 19.33 69.0341 18.679C69.3892 18.0161 69.6023 17.2112 69.6733 16.2642H78.7642C78.7287 18.6671 78.1783 20.7623 77.1129 22.5497C76.0476 24.3253 74.5384 25.6984 72.5852 26.669C70.6439 27.6397 68.3239 28.125 65.625 28.125Z" fill="#333935"/>
<path class="dash" d="M50 9.44602V16.8324H0V9.44602H50Z" fill="#333935"/>
</svg>
