<svg xmlns="http://www.w3.org/2000/svg" width="1024" height="269" viewBox="-2.142 -2.142 288.523 75.687"><path d="m127.95 26.316-7.184-16.592h6.676l3.557 9.375 3.355-9.375h6.54l-10.886 25.24h-6.17zm-95.207-7.45q.967.098 1.886.333L37.914.348Q36.982.152 36.03.013Zm-9.926 3.34L8.355 9.921a32 32 0 0 0-1.908 2.299l14.429 12.263a12.7 12.7 0 0 1 1.941-2.277m25.22-17.754a32 32 0 0 0-1.545-.916l-9.45 16.553q.812.398 1.556.903zm7.14 6.15L40.76 22.845q.532.569.994 1.199l14.413-12.237q-.48-.615-.988-1.205M19.043 28.739a13 13 0 0 1 1.204-3.211l-17.712-6.53a32 32 0 0 0-1.167 3.23Zm25.18 2.885c0 7.083-5.71 12.823-12.754 12.823-6.308 0-11.543-4.606-12.568-10.655l-17.68 6.52a32 32 0 0 0 1.44 4.042l17.572-6.478L5.888 50.078a32 32 0 0 0 2.988 3.62L22.29 42.3l-8.75 15.41a31.4 31.4 0 0 0 4.4 2.591l8.222-14.477-2.87 16.474c1.757.477 3.573.801 5.436.965l2.677-15.396 2.686 15.405c1.95-.164 3.85-.505 5.682-1.012l-2.49-14.291 7.172 12.58a31.5 31.5 0 0 0 5.544-3.273L43.414 45.74 53.48 54.29a32 32 0 0 0 4.282-5.264l-8.995-7.634 11.012 4.058a31.8 31.8 0 0 0 2.342-6.74l-9.666-3.558 10.272-.002c.132-1.188.207-2.393.207-3.616 0-1.416-.1-2.807-.278-4.173H43.497a12.9 12.9 0 0 1 .725 4.264zm-25.507 0q.002-1.068.172-2.09H.067a31 31 0 0 0-.067 2c0 .626.023 1.249.058 1.867H18.84a13 13 0 0 1-.124-1.777m5.362-10.444a12.6 12.6 0 0 1 2.21-1.272L16.835 3.33q-1.128.602-2.2 1.291zM24.92.37Q25.952.15 27.007 0l3.287 18.859q-1.074.098-2.091.369zm169.92 62.35h2.88V37.52h-2.88zm53.23-24.383q.542.58.544 1.465-.001.885-.544 1.464-.54.578-1.423.579-.88 0-1.422-.579-.54-.579-.54-1.464 0-.886.54-1.465.542-.577 1.422-.577.882 0 1.423.577m-77.71-11.034V17.77q0-3.131-2.338-3.132-1.286 0-1.947.867-.66.868-.66 2.503v9.296h-6.098V1.424h6.098v10.181a4.96 4.96 0 0 1 2.031-1.788q1.286-.63 2.913-.63 3.015.001 4.555 1.874 1.542 1.874 1.542 5.55v10.692zm16.878 29.678q-.406 1.177-1.168 1.993a5.4 5.4 0 0 1-1.812 1.278q-1.05.458-2.371.459-1.319-.001-2.37-.46a5.4 5.4 0 0 1-1.813-1.277q-.762-.816-1.168-1.993-.407-1.176-.407-2.605t.407-2.605q.406-1.172 1.168-1.993a5.5 5.5 0 0 1 1.812-1.275c.7-.307 1.493-.46 2.37-.46q1.323 0 2.372.46 1.05.46 1.812 1.275.761.821 1.168 1.993.407 1.174.408 2.605 0 1.43-.408 2.605m.864-8.972a8.5 8.5 0 0 0-2.76-1.875q-1.593-.68-3.455-.68-1.861 0-3.455.68a8.55 8.55 0 0 0-2.76 1.875 8.6 8.6 0 0 0-1.83 2.825q-.66 1.636-.66 3.542 0 1.907.66 3.542a8.6 8.6 0 0 0 1.83 2.827 8.5 8.5 0 0 0 2.76 1.873q1.593.679 3.455.68 1.861-.001 3.455-.68a8.5 8.5 0 0 0 2.76-1.873 8.6 8.6 0 0 0 1.829-2.827q.66-1.635.66-3.542t-.66-3.542a8.6 8.6 0 0 0-1.83-2.825m57.123 14.71h2.879V45.932h-2.879zm-8.94-51.658q1.542 1.874 1.542 5.55v10.692h-6.097V17.77q.001-3.131-2.338-3.132-1.285 0-1.947.867-.66.868-.66 2.503v9.296h-6.097V9.732h5.962l.068 2.18a4.78 4.78 0 0 1 1.98-2.01q1.305-.714 3.032-.714 3.014 0 4.556 1.873M184.3 16.892q.699-3.557 3.826-3.557 1.521 0 2.469.93.945.933 1.152 2.627zm12.48 1.081q-.001-2.044-.593-3.66-.594-1.617-1.711-2.76-1.12-1.139-2.709-1.753-1.593-.611-3.556-.612-2.033 0-3.71.68a8.6 8.6 0 0 0-2.895 1.908q-1.22 1.224-1.88 2.947-.66 1.717-.66 3.795 0 2.146.728 3.882a8 8 0 0 0 2.1 2.945q1.37 1.21 3.319 1.857 1.947.646 4.387.648 2.031 0 3.912-.477t3.199-1.363l-1.93-3.916q-1.085.478-2.354.732-1.27.255-2.286.254c-2.778 0-5.23-.997-5.84-2.996h12.275q.203-.85.204-2.11m14.496 3.577q-1.052 1.156-2.778 1.157-1.727-.001-2.777-1.157-1.05-1.158-1.05-3.032 0-1.872 1.05-3.03 1.05-1.159 2.777-1.158 1.727 0 2.778 1.157 1.048 1.16 1.05 3.031-.001 1.875-1.05 3.032m4.097-9.705a9.1 9.1 0 0 0-3.047-1.96q-1.764-.697-3.828-.697-2.068 0-3.827.697a9.1 9.1 0 0 0-3.048 1.96 9.1 9.1 0 0 0-2.015 2.962q-.73 1.701-.73 3.711t.73 3.713a9.1 9.1 0 0 0 2.015 2.962 9.1 9.1 0 0 0 3.048 1.958q1.759.698 3.827.699 2.064 0 3.828-.699a9.1 9.1 0 0 0 3.047-1.958 9.1 9.1 0 0 0 2.015-2.962q.73-1.703.73-3.713t-.73-3.711a9.1 9.1 0 0 0-2.015-2.962M167.273 47.31q1.558 1.856 1.558 5.432v9.977h-2.879v-9.468q0-2.725-.93-3.982-.933-1.261-2.963-1.26-2.238 0-3.473 1.48-1.237 1.48-1.237 4.138v9.092h-2.879V45.932h2.71l.044 2.979q.577-1.39 1.717-2.265 1.558-1.191 3.794-1.191 2.98-.001 4.538 1.856m48.72 9.67q-.409 1.177-1.168 1.993a5.4 5.4 0 0 1-1.814 1.278q-1.05.458-2.37.459-1.32-.001-2.371-.46a5.4 5.4 0 0 1-1.812-1.277q-.762-.816-1.168-1.993-.408-1.176-.407-2.605 0-1.43.407-2.605.405-1.172 1.168-1.993a5.5 5.5 0 0 1 1.812-1.275q1.05-.46 2.37-.46 1.322 0 2.37.46 1.05.46 1.815 1.275a5.6 5.6 0 0 1 1.167 1.993q.406 1.174.408 2.605-.002 1.43-.408 2.605m.864-8.972a8.6 8.6 0 0 0-2.762-1.875q-1.592-.68-3.454-.68-1.861 0-3.455.68a8.6 8.6 0 0 0-2.76 1.875 8.6 8.6 0 0 0-1.83 2.825q-.66 1.636-.66 3.542 0 1.907.66 3.542a8.6 8.6 0 0 0 1.83 2.827q1.168 1.192 2.76 1.873 1.593.679 3.455.68 1.861-.001 3.454-.68a8.5 8.5 0 0 0 2.762-1.873 8.6 8.6 0 0 0 1.828-2.827q.66-1.635.66-3.542t-.66-3.542a8.6 8.6 0 0 0-1.828-2.825M112.42 21.327q-.983 1.074-2.54 1.073-1.56 0-2.558-1.073-.999-1.07-.999-2.809 0-1.736.999-2.809t2.557-1.072q1.559-.001 2.541 1.072.98 1.072.982 2.809-.001 1.737-.982 2.81m6.739-11.595h-5.723l-.068 2.044a5.4 5.4 0 0 0-2.082-1.908q-1.305-.68-2.897-.68a7.34 7.34 0 0 0-3.217.714 8 8 0 0 0-2.591 1.976q-1.1 1.26-1.711 2.98-.61 1.72-.61 3.728 0 2.044.593 3.746.593 1.703 1.643 2.929a7.4 7.4 0 0 0 2.506 1.906q1.456.684 3.219.683 1.692 0 3.03-.666a5.2 5.2 0 0 0 2.117-1.89l.068 2.01h5.723zm165.079 48.493q0 2.349-1.846 3.712-1.848 1.361-4.96 1.362-1.63 0-3.22-.462-1.59-.458-2.54-1.173l1.188-2.077q2.198 1.294 4.571 1.294c1.24 0 2.202-.216 2.877-.648q1.017-.646 1.016-1.837 0-.547-.151-.954-.155-.411-.593-.731-.441-.327-1.22-.63a26 26 0 0 0-2.03-.683q-2.746-.817-3.931-2.009t-1.185-3.132q0-2.18 1.676-3.493 1.676-1.309 4.522-1.31 1.287 0 2.743.391 1.457.39 2.439 1.007l-1.118 2.077q-2.1-1.057-4.064-1.056-3.42-.002-3.42 2.076 0 1.057.778 1.687.779.628 2.711 1.209 1.624.475 2.725.987 1.1.51 1.779 1.14.675.63.965 1.43.289.801.288 1.823M98.179 40.176h-8.806V62.72h-3.048V40.176h-8.806v-2.62h20.66ZM84.818 6.6h1.93q4.403 0 4.403 3.542 0 3.645-4.47 3.644h-1.863zm3.385 12.328 4.505 8.376h7.452L93.76 17.054q1.861-1.09 2.879-2.91a8 8 0 0 0 1.015-3.969q0-2.043-.694-3.677a7.5 7.5 0 0 0-1.98-2.757q-1.288-1.125-3.15-1.72-1.865-.597-4.234-.597h-9.28v25.88h6.503V18.96h1.862zM104.46 47.94q1.389 0 2.338.495a4.3 4.3 0 0 1 1.524 1.274q.576.784.83 1.807c.133.535.199 1.082.227 1.633H99.215c.162-1.428.609-2.594 1.35-3.49q1.423-1.72 3.894-1.719m5.606-.17a7.1 7.1 0 0 0-2.387-1.704q-1.39-.611-3.049-.612-1.83-.001-3.353.664a7.6 7.6 0 0 0-2.625 1.873q-1.1 1.209-1.71 2.895t-.61 3.693q0 4.12 2.439 6.42t6.841 2.299a14.6 14.6 0 0 0 3.472-.408q1.676-.41 2.829-1.124l-1.085-2.111q-2.608 1.053-5.08 1.055-3.22-.001-4.91-1.55c-.941-.86-1.483-2.108-1.64-3.73h12.883c.023-.226.04-.432.051-.61q.016-.276.017-.989 0-1.874-.542-3.424t-1.54-2.638m150.35.17q4.333 0 4.91 4.357.067.273.084.648c0 .02 0 .047.002.067h-10.076c.16-1.327.593-2.437 1.304-3.318q1.402-1.755 3.775-1.754zm5.69-.222a6.8 6.8 0 0 0-2.389-1.67q-1.406-.594-3.132-.594-1.763-.001-3.252.664a7.5 7.5 0 0 0-2.574 1.873q-1.085 1.207-1.695 2.86-.607 1.652-.608 3.591.001 4.223 2.387 6.54 2.388 2.316 6.723 2.316 1.862-.001 3.556-.443 1.694-.444 2.98-1.226l-1.016-2.178q-2.708 1.257-5.385 1.259c-3.923 0-6.046-1.809-6.384-5.417H268.1q.035-.34.054-.61.014-.276.014-.988 0-1.874-.54-3.39-.541-1.512-1.525-2.587M129.37 59.86l1.05 2.146a9.8 9.8 0 0 1-2.488.954q-1.406.34-2.83.34-2.1 0-3.81-.613-1.71-.615-2.912-1.771a7.8 7.8 0 0 1-1.846-2.793q-.643-1.634-.643-3.644 0-2.009.66-3.66a8.4 8.4 0 0 1 1.846-2.843q1.185-1.192 2.861-1.856t3.675-.664q2.676-.001 5.149 1.363l-1.118 2.11a8 8 0 0 0-1.897-.665 9.4 9.4 0 0 0-1.997-.22q-2.88 0-4.556 1.702-1.677 1.703-1.677 4.598 0 2.998 1.71 4.682 1.71 1.686 4.726 1.686 1.964 0 4.097-.852m18.053-12.533Q149 49.2 149 52.743v9.977h-2.88v-9.468q0-2.725-.948-3.982-.95-1.261-2.98-1.26-2.236 0-3.473 1.48t-1.235 4.138v9.092h-2.88V37.52h2.88v11.161a5.37 5.37 0 0 1 1.727-2.12q1.524-1.107 3.658-1.107 2.98 0 4.555 1.87m7.237-19.715q-1.337.238-2.76.239-6.604 0-6.604-6.915V14.67h-2.945V9.732h2.945V5.204h6.096v4.528h5.69l-1.523 4.938h-4.167v5.212q0 1.598.508 2.229.51.63 1.728.631 1.389 0 2.71-.511l.61 4.733q-.949.407-2.288.647m80.91 31.313a5.5 5.5 0 0 1-1.813 1.309 5.4 5.4 0 0 1-2.268.478q-2.641 0-4.183-1.686-1.542-1.684-1.542-4.582 0-1.395.424-2.569.426-1.176 1.185-2.027a5.4 5.4 0 0 1 1.812-1.328 5.5 5.5 0 0 1 2.304-.476q1.286 0 2.353.46a5.1 5.1 0 0 1 1.813 1.295q.744.833 1.151 2.023.406 1.193.406 2.622.001 1.364-.44 2.505a6.2 6.2 0 0 1-1.202 1.976m1.44-9.993a7.2 7.2 0 0 0-2.033-2.269q-1.694-1.207-3.894-1.207-1.763 0-3.27.698a8.3 8.3 0 0 0-2.623 1.906 8.7 8.7 0 0 0-1.744 2.844q-.628 1.635-.626 3.54-.001 1.975.574 3.612.575 1.633 1.627 2.793a7.4 7.4 0 0 0 2.505 1.803q1.455.646 3.218.648 2.336-.001 4.097-1.159a6.8 6.8 0 0 0 2.167-2.315V61.8q0 3.642-1.506 5.345-1.507 1.704-4.69 1.704-3.659-.001-5.724-1.328l-.746 2.35q.44.34 1.17.61.728.274 1.59.48.864.202 1.83.322.963.12 1.915.119 9.04 0 9.04-9.91V45.932h-2.81z" style="fill:var(--color-black);fill-rule:evenodd;stroke:none;stroke-width:1"/></svg>
