<svg xmlns="http://www.w3.org/2000/svg" viewBox="0 0 593.9 240.3" height="50px" width="124px" class="nav-header-logo"><path fill="none" d="M465.4 51.9c-6.2 0-10 4.1-10.7 17.3h20.9c-.5-13.4-3.9-17.3-10.2-17.3z"></path><path fill="#fff" d="M358.9 94.5H350v12.2h37.6V94.5h-6.2V69.7c0-7.6 4.5-13.4 10.3-13.4 2.5 0 4.4.7 5.7 2 1.9 1.9 2.7 4.8 2.7 8.8v27.4h-6.4v12.2h37.7V94.5h-8.7V65.2c0-13.2-5.2-23.3-20.3-23.3-10.7 0-17.1 6.4-21 15.1V14.2H350v12.2h8.8v68.1zm108 13.7c19.3 0 27.7-9.4 29.7-22.5h-12c-2.4 7.6-6.8 10.7-14.2 10.7-9.4 0-14.8-3.7-15.6-18.1h42.7c1.1-22-9.5-36.3-31.8-36.3-19.5 0-34.1 14.3-34.1 33.7 0 19.8 13.6 32.5 35.3 32.5zm-1.5-56.3c6.3 0 9.6 3.9 10.2 17.3h-20.9c.7-13.2 4.6-17.3 10.7-17.3zM362.7 117h-32.1v12.2h9.5v26.3c-3.9-6.4-10-10.7-19-10.7-6.6 0-12.2 2.4-16.3 6.6-5.6 5.6-9 14.8-9 26.6 0 11.1 2.8 20.7 8.6 26.5 4 4 9.1 6.6 16 6.6 11.1 0 17.8-6.3 21.3-14.8v13.4h29.8v-12.2h-8.8V117zm-32.4 81.1c-7.8 0-10.4-6.6-10.4-19.4 0-13.6 2.8-20.7 10.4-20.7 8 0 11.4 8.6 11.4 20.1 0 11-3.8 20-11.4 20zm77.2-53.3c-19.8 0-35.3 13.8-35.3 33.4 0 19.7 14.8 32.8 35.2 32.8 19.8 0 35.3-13.8 35.3-33.4 0-19.7-14.8-32.8-35.2-32.8zm.3 56.3c-7.8 0-11-6.2-11-23.1 0-16.8 2.7-23.3 10.3-23.3 7.8 0 11 6.2 11 23.1 0 16.9-2.7 23.3-10.3 23.3zM513.3 117h-32.1v12.2h9.5v26.3c-3.9-6.4-10-10.7-19-10.7-6.6 0-12.2 2.4-16.3 6.6-5.6 5.6-9 14.8-9 26.6 0 11.1 2.8 20.7 8.6 26.5 4 4 9.1 6.6 16 6.6 11.1 0 17.8-6.3 21.3-14.8v13.4h29.8v-12.2h-8.8V117zm-32.4 81.1c-7.8 0-10.4-6.6-10.4-19.4 0-13.6 2.8-20.7 10.4-20.7 8 0 11.4 8.6 11.4 20.1 0 11-3.8 20-11.4 20zm76.5-53.3c-19.8 0-35.3 13.8-35.3 33.4 0 19.7 14.8 32.8 35.2 32.8 19.8 0 35.3-13.8 35.3-33.4 0-19.7-14.9-32.8-35.2-32.8zm.3 56.3c-7.8 0-11-6.2-11-23.1 0-16.8 2.7-23.3 10.3-23.3 7.8 0 11 6.2 11 23.1 0 16.9-2.7 23.3-10.3 23.3zM332.4 94.3c-4.1 0-6.2-3.3-6.2-9V55.6h20.1V44.1h-20.1V24.9l-21.9 4.7V44H293v11.5h10.7v28.9c0 16.2 7.2 23.7 22.2 23.7 12.9 0 19.3-6.1 22.4-19.7l-9.1-2.3c-1.7 6-3.3 8.2-6.8 8.2zm-92.6 25.2C239.8 53.3 186.1-.4 119.9-.4 53.7-.3 0 53.3 0 119.5c0 27.5 9.3 52.8 24.8 73 12.6-3.3 25.4-5.2 38.2-5.6l-5.9-12.5S36.6 138.8 33 112.8c-.5-3.4-.8-6.8-.8-10.4 0-35.5 28.8-64.3 64.3-64.3 13.5 0 26.2 4.3 36.6 11.3l52.3 41.1c.6-.1 1.2-.2 1.8-.2.5 0 1 0 1.5-.1.4 0 .9-.1 1.3-.1h.4c.5 0 1.1 0 1.6.1.6 0 1.2.1 1.7.1.3 0 .7.1 1 .2.8.1 1.5.2 2.3.4.2 0 .3.1.5.1.9.2 1.8.5 2.7.8h.1c.1 0 .3.1.4.2 2.2.8 4.3 1.8 6.3 3 .1.1.3.2.4.3.6.4 1.1.8 1.7 1.2.2.2.4.3.7.5l1.5 1.2c.2.2.5.4.7.7.4.4.9.8 1.3 1.2.2.3.5.5.7.8 4.1 4.5 6.9 10.1 7.9 16.4v.3c.1.8.2 1.6.3 2.5v1c0 .5.1 1.1.1 1.6v.7c0 .7 0 1.4-.1 2.1v.4c0 .5-.1 1-.2 1.5v.1c-.1.7-.2 1.4-.4 2.1v.2c-.8 3.5-2.2 7-4.1 10-.1.1-.2.3-.3.4-1.5 2.2-3.4 4-5.5 5.2-1.5.8-3.2 1.7-4.7.6-1.1-.8-1.8-2.1-2.6-3.1-.6-.7-1.2-1.3-1.8-1.9-6.9 6.7-17.1 9.5-26.9 6.2-4.4-1.5-8.1-4-11-7.2-3.1.7-32.7 6.9-38.8 8.1 7.8 6.5 14.9 13.8 21.3 21.8 13.2 16.2 23.1 35.1 29 55.7 37.7-20.2 63.6-60.1 63.6-106.1z"></path><path fill="#0c0c0c" d="M89 235.4c12.7-27 32.9-49.7 57.9-65.5-6.4-7.9-13.5-15.2-21.3-21.8-.5.1-.9.2-1 .2h-.2c-2.2.3-4.5.5-6.8.5h-2.3c-27-1.2-48.5-23.5-48.5-50.8 0-27.1 21.1-49.2 47.8-50.7h5.5c.3 0 .6 0 .8.1.4 0 .9.1 1.3.1.8.1 1.7.2 2.5.3.3 0 .7.1 1 .1 1 .1 1.9.3 2.8.5.2 0 .4.1.5.1 1.4.3 2.8.7 4.2 1.1-10.3-7.1-23.1-11.3-36.6-11.3-35.5 0-64.3 28.8-64.3 64.3 0 3.5.3 7 .8 10.4 3.6 26.1 24.1 61.6 24.1 61.6l5.9 12.5c-12.8.4-25.6 2.3-38.2 5.6 15.8 20.5 38.2 35.8 64.1 42.7z"></path><path fill="#ffa817" d="M128.3 48.3c-.9-.2-1.9-.4-2.8-.5-.3-.1-.7-.1-1-.1-.8-.1-1.6-.2-2.5-.3-.4 0-.9-.1-1.3-.1-.3 0-.6-.1-.8-.1h-5.5c-26.7 1.6-47.8 23.7-47.8 50.7 0 27.3 21.5 49.6 48.5 50.8h2.3c2.3 0 4.6-.2 6.8-.5h.2c.2 0 .5-.1 1-.2 6.1-1.2 35.7-7.4 38.8-8.1-4.6-5.1-7.2-11.9-6.8-18.9v-.1c.1-2.5.6-5 1.3-7.5 0-.1.1-.2.1-.3l.3-.9c.1-.3.3-.7.4-1 .2-.4.3-.8.5-1.2.2-.6.5-1.1.8-1.7.2-.4.4-.7.5-1 .3-.6.6-1.1 1-1.7.2-.3.3-.5.5-.8.4-.6.8-1.2 1.2-1.7.1-.2.3-.4.5-.6.5-.6 1-1.2 1.5-1.7l.4-.4c.5-.6 1.1-1.1 1.7-1.7.2-.1.3-.3.5-.4l1.8-1.5c1.6-1.2 3.3-2.3 5.1-3.2h.1l2.7-1.2c.1 0 .2-.1.4-.1.8-.3 1.7-.6 2.5-.8.2-.1.5-.1.8-.2.7-.2 1.4-.4 2.2-.5.4-.1.8-.1 1.2-.2h.1l-52.3-41.1c-1.4-.4-2.8-.8-4.2-1.1-.3 0-.5-.1-.7-.1zm7.6 40.8c0 5.8-3.7 10.8-8.9 12.6-1.4.5-3 .8-4.6.8-7.4 0-13.5-6-13.5-13.5 0-7.4 6-13.5 13.5-13.5 2.9 0 5.5.9 7.7 2.4 3.5 2.6 5.8 6.6 5.8 11.2z"></path><path fill="#fff" d="M109 89.1c0 7.4 6 13.5 13.5 13.5 1.6 0 3.2-.3 4.6-.8 5.2-1.9 8.9-6.8 8.9-12.6 0-4.6-2.3-8.6-5.8-11.1-2.2-1.5-4.8-2.4-7.7-2.4-7.5-.1-13.5 6-13.5 13.4zm20.4-5.2c2 1.2 3.4 3.5 3.4 6 0 3.2-2.1 5.9-5 6.7-.6.2-1.3.3-2 .3-3.9 0-7.1-3.2-7.1-7.1 0-3.9 3.2-7.1 7.1-7.1 1.3.2 2.5.6 3.6 1.2z"></path><path d="M118.7 89.9c0 3.9 3.2 7.1 7.1 7.1.7 0 1.4-.1 2-.3 2.9-.9 5-3.5 5-6.7 0-2.5-1.4-4.8-3.4-6-1.1-.7-2.3-1.1-3.7-1.1-3.9 0-7 3.1-7 7z"></path><path fill="#a92823" d="M193.6 137.3c-3.3-1-6.5-2.2-9.7-3.3-4.6-1.6-9.2-3.2-13.7-5.2-3.4-1.5-6.7-3.2-9.7-5.3-.8-.6-1.6-1.2-2.3-1.9l-.5-.5c-.3 7 2.2 13.8 6.8 18.9 2.9 3.2 6.7 5.7 11 7.2 9.7 3.3 20 .5 26.9-6.2-.1-.1-.2-.2-.4-.3-2.5-1.9-5.5-2.5-8.4-3.4z"></path><path fill="#e83932" d="M184.1 90.8c-.7.1-1.5.3-2.2.5-.3.1-.5.1-.8.2-.9.2-1.7.5-2.5.8-.1 0-.2.1-.4.1-.9.4-1.8.7-2.7 1.2h-.1c-1.8.9-3.5 2-5.1 3.2l-1.8 1.5c-.2.1-.3.3-.5.4-.6.5-1.1 1.1-1.7 1.7l-.4.4c-.5.6-1 1.1-1.5 1.7-.2.2-.3.4-.5.6-.4.6-.8 1.2-1.2 1.7-.2.3-.3.5-.5.8-.3.6-.7 1.1-1 1.7-.2.3-.4.7-.5 1-.3.5-.5 1.1-.8 1.7-.2.4-.3.8-.5 1.2-.1.3-.3.7-.4 1l-.3.9c0 .1-.1.2-.1.3-.7 2.5-1.2 5-1.3 7.5v.1c.1.2.5.5.5.5.7.7 1.5 1.3 2.3 1.9 3.1 2.1 6.4 3.8 9.7 5.3 4.5 2 9.1 3.6 13.7 5.2 3.2 1.1 6.5 2.3 9.7 3.3 2.9.9 5.9 1.6 8.3 3.4.1.1.2.2.4.3.7.6 1.3 1.2 1.8 1.9.8 1 1.5 2.3 2.6 3.1 1.6 1.1 3.3.2 4.7-.6 2.2-1.2 4-3 5.5-5.2.1-.1.2-.3.3-.4 2-2.9 3.3-6.5 4.1-10v-.2c.2-.7.3-1.4.4-2.1v-.1c.1-.5.1-1 .2-1.5v-.4c.1-.7.1-1.4.1-2.1v-.7c0-.5-.1-1.1-.1-1.6v-1c-.1-.8-.2-1.7-.3-2.5v-.3c-1-6.2-3.8-11.9-7.9-16.4-.2-.3-.5-.5-.7-.8-.4-.4-.9-.8-1.3-1.2-.2-.2-.5-.4-.7-.7l-1.5-1.2c-.2-.2-.4-.3-.7-.5-.5-.4-1.1-.8-1.7-1.2-.1-.1-.3-.2-.4-.3-2-1.2-4.1-2.2-6.3-3-.1 0-.3-.1-.4-.2h-.1c-.9-.3-1.8-.6-2.7-.8-.2 0-.3-.1-.5-.1-.8-.2-1.5-.3-2.3-.4-.3-.1-.7-.1-1-.2-.6-.1-1.2-.1-1.7-.1s-1.1-.1-1.6-.1h-.4c-.4 0-.9 0-1.3.1-.5 0-1 0-1.5.1-.6.1-1.2.1-1.8.2h-.1c.3.3-.1.3-.5.4z"></path><path fill="#3059ff" d="M146.9 169.8c-25 15.8-45.2 38.6-57.9 65.5 9.9 2.6 20.2 4 30.9 4 20.2 0 39.3-5 56-13.9-5.9-20.5-15.8-39.4-29-55.6z"></path></svg>