<svg xmlns="http://www.w3.org/2000/svg" xmlns:xlink="http://www.w3.org/1999/xlink" viewBox="0 0 191 50"><defs><path id="a-twb" d="M.341.122h137.32v28.837H.341z"/><path id="c" d="M.021.315H27.84v19.709H.021z"/></defs><g fill="none" fill-rule="evenodd"><path fill="var(--color-black)" d="M43.093 25.779h-8.218v-3.333h20.223v3.333H46.88v23.102h-3.787z"/><g transform="translate(53.13 20.355)"><mask id="b" fill="var(--color-black)"><use xlink:href="#a-twb"/></mask><path fill="var(--color-black)" d="M.34 9.211h3.334v2.991h.075c.947-2.007 2.992-3.445 5.037-3.445 1.06 0 1.59.113 2.349.265v3.18c-.645-.264-1.364-.34-1.97-.34-3.181 0-5.264 3.03-5.264 7.878v8.786H.34zm23.935 10.112c-.757 0-1.515-.076-2.272-.076-1.932 0-6.704.303-6.704 3.712 0 2.045 1.97 3.143 3.598 3.143 3.522 0 5.378-2.197 5.378-5.075zm-10.566-8.75c1.78-1.059 3.9-1.816 6.362-1.816 5.53 0 7.764 2.727 7.764 7.99v7.992c0 2.196.076 3.219.151 3.787h-3.332v-2.5h-.076c-.833 1.174-2.727 2.954-5.983 2.954-4.167 0-7.083-1.818-7.083-6.021 0-4.848 5.303-6.363 8.976-6.363 1.401 0 2.385 0 3.787.075 0-3.332-1.212-5.036-4.772-5.036-2.007 0-4.166.757-5.605 1.969zm25.715 15.529c4.014 0 5.68-3.977 5.68-7.196 0-3.598-1.855-7.271-5.718-7.271s-5.378 3.636-5.302 7.158c-.076 3.029 1.515 7.31 5.34 7.31zm5.832-.303h-.075c-.947 1.439-3.144 3.181-6.59 3.181-5.832 0-8.294-5.188-8.294-10.453 0-5.188 2.727-9.77 8.332-9.77 3.37 0 5.302 1.325 6.4 3.105h.075V.122h3.56v28.404h-3.408zm19.693-8.786c0-2.955-1.743-5.378-4.81-5.378-3.484 0-4.924 2.878-5.189 5.378zm2.31 10.717c-1.364.493-2.916 1.25-6.097 1.25-6.856 0-10-4.166-10-10.453 0-5.718 3.599-9.77 9.053-9.77 6.437 0 8.52 4.696 8.52 10.906H54.95c0 3.825 2.992 6.44 6.362 6.44 2.349 0 5.075-1.213 5.946-1.933zm25.828.796h-4.128L83.96 12.317h-.076l-4.885 16.209h-4.128L68.66 9.211h3.901l4.431 15.981h.075l4.924-15.981h4.204l4.847 15.981h.075l4.697-15.981h3.485zm19.92-11.513c0-2.955-1.742-5.378-4.81-5.378-3.484 0-4.923 2.878-5.188 5.378zm2.31 10.717c-1.363.493-2.915 1.25-6.097 1.25-6.854 0-9.998-4.166-9.998-10.453 0-5.718 3.598-9.77 9.052-9.77 6.437 0 8.52 4.696 8.52 10.906H103.01c0 3.825 2.992 6.44 6.362 6.44 2.349 0 5.075-1.213 5.946-1.933v3.56zm13.255-16.095c-3.863 0-5.719 3.673-5.719 7.271 0 3.22 1.667 7.196 5.681 7.196 3.825 0 5.416-4.28 5.34-7.31.076-3.484-1.439-7.157-5.302-7.157M119.293.122h3.56v11.74h.077c1.097-1.78 3.03-3.105 6.4-3.105 5.604 0 8.331 4.582 8.331 9.77 0 5.302-2.461 10.453-8.294 10.453-3.446 0-5.642-1.742-6.589-3.18h-.076v2.726h-3.409z" mask="url(#b)"/></g><path fill="#22aecd" d="M13.166 9.436a1.94 1.94 0 1 1-3.857.455 1.94 1.94 0 0 1 3.857-.455m1.312 12.267a2.32 2.32 0 1 1-4.607.539 2.32 2.32 0 0 1 4.607-.539m6.772-6.986a2.352 2.352 0 1 1-4.702 0 2.352 2.352 0 0 1 4.701 0"/><path fill="#2eb6d1" d="M4.523 17.489a1.296 1.296 0 1 1-2.591 0 1.296 1.296 0 0 1 2.591 0"/><path fill="#22aecd" d="M17.959 8.495a2.38 2.38 0 1 1-3.61 3.104 2.38 2.38 0 0 1 3.61-3.104M9.248 18.716a1.785 1.785 0 1 1-2.706 2.325 1.785 1.785 0 0 1 2.706-2.324m9.788 2.833a2.343 2.343 0 1 1-3.406-3.218 2.343 2.343 0 0 1 3.406 3.218M8.958 13.183a1.764 1.764 0 1 1-2.565-2.424 1.764 1.764 0 1 1 2.564 2.424"/><path fill="#2eb6d1" d="M23.486 24.19a1.962 1.962 0 1 1-2.85-2.696 1.962 1.962 0 0 1 2.85 2.696M5.155 11.25a1.258 1.258 0 1 1-1.832-1.73 1.258 1.258 0 0 1 1.832 1.73"/><path fill="#42bcd3" d="M27.192 27.24a1.772 1.772 0 1 1-2.576-2.434 1.772 1.772 0 0 1 2.575 2.435"/><path fill="#5ac0d4" d="M30.356 30.248a1.507 1.507 0 1 1-2.19-2.07 1.507 1.507 0 0 1 2.191 2.07"/><path fill="#6fc6d6" d="M32.755 32.98a1.173 1.173 0 1 1-1.709-1.61 1.173 1.173 0 0 1 1.709 1.611"/><path fill="var(--color-black)" d="M15.48 15.46a3.229 3.229 0 1 1-6.458-.001 3.23 3.23 0 0 1 6.459 0"/><path fill="#6fc6d6" d="M37.958 15.779a1.172 1.172 0 1 1-1.705-1.612 1.173 1.173 0 0 1 1.705 1.612"/><path fill="#5ac0d4" d="M34.44 15.503a1.507 1.507 0 1 1-2.188-2.071 1.507 1.507 0 0 1 2.187 2.071"/><path fill="#42bcd3" d="M30.344 15.283a1.773 1.773 0 1 1-2.576-2.435 1.773 1.773 0 0 1 2.575 2.435"/><path fill="#2eb6d1" d="M25.694 15.371a1.962 1.962 0 1 1-2.85-2.696 1.962 1.962 0 0 1 2.85 2.696"/><path fill="#6fc6d6" d="M18.342 38.622a1.174 1.174 0 1 1-1.707-1.61 1.174 1.174 0 0 1 1.707 1.61"/><path fill="#5ac0d4" d="M17.092 35.887a1.507 1.507 0 0 1-2.19-2.068 1.506 1.506 0 0 1 2.189 2.068"/><path fill="#42bcd3" d="M15.864 32.427a1.775 1.775 0 0 1-2.578-2.438 1.775 1.775 0 0 1 2.578 2.438"/><path fill="#2eb6d1" d="M14.663 28.234a1.963 1.963 0 0 1-2.772.078 1.96 1.96 0 1 1 2.694-2.85c.786.744.822 1.986.078 2.772m6.565-20.113a1.898 1.898 0 1 1-2.757-2.61 1.898 1.898 0 0 1 2.757 2.61"/><path fill="#42bcd3" d="M24.54 5.503a1.618 1.618 0 1 1-2.351-2.222 1.618 1.618 0 0 1 2.351 2.222"/><mask id="d" fill="var(--color-black)"><use xlink:href="#c"/></mask><path fill="#5ac0d4" d="M27.507 3.357a1.226 1.226 0 0 1-1.73.05 1.224 1.224 0 0 1 1.68-1.778c.49.464.512 1.237.05 1.728" mask="url(#d)"/><path fill="#42bcd3" d="M14.688 2.44A1.26 1.26 0 1 1 12.856.71a1.26 1.26 0 0 1 1.832 1.73" mask="url(#d)"/><path fill="#2eb6d1" d="M13.556 6.285a1.61 1.61 0 0 1-2.34-2.212 1.61 1.61 0 0 1 2.34 2.212" mask="url(#d)"/><path fill="#42bcd3" d="M1.508 19.751A.874.874 0 1 1 .239 18.55a.874.874 0 0 1 1.269 1.201" mask="url(#d)"/><path fill="#5ac0d4" d="M5.131 31.111a.873.873 0 1 1-1.269-1.2.873.873 0 0 1 1.269 1.2"/><path fill="#42bcd3" d="M5.957 28.272a1.172 1.172 0 1 1-1.705-1.611 1.173 1.173 0 1 1 1.705 1.611"/><path fill="#2eb6d1" d="M7.287 24.882a1.505 1.505 0 1 1-2.19-2.066 1.505 1.505 0 0 1 2.191 2.066"/><path fill="#22aecd" d="M7.877 17.167a1.774 1.774 0 1 1-2.576-2.439 1.774 1.774 0 0 1 2.576 2.439"/></g></svg>
