<svg xmlns="http://www.w3.org/2000/svg" xml:space="preserve" id="Layer_1" x="0" y="0" viewBox="0 0 300 72"><style>.st0{fill:none}</style><g id="Logos_x2F_United-Logo_x5F_Rebrand_x5F_Large"><g id="Group"><path d="M63 56.4c0 3.3-.3 6.6-1 9.8.6-3.2 1-6.5 1-9.8M18.4 29.3c.4-1.4.6-2.7.7-4-.1 1.3-.4 2.6-.7 4M39 18c.5.4.8.9 1.2 1.4-.3-.4-.7-.9-1.2-1.4M8.5 58.2c1.2-.9 2.7-1.9 4.1-3.1-1.4 1.2-2.9 2.3-4.1 3.1M49.5 26.1c.7.9 1.3 1.9 1.9 3-.5-1.1-1.2-2.2-1.9-3M10.6 36.5c-.8 1.2-2.2 2.8-2.8 3.5.7-.8 2.1-2.3 2.8-3.5M2.1 32.5c1.3.6 6.4 2.8 8.6 4-2.2-1.2-7.4-3.5-8.6-4M15.6 22.2c0 .4.1.9 0 1.4.1-.5.1-1 0-1.4M6.2 59.7c.2-.1.8-.5 1.5-1-.7.5-1.3.9-1.5 1M61.1 56.3c0 3.7-.4 7.2-1.3 10.7.8-3.5 1.3-7.1 1.3-10.7M57.6 38.9c.9 2.3 1.5 5.2 1.6 8.3-.1-3.1-.7-6-1.6-8.3" class="st0"/><path d="M50.9 52.3c1-2.7 1.8-5.7 2.2-8.8.5-4 .4-8-.7-11.8-.1-.4-.3-.9-.5-1.4-.2-.4-.3-.8-.5-1.2-.5-1.2-1.2-2.2-1.9-3q-1.8-2.1-3.9-3.9c-1.4-1.2-2.8-2.3-4.3-3.4.4.6.9 1.2 1.2 1.8 0 0 3.7 2.7 5.8 5.5-2.7-2-4.3-2.7-4.5-2.9 1 2.6 1.4 4.7 1.4 4.7s3.3 1.7 6.2 4.2c.4 1.9.6 3.8.5 5.7-3-2.6-6.4-4.6-6.4-4.6q-.15 3.3-.9 6.6s3.2 2 6.4 4.9c0 0-.9 4.1-2.4 7.3-3-2.8-6-5-6.2-5.2 0 0-1.5 3.9-3.9 7.8 3 2.6 5.9 5.4 5.9 5.4-.4.7-.9 1.3-1.3 2q-2.1 3-4.5 5.7l-5.4-5.4C31 65 28.6 67.6 26 69.9c.1.1 1.2 1.3 1.7 1.8h11.1c2.6-2.9 4.9-6 7-9.3 2-3 3.8-6.5 5.1-10.1M61.1 56.3c0-2.1-.1-4.2-.4-6.3-.2 3-.7 5.6-.7 5.6.1.4.3 1 .4 1.4-.3 3.1-.9 6.1-1.7 9-.4-1.5-.9-2.8-1-2.9-.7 1.8-1.5 3.7-2.4 5.6-.5 1.1-1.1 2.2-1.6 3.2h4.7c.6-1.6 1.1-3.3 1.5-5 .7-3.4 1.2-7 1.2-10.6"/><path d="M0 0v12q3.9-1.35 7.8-2.1c1.3-.2 2.7-.4 4-.5s2.7-.2 4.1-.2c10.5 0 20.3 3.5 28.1 9.4 1.2.9 2.4 1.9 3.5 2.9 1.7 1.5 3.2 3.2 4.7 4.9C58.9 34.6 63 45 63 56.4c0 3.3-.3 6.6-1 9.8-.4 1.9-.9 3.8-1.6 5.7h11.5V0z"/><path d="M4.6 46.2C16 36.2 20.7 22.9 15 16.4c-2.6-3-6.9-4-11.9-3.3-.1 0-.3 0-.4.1-.4.1-.8.1-1.2.2-.8.2-1.3.4-1.6.5v1.5c.5-.4 1-.8 1.5-1.1 1-.2 2-.3 2.9-.4-1.4.8-3.1 1.9-4.4 3V18s3.7-2.9 6.6-4.2c.7.1 1.4.1 2 .3C4.1 15.9.9 18.2.7 18.4c.4.3.9.6.9.6.1 0 4.3-2.7 8.9-4.3.6.3 1.2.6 1.8 1.1-5.1 1.4-9.9 4-9.9 4 .3.3.5.7.7 1h.1c4.9-2.1 10-3.2 10.6-3.3h.1c.4.6.8 1.2 1.1 2 0 0-4.9.6-11.3 2.6.3.9.4 1.5.4 1.5s.8-.2 2.2-.4c.4-.1 1-.2 1.5-.3 2.2-.4 5.1-.7 7.8-.8 0 .4.1.9 0 1.4 0 .5-.1 1-.1 1.5-3.3-.2-11.1.2-11.4.3 0 0 0 1.1-.3 2.2 0 0 5.7.2 10.9 1.1-.4 1.2-.9 2.5-1.5 3.7-3.4-1-8.7-2.3-10.1-2.6-.4.9-.8 1.8-1.4 2.6 0 0 .1 0 .3.1 1.3.6 6.4 2.8 8.6 4-.8 1.2-2.2 2.8-2.8 3.5-.2.2-.3.4-.3.4-.6-.5-1.2-.9-1.7-1.3C4 37.8 0 35 0 35v5.3l3.3 3.9Q1.65 45.55 0 46.6v3.2l.1-.1c1.5-1.1 3-2.2 4.5-3.5"/><path d="M.8 20.3c-.2-.2-.5-.4-.8-.6v11.8c2.9-4.1 3.3-8.9.8-11.2M12.5 58.8c.5-.4 1-.8 1.6-1.3q2.4-1.95 4.8-4.5c1.3-1.3 2.5-2.6 3.6-4s2.1-2.7 3-4.1c7-10.3 8.8-21 3.7-28-5.4-7.3-13.9-6.3-16.5-5.9-2.8.4-4.9 1-4.9 1 .6.1 1.5.2 2.1.3.5-.1 4.4-1 7.2-.6-.7.1-1.4.2-2.1.4-.3.1-.6.1-.8.2-.1 0-.3.1-.4.1-1 .3-1.8.5-1.9.5.1 0 .9.3 2 .9.1 0 .2-.1.5-.1 1.2-.3 4.3-1 7.3-1 0 0 1.4.6 2.7 1.5-4.8 0-8.7.9-8.8.9.6.5 1.1 1.1 1.6 1.8 5.2-.8 9.7-.4 9.7-.4s.6.7.9 1.1c.3.5.7 1.1 1 1.7-5.3-.6-10.4-.2-10.4-.2.3.9.5 1.9.6 2.9.6 0 5.1 0 10.9 1 .2 1.3.2 2.7.1 4.2-1-.3-5.7-1.4-10.8-1.9-.1 1.3-.3 2.6-.7 4 .6.1 6.9 1.7 10.5 3.1-.1.2-.1.4-.2.7-.5 1.5-1.1 3.1-1.9 4.6-2.9-1.4-9.9-4.2-9.9-4.2-.7 1.6-1.6 3.2-2.6 4.8 0 0 6 3.4 8.9 5.4-1.3 1.9-2.9 3.8-4.5 5.6-2.1-1.9-7.4-6-7.8-6.3-1.7 2-3.8 4.2-4.5 4.8l6.3 7.3-.2.2c-1.4 1.1-2.8 2.2-4.1 3.1-.3.2-.5.4-.8.5-.7.5-1.3.8-1.5 1-.1-.3-4.2-6.9-4.8-8-.5.3-.9.7-1.4 1v13.6c.7-.4 1.5-.7 2.2-1.1 3.6-1.8 7-4 10.3-6.6"/><path d="M40.2 19.4c-.4-.5-.7-1-1.2-1.4-.4-.4-.8-.7-1.2-1-4.5-3.4-12.8-5.1-12.8-5.1.8.4 1.4.9 1.5.9 0 0 1.9.5 4.1 1.3.7.3 1.5.6 2.2 1 0 0-2.7-.6-4.4-.9.7.6 1.4 1.4 2 2.1 0 0 5.5 1 7.9 2.3 0 0 1.2 1.2 2.1 3.3-3.8-1.5-8-2.3-8-2.3.6 1.3 1 2.6 1.2 4 0 0 4.7 1.1 8.2 2.8.3 1.7.4 3.4.4 5.2-4.2-2.1-8.3-3.4-8.3-3.4-.1 1.8-.4 3.7-.9 5.6 0 0 .1 0 .2.1 1.1.5 5.8 2.6 8 4-.6 2.3-1.4 4.5-2.3 6.6-3.9-2.5-8-4.8-8-4.8-1 2.5-3.6 6.6-3.6 6.6.1 0 4.3 3 7.5 5.5-1.6 2.4-3.4 4.8-5.4 7-.7-.7-6.9-6.2-6.9-6.2-1.9 2.2-4 4.3-6.3 6.4l6 6.8c-3.9 3.2-7.8 5.7-7.8 5.7l-5-7.1s-3.5 2.7-9.5 5.5V72h19.6c21.9-16.6 29.7-40.3 20.7-52.6M59.2 47.2c-.1-3.1-.7-6-1.6-8.3 0 0-1.6-4.1-4.1-7.8.3.8.8 2.5 1.1 4v.3c.5.8 2.7 4.7 3 9 0 0-1.6-2.2-2.7-3.6 0 2.4-.3 4.7-.8 7 0 0 2.3 2.7 3.3 4.4 0 0-.7 3.8-2.2 7.4-1.5-2.2-3.5-4.4-3.5-4.4-1.1 2.8-2.6 5.7-4.2 8.3 0 0 2.9 3.4 3.6 4.4-.9 1.4-1.7 2.7-2.6 4h2.7c7.7-11.4 8.1-21.4 8.1-23.4-.1-.4-.1-.8-.1-1.3M44.1 18.6c1.2.9 2.4 1.9 3.5 2.9-1.2-1-2.3-2-3.5-2.9"/><path d="M63 56.4c0-11.4-4-21.9-10.8-30C58.9 34.6 63 45 63 56.4M7.9 9.9c1.3-.2 2.7-.4 4-.5-1.4.1-2.7.3-4 .5M15.6 22.2c-2.8.1-5.6.4-7.8.8 2.2-.4 5.1-.8 7.8-.8M3.3 20.9c4.9-2.1 10-3.2 10.6-3.3-.6.1-5.7 1.2-10.6 3.3M7.9 9.9a54.104 54.104 0 0 1 0 0M6.3 23.2c.4-.1 1-.2 1.5-.3zM10.7 14.9c.6.3 1.2.6 1.8 1.1-.6-.5-1.2-.8-1.8-1.1M41.2 37.9c-2.2-1.3-6.9-3.5-8-4 1.2.6 5.8 2.7 8 4M19 22c-.1-1-.4-2-.7-2.9.4.9.6 1.9.7 2.9M30.6 14.1c-2.2-.8-4.1-1.3-4.1-1.3s1.9.5 4.1 1.3M33.3 34l-.2-.1zM43.1 62.1q-2.1 3-4.5 5.7 2.4-2.7 4.5-5.7M57.7 63.1c-.7 1.8-1.5 3.7-2.4 5.6.8-1.9 1.7-3.8 2.4-5.6M45.8 62.7c2.1-3.3 3.8-6.8 5.1-10.4 1-2.7 1.8-5.7 2.2-8.8-.4 3.1-1.2 6.1-2.2 8.8-1.3 3.6-3.1 7.1-5.1 10.4M21.7 12.6c-3 .1-6.1.7-7.3 1 1.2-.2 4.3-.9 7.3-1M14.2 12.3c.3-.1.5-.1.8-.2-.3 0-.6.1-.8.2M14 57.5q2.4-1.95 4.8-4.5c1.3-1.3 2.5-2.6 3.6-4-1.1 1.4-2.3 2.7-3.6 4q-2.4 2.55-4.8 4.5M13.8 12.4c-1 .3-1.8.5-1.9.5.1 0 .9-.3 1.9-.5"/><path id="Shape" d="M118 36.5V25h6.7v11.1c0 4.3 2 6.1 5.9 6.1s5.9-1.8 5.9-6.1V25h6.7v11.5c0 8-4 11.5-12.6 11.5S118 44.5 118 36.5m55.2 1.6L160.8 25h-6.6v22.5h6.2V33.2l13.5 14.2h5.4V25h-6.2v13.1zm17.8 9.4h6.7V25H191zM273.5 25h12.8c8.9 0 13 3.9 13 11.2s-4.1 11.2-13 11.2h-12.8zm6.7 16.4h5.9c4.3 0 6.3-1.6 6.3-5.2s-2-5.2-6.3-5.2h-5.9zM248 38.6h13.8v-4.8H248v-3.3h14.9V25h-21.6v22.5H263V42h-15zM207.5 31h8.6v16.4h6.7V31h8.6v-6h-24z"/></g></g></svg>