<svg xmlns="http://www.w3.org/2000/svg" viewBox="0 0 1574 583"><style>.s0-agco{fill:var(--color-black)}</style><path id="Layer" d="M.1 402.4C81.9 268.3 163.5 134.1 245.2 0c40.5 66.6 81 133.3 121.4 199.9Q183.4 301.1.1 402.4m284.4-147.5c28-17.3 55.9-34.7 83.9-52.1q1.6 2.6 3.2 5.3c-56.3 38.7-112.5 77.5-168.8 116.2-37.3 25.8-74.8 51.5-112.1 77.3-.7.6-1.6.9-2.5.8H47c19.8-12.4 39.6-24.8 59.6-37 59.2-37 118.6-73.6 177.9-110.5m54.5-12.3c12.1-9.5 24.1-19 36.3-28.3 1.6 2.4 3.1 5 4.6 7.5-33.1 30-66.6 59.7-99.9 89.7-33.6 30.4-67.5 60.5-101.2 90.9h-44.5c68.2-53.3 136.4-106.6 204.7-159.8m-23.5 61.8c23.4-24.4 46.8-48.7 70.2-73.2l6 9.9q-62.8 80.6-125.5 161.3h-44.6c31.3-32.7 62.6-65.3 93.9-98m-6.8 98q45.9-73.4 91.9-146.7c21.4 36.9 43.6 73.3 65.8 109.7 7.6 12.4 15.1 24.7 22.8 37z" class="s0-agco"/><path fill-rule="evenodd" d="M798.2 208.8c13.3-4.3 27.3-5.6 41.2-6.1 13.2-.8 26.5-.4 39.7-.5 18.2.1 36.3-.3 54.5.7 12 .8 24.1 1.8 35.9 4.6 10 2.1 20 5.6 28.1 12.1 7.2 5.6 11.9 14 14 22.8 1.9 7.3 2.2 14.7 2.4 22.2h-53.4c-.3-3.7-.6-7.8-3.2-10.7-3.1-3.7-8.1-4.7-12.6-5.6-15.6-2.6-31.5-2-47.3-2.1-15.4.1-30.8-.1-46.2.2-7.1.2-14.2.9-21.1 2.7-4.2 1.2-8.4 3-11.6 6-4.3 3.7-6.5 9.2-7.8 14.6-2.9 12.1-2 24.7-2.1 37.1 0 8.6-.3 17.3.9 26 .7 5 2.1 10 4.9 14.2 2.8 4.1 7.1 6.9 11.7 8.5 6.5 2.4 13.4 2.9 20.3 3.4 13.4.7 26.9.3 40.3.4 11.6 0 23.3.1 34.9-.4 7.3-.2 14.7-.7 21.9-2.3 4.7-.9 9.5-2.6 13-6.1 3.3-3.4 4.2-8.4 4.3-13 .1-5.4 0-10.9 0-16.4h-78.3v-38.8H1014c0 14.9.1 29.7 0 44.6-.3 13.5-1.2 27.3-6.1 40-3.2 8.3-8.6 15.7-16 20.8-8.9 6.4-19.8 9.3-30.5 11.3-14.1 2.6-28.4 3-42.6 3.4h-46.2c-17.6-.1-35.3.4-52.8-1.8-11.5-1.3-23.3-3.6-33.7-9.1-8.2-4-15-10.5-19.5-18.5-6.3-11.3-8.3-24.4-9.1-37.2-.7-13.4-.3-26.9-.4-40.3-.2-14.7.2-29.5 3.3-43.9 2.3-10.7 6.6-21.3 14.4-29.1 6.3-6.7 14.8-10.9 23.4-13.7m594.5-5.8c12.3-1 24.6-.8 37-.8 18.1.2 36.3-.3 54.4.4 8.1.1 16 .9 24 1.8 9.7 1.1 19.3 3.2 28.4 6.7 10.5 3.8 19.9 10.8 25.7 20.5 5 8.1 7.6 17.4 9.1 26.7 2.4 14.5 2.4 29.1 2.3 43.7 0 16.5.5 33.1-2.3 49.4-1.8 10.5-5 21.2-12 29.4-6.9 8.3-17 13.2-27.2 15.8-11.4 3.3-23.3 4.1-35.1 5-19.3 1.1-38.6.7-57.9.8-20.6-.1-41.3.5-61.8-1.9-11-1.5-22.1-3.7-32-8.8-7.8-3.7-14.4-9.9-18.7-17.3-4.4-7.4-6.7-15.8-8.1-24.2-2.4-14.7-2.2-29.7-2.2-44.6.1-20-.4-40.4 4.9-59.9 2.6-9.3 7.1-18.3 14.3-24.8 6.6-6.4 15.2-10.2 23.9-12.7 10.8-3.2 22.1-4.3 33.3-5.2m10.6 45c-8.4.8-17.4 2-24.4 7.3-4.9 4-7.6 10-8.7 16.1-2.2 11.2-1.6 22.8-1.7 34.2.1 10.4-.5 20.9 1.7 31.1 1.2 5.5 4 11 8.7 14.3 6.1 4.4 13.8 5.6 21.1 6.5 10.8 1.1 21.7.9 32.6.9h31.4c10.4-.1 20.8-.2 31.1-1.7 5.8-.9 11.6-2.5 16.4-6 4.9-3.5 7.5-9.2 8.6-15 2-9.5 1.6-19.3 1.6-28.9 0-8.1.2-16.2-.2-24.3-.6-8.2-1.5-17-6.6-23.7-4.4-5.7-11.6-8-18.4-9.5-12.1-2.1-24.4-2-36.7-2.1-18.8.2-37.7-.5-56.5.8m-836.7-44.9h81.7c22.6 40.6 45.1 81.2 67.7 121.7 14.5 25.8 28.8 51.8 43.3 77.6h-60.5c-8.6-16-17.3-32.1-26.1-48-43.5.1-87.1 0-130.7 0-8.9 16-17.7 32.1-26.6 48.1-10.5-17.3-21-34.6-31.5-51.8 27.6-49.2 55-98.5 82.7-147.6m40.4 37.3c-14.2 24.7-28.4 49.4-42.6 74q43 .1 86.1 0-20.6-37-41-74zm472.4-31.3c12.9-3.7 26.3-4.9 39.6-5.5 13.8-.8 27.6-.4 41.3-.5 18.2.1 36.4-.3 54.6.6 14.5.9 29.3 1.9 43.3 6.3 8.6 2.9 17.1 7.2 22.8 14.5 6.2 7.5 9 17.1 10.3 26.6.9 6.6 1.1 13.2 1.3 19.8h-53.5c-.3-4.8-.7-10.2-4.2-13.9-3.9-4.4-9.7-5.9-15.2-7.2-16.6-3.2-33.7-2.5-50.5-2.6-16.3.2-32.6-.4-48.8.8-4.5.3-9 1.3-13.3 2.6-4.1 1.3-7.8 3.8-10.4 7.3-3.3 4.6-4.5 10.2-5.3 15.7-.8 6.7-1.1 13.4-.8 20.1 0 8.5-.1 17 0 25.5.1 6.8.4 13.7 2.1 20.3 1.2 4.5 3.3 8.9 6.9 11.9 4.4 4 10.4 5.4 16 6.4 16 2 32.2 1.4 48.3 1.5 15.4-.1 30.8.4 46.1-.6 6.6-.6 13.4-1.4 19.5-4.1 3.9-1.6 6.9-4.9 8.3-8.8 1.5-4 1.6-8.3 1.6-12.5q26.7-.1 53.4 0c0 11.5-.4 23.3-3.9 34.4-2.7 8.3-7.9 15.7-15.2 20.5-9.2 6.1-20.2 9.3-31.1 10.9-10.7 2-21.6 2.8-32.5 3.1-16.2.8-32.4.4-48.6.5-17.2 0-34.4.2-51.5-1.2-13.8-1-27.9-3.3-40.5-9.2-8.7-4.1-16.3-10.8-21-19.2-4.8-8.4-7.2-17.9-8.5-27.3-2.3-16.1-1.5-32.3-1.6-48.5-.2-14.9.2-29.8 3.2-44.4 2-9.4 5.2-18.8 11.1-26.5 6.6-8.7 16.5-14.2 26.7-17.3M698.5 447.7h17.2v104.7h-17.2zm-167.8 2.2h17.8v17h-17.8zm499 8.1c13-6.2 28.5-5.3 41.8-.4-.4 5.3-.7 10.7-1 16-3.8-2-7.6-4-11.9-4.7-8.1-1.6-17.4-.3-23.7 5.6-7.1 6.2-9.6 16.1-10.1 25.3-.3 10.3.7 21.5 7.4 29.8 4.6 6 12.3 9.1 19.8 9 6.4-.2 13.2-1.2 18.5-5q.5 8.2.9 16.3c-6.3 2.6-13.3 3.2-20.1 3.4-10.5.1-21.5-2.5-29.6-9.6-8.4-7.1-13.1-17.7-14.8-28.4-2-12.3-1.2-25.2 3.7-36.7 3.7-8.8 10.4-16.5 19.1-20.6M28.5 454.9c6.3.1 12.7 0 19.1.1 6.2 12.9 12.6 25.8 18.8 38.7q9-19.4 17.9-38.7c6.4-.1 12.8 0 19.2-.1-9.5 19.5-19.2 38.8-28.5 58.3-.3 12.9-.1 25.8-.1 38.7H57.1c-.1-12.9.1-25.8-.1-38.7-9.4-19.4-19.1-38.8-28.5-58.3m318.9 0h19.5q15.5 48.5 31.1 97h-18.3c-2.2-7.7-4.5-15.5-6.7-23.2h-33.4c-2.3 7.7-4.6 15.5-7 23.2h-17.8c10.9-32.3 21.7-64.6 32.6-97m9.5 14.5c-4.6 15.2-9 30.4-13.5 45.6q12.9.1 25.8.1c-4.1-15.3-8.1-30.5-12.3-45.7m382.4-3.7c5.8-1.8 11.5-3.5 17.3-5.3v20h14.3V493h-14.3c0 12.5-.1 25.1 0 37.6 0 3.2.5 7.2 3.8 8.7s7.2.6 10.5-.8v12.2c-6.2 2.8-13.3 3-19.7 1.3-4.4-1.1-8.1-4.3-9.9-8.4-2-4.7-2-9.8-2-14.7V493h-11.4v-12.6h11.4zm-470 16.3c3.7-2.3 8.2-3.3 12.5-2.4v16.2c-3.7-.9-7.7-1.2-11.1.6-5.8 2.3-8.5 8.8-8.6 14.7-.1 13.6 0 27.3 0 41h-17.3v-44c-.1-9.2.4-18.5-.5-27.7h15.5c.2 4.5.5 8.9.6 13.4 1.9-4.7 4.7-9.1 8.9-11.8m144 3.7c5-5.2 12.7-7.2 19.7-6.3 4.6.7 8.9 3 11.8 6.6 1.7 1.7 2.6 4.1 4.3 5.8q.2-5.7.6-11.4h15.6c-.8 8.6-.5 17.3-.6 25.9 0 13.4.1 26.9 0 40.3-.2 9.3-1.6 19.2-7.6 26.6-4.4 5.5-11.3 8.2-18.1 9.1-10.8 1.4-21.8-.2-32-3.9l1-15.4c6.8 3.8 14.5 6.2 22.4 6.2 5.6-.1 11.6-2.3 14.5-7.5 3.8-6.6 3-14.6 3.1-22-2.1 3.6-4.4 7.2-8 9.4-7.3 4.3-17.1 3.7-24-1.1-5.5-3.9-8.8-10.1-10.4-16.4-1.8-7.3-2.1-14.9-1.5-22.3.9-8.5 3.2-17.3 9.2-23.6m17.3 7.3c-2.4.7-4.2 2.4-5.5 4.4-2.2 3.7-2.9 8.1-3.3 12.4-.4 6.4-.3 12.9 1.4 19 1 3.4 2.5 6.9 5.4 9 3.3 2.3 7.9 1.8 11.3 0 3.7-1.8 5.7-5.6 6.7-9.4 1.4-5.5 1.6-11.2 1.3-16.8-.4-5.4-1.6-11.1-5.2-15.3-2.9-3.5-7.9-4.7-12.1-3.3m74.9-11c3.7-2.3 8.2-3.3 12.4-2.4v16.2c-3.6-.9-7.6-1.2-11.1.5-5.7 2.3-8.4 8.9-8.6 14.7v41.1H481c-.1-17.5 0-34.9 0-52.3-.1-6.5.1-13-.6-19.4H496c.2 4.5.4 8.9.6 13.3 1.8-4.6 4.6-9 8.9-11.7m67 7.3c6.8-7.5 17.4-10.6 27.2-10 4.6.3 9.1 1.3 13.4 2.9-.3 4.5-.6 9-1 13.5-4.6-2.1-9.6-3.9-14.8-3.1-5.1.3-10 3.1-12.6 7.6-3 5.5-3.6 11.9-3.3 18 .2 5.6 1.7 11.4 5.4 15.8 3.3 3.9 8.4 6 13.5 6 4.5 0 8.9-1.4 12.9-3.4q.4 6.8.9 13.6c-7.1 2.5-14.7 3.4-22.1 2.5-8.4-.8-16.7-4.8-21.6-11.8-4.5-6.4-6.5-14.3-6.8-22.1-.6-10.4 1.8-21.6 8.9-29.5M879 482c3.7-2.3 8.3-3.3 12.5-2.4v16.2c-3.8-1-7.9-1.2-11.5.7-5.6 2.4-8.1 8.8-8.2 14.5-.1 13.7 0 27.4 0 41.1h-17.3V498c0-5.8.1-11.7-.5-17.6h15.6c.2 4.5.4 8.9.6 13.3 1.8-4.6 4.6-9 8.8-11.7m45.5-2.4c8.2-1.2 17.3.5 23.4 6.4 5.6 5.4 8.1 13.2 9.1 20.7.7 4.7.8 9.4.8 14.1h-41.4c.1 5.3.8 11.2 4.8 15.1 4.1 4.1 10.4 4.8 15.9 4.4 5.8-.1 11.6-1.8 16.3-5.4.2 4.6.5 9.1.7 13.6-11.3 4.7-24.5 6.6-36.1 1.8-9-3.8-15.1-12.5-17.1-21.9-2.4-11.6-1.4-24.4 4.5-34.9 4-7.1 11-12.6 19.1-13.9m-3.1 14.6c-3.9 4.2-4.9 10.3-5 15.8h24.7c-.1-5.1-.4-10.5-3.4-14.9-3.6-5.2-12.1-5.6-16.3-.9m300-12.5c4.7-2.6 10.2-2.9 15.4-2 4.5 1 8.8 3.6 11.1 7.6 3.7 6.3 4.1 13.8 4.3 20.8v43.8h-17.3v-43.8c0-3.8-.1-8-2.2-11.4-2.9-3.9-8.7-4.1-12.6-1.7-4.1 2.7-5.9 7.8-6 12.5v44.4h-17.3v-45c-.1-3.5-.3-7.4-2.4-10.4-2.8-3.7-8.5-3.8-12.3-1.5-4.2 2.6-5.9 7.8-6.1 12.5v44.4h-17.2q-.1-24.9 0-49.7c-.1-7.3.1-14.6-.6-21.8h17.2c.2 3.8.5 7.7.6 11.5 1.9-3.8 4.5-7.4 8.2-9.7 5.2-3.4 12-3.7 17.9-1.7 4.7 1.6 8.1 5.8 10.3 10.1 2.4-3.5 5.3-6.8 9-8.9m70.8.2c8.8-4.8 21-3.2 27.6 4.7 6.8 8.2 8.3 19.4 8.5 29.8-.1 10.1-1.6 20.9-8.2 29-6.2 7.7-17.9 9.9-26.6 5.3-3.9-1.9-6.7-5.5-8.6-9.2-.1 13.5 0 27 0 40.5h-17.3v-78.6c-.1-7.7.2-15.4-.5-23h16.1c.4 3.8.4 7.6.6 11.4 2-3.9 4.5-7.7 8.4-9.9m3.3 10.5c-5 2-7.5 7.3-9 12.2-2.1 7-2.2 14.6-.5 21.7 1 4 2.7 8 5.5 11 2.2 2.4 5.8 3.9 9 2.7 4.3-1.6 6.7-6 8.3-10 2.8-7.9 3-16.6.9-24.7-1.2-4.3-3.1-8.6-6.7-11.5-2-1.8-5-2.2-7.5-1.4m65.4-12.7c4.4-.6 8.9-.6 13.4-.1 5.8.6 11.8 2.6 15.7 7.2 4.5 5.6 5.2 13.2 5.4 20.1.1 11.3 0 22.5.1 33.8 0 3.8.4 7.6.9 11.4h-15.5c-.9-3.3-1-6.7-1-10-2 2.2-3.8 4.7-6.3 6.5-7.6 5.9-19 5.9-27 .5-4.7-3.2-7.7-8.7-8.2-14.4-.6-6.2.5-13 4.9-17.7 4-4.4 9.7-6.7 15.4-7.7 6.8-1.4 13.8-1.6 20.6-1.5.2-4.5-.3-9.7-3.8-13-4.1-3.8-10.1-3.7-15.2-2.7s-9.9 3.2-14 6.4c-.3-4.6-.6-9.3-.9-14 4.9-2.3 10.1-4.2 15.5-4.8m2 39.1c-3.4 1.1-6.7 3.5-7.9 7-1.3 4.2-.9 9.4 2.4 12.6 3.2 3.2 8.4 3.6 12.6 2.3 3.4-.9 6-3.6 7.3-6.8 2.2-5.3 2.1-11.2 2-16.9-5.5-.1-11.1.1-16.4 1.8m72.2-36.1c5-3.6 11.6-4.1 17.5-2.8 5 .9 9.6 4.2 11.9 8.8 2.9 5.5 3.4 12 3.5 18.2v45.2h-17.2v-43.4c-.2-4.2-.3-8.8-2.9-12.3-1.8-2.6-5.3-3.3-8.2-2.9-3.7.1-7.1 2.5-8.8 5.7-1.6 3.1-2.2 6.6-2.2 10.1v42.8h-17.2q-.1-29.4 0-58.8c-.1-4.3-.1-8.6-.6-12.9h16.1c.2 3.7.5 7.5.6 11.2 2-3.3 4.2-6.6 7.5-8.9m-1314.2-2.9c8.7-1.3 18.2-.2 25.3 5.2 7.8 5.6 11.2 15.5 12 24.7.8 10.2.2 21.1-5.1 30.2-4.1 7.3-12.1 11.9-20.3 12.8-8.1.9-16.8.1-23.8-4.5-4.8-3-8.3-7.9-10.4-13.3-3-7.9-3.4-16.6-2.7-25s3.5-17 9.7-23c4.3-3.8 9.6-6.4 15.3-7.1m4.8 11.8c-5.1 1-8 6-9.8 10.4-3.3 8.8-3.4 18.9-.3 27.8 1.7 4.4 4.3 9.1 9 10.7 3.9 1.3 8-.9 10.3-4 4.1-5.4 5.6-12.3 5.8-18.9.2-7.3-1.1-15-5.4-21.1-2.1-3.1-5.7-5.6-9.6-4.9m980.4-11.5c6.2-1.2 12.6-1.1 18.7.6 5.9 1.9 11.3 5.7 14.7 10.9 5.5 8.7 6.5 19.5 5.9 29.6-.6 8.7-3.1 17.8-9.5 24.1-4.2 4.1-9.9 6.5-15.7 7.3-6.4.8-13.1.5-19.2-1.8-6-2.3-11-6.9-13.9-12.7-4.2-8.3-4.9-17.9-4.3-27.1.6-7 2.3-14.2 6.4-20.1 4-5.6 10.2-9.4 16.9-10.8m6.4 11.6c-2.6.4-4.7 2.3-6.3 4.2-3.6 4.9-5.2 11-5.7 16.9-.5 7 .5 14.3 3.7 20.6 1.7 2.9 3.9 5.9 7.2 7 3.1 1.2 6.7 0 9.1-2.3 3.2-3.1 5-7.4 6.1-11.7 1.8-7.5 1.6-15.6-.8-22.9-1.4-4-3.3-7.9-6.8-10.4-1.8-1.4-4.3-1.8-6.5-1.4m-940.3-11.3h17.2v44.3c.1 4.5.6 9.8 4.5 12.7 4.6 2.9 11.6 1.6 14.6-3.1 2.4-3.7 2.9-8.3 3-12.6v-41.3h17.2v47.8c.1 7.9-.3 15.9.5 23.7h-16.1c-.2-3.8-.4-7.5-.5-11.3-3.1 5.2-7.4 10.2-13.4 11.7-6.2 1.5-13.3 1.1-18.6-2.8-7.2-5.4-8.5-15.2-8.4-23.6q-.1-22.8 0-45.5m358.8 0h17.2v71.5H531zm93.7 0h17.2c.1 15 0 29.9.1 44.9.1 4 .5 8.5 3.6 11.4 2.5 2.5 6.3 2.5 9.5 1.9 3.4-.9 6.1-3.6 7.3-6.8 2.1-5.5 1.5-11.5 1.6-17.2v-34.2h17.3v50.8c0 6.9-.3 13.8.5 20.7h-16.1c-.3-3.7-.5-7.5-.6-11.3-2.3 3.6-4.8 7.3-8.5 9.6-4.1 2.6-9.1 3.2-13.8 2.8-5.6-.4-11.1-3.4-14-8.3-3.3-5.2-4-11.6-4.1-17.7zm157.2 0h17.2v44.2c.2 4.2.4 8.9 3.5 12 2.2 2.2 5.5 2.6 8.5 2.2 3.5-.4 6.6-2.8 8-6 2.6-5.5 2-11.7 2.1-17.6v-34.8h17.2v50.8c.1 6.9-.2 13.8.6 20.7h-16.1c-.3-3.7-.5-7.5-.6-11.3-2.4 4-5.3 7.9-9.5 10.1-4.5 2.5-9.8 2.7-14.7 2-4.8-.8-9.4-3.6-12-7.8-3.4-5.3-4.2-11.7-4.2-17.9-.1-15.5 0-31 0-46.6m694.6 0h17.8c4.7 18.1 9.6 36.2 14.4 54.3 4.8-18 9.3-36.2 14.1-54.3h16.7q-13 41.9-25.9 83.8c-1.6 6.7-5.3 13.5-11.7 16.7-6.3 2.8-13.6 2.3-20.1.2.4-4.4.7-8.9 1.1-13.3 2.9 1.1 6.2 2 9.3.9 2.7-.7 4.3-3.3 5.3-5.8 1.4-3.2 2-6.6 2.7-10-7.9-24.2-15.9-48.3-23.7-72.5" class="s0-agco"/></svg>
