<svg xmlns="http://www.w3.org/2000/svg" viewBox="0 0 1200 303.8"><path fill="#222" d="M633.1 9.1v285.1h-70.8V9.1zM809.4 0c84.8 0 153.1 65.7 153.1 151.1 0 85.7-68.8 152.7-153.8 152.7s-153.8-66.1-153.8-151.6C654.8 66.8 724.6 0 809.4 0m-.6 234.2c45 0 78-38.9 78-82.6s-33.2-82.2-78-82.2c-45 0-78.2 38.5-78.2 82.2s33.3 82.6 78.2 82.6M970.6 208l64.9-15.4c4.7 34.3 29.6 46.6 55.8 46.6 26 0 35.5-15.4 35.5-27.4 0-9.7-5.6-19.2-24.6-23l-39.6-7.7c-47.4-9.1-80.9-38.9-80.9-84.7 0-54.5 49.7-92.9 105.8-92.9 72.3 0 102.1 45.2 107.3 83l-63.7 17.9c-3.4-23.3-17.8-40.2-43.9-40.2-22.6 0-33.4 15.1-33.4 26.5 0 9.5 4.5 20.4 21.3 23.7l41.3 7.9c54 10.4 83.6 43.4 83.6 86.3 0 46.6-40.2 91.5-109.1 91.5-72.1.1-110.8-37.7-120.3-92.1"/><path fill="#3b6be3" d="M76.2 294.2H0L125.8 9.1h76.4z"/><path fill="#222" d="M450.3 148.5 544.9 9h-86.5l-51.1 84.4L357.5 9h-87.7l95.8 139.5-61.9 90.7L202.2 9.1h-76.4l126.3 285.1h95.6l59.6-90.3 59 90.3h78.2z"/></svg>