<svg xmlns="http://www.w3.org/2000/svg" width="216" height="93" fill="none" viewBox="0 0 216 93"><path fill="#000" d="M215.5 66.417H61.223v.605H215.5zM61 80.497v-7.865h5.667v.605h-4.834v2.805h4.39v.605h-4.39v3.74H61zM70.5 80.662c-.39 0-.779-.055-1.168-.22-.333-.11-.666-.33-.944-.55s-.5-.55-.611-.935c-.167-.385-.222-.825-.222-1.32q0-.66.166-1.155c.111-.385.334-.66.556-.935s.555-.495.944-.66c.39-.165.778-.22 1.278-.22s.945.055 1.278.22c.389.165.667.385.944.605.223.275.445.55.556.935q.167.578.167 1.155c0 .44-.056.88-.223 1.21-.11.385-.333.66-.61.935-.279.275-.556.44-.945.605q-.5.33-1.167.33m2.166-2.97c0-.33-.056-.66-.111-.935-.056-.275-.223-.55-.39-.77a1.5 1.5 0 0 0-.666-.495q-.417-.165-1-.165c-.389 0-.722.055-1 .22-.278.11-.5.33-.666.55s-.278.495-.39.77a5 5 0 0 0-.11.88q0 .495.166.99c.111.275.222.55.389.77q.25.33.667.495c.277.11.555.165.944.165s.722-.055 1-.22c.278-.11.5-.33.667-.55.166-.22.278-.495.389-.77.055-.33.11-.66.11-.935M79.278 74.832H80v5.665h-.722v-.77l-.334.33a1.2 1.2 0 0 1-.444.275c-.167.11-.333.165-.556.22-.222.055-.444.11-.722.11-.444 0-.778-.055-1.055-.165a2 2 0 0 1-.667-.44c-.167-.165-.278-.385-.389-.66-.055-.275-.111-.55-.111-.825v-3.74h.722v3.685c0 .495.111.88.39 1.1.277.275.666.385 1.221.385q.417 0 .834-.165c.222-.11.444-.275.61-.44.167-.165.279-.44.39-.66.11-.275.11-.55.11-.88zM82.722 80.497H82v-5.665h.722v.77c.278-.275.611-.495.89-.66a2.4 2.4 0 0 1 1.11-.275c.39 0 .778.055 1.111.165.334.11.611.33.834.605.166.22.222.385.277.605s.056.44.056.66v3.685h-.722v-3.685c0-.495-.111-.88-.39-1.155-.277-.275-.666-.385-1.277-.385-.222 0-.444.055-.611.11s-.333.165-.5.22-.278.22-.389.33-.167.275-.222.44c-.056.165-.111.33-.111.495v3.74zM93.833 72.632h.722v7.865h-.722v-.99c-.111.165-.222.33-.389.495a1.16 1.16 0 0 1-.556.33c-.222.11-.388.165-.61.22-.223.055-.445.055-.612.055-.5 0-.944-.055-1.333-.22a3.6 3.6 0 0 1-.889-.605 2.5 2.5 0 0 1-.5-.935 4.2 4.2 0 0 1-.167-1.155q0-.578.167-1.155c.111-.385.278-.66.5-.935s.5-.495.889-.66c.333-.165.778-.22 1.278-.22.444 0 .889.11 1.277.275.39.165.723.44 1 .77v-3.135zm0 5.005c0-.33-.056-.605-.167-.935-.11-.275-.222-.55-.444-.77a1.5 1.5 0 0 0-.667-.495 2.3 2.3 0 0 0-.889-.165c-.389 0-.722.055-1 .22-.278.11-.5.33-.666.55s-.334.495-.39.825-.11.66-.11.99.055.66.166.935.278.495.445.715c.222.165.444.33.666.44q.417.165.834.165c.333 0 .666-.055.944-.165q.417-.165.667-.495c.166-.22.333-.44.389-.77.166-.385.222-.66.222-1.045M99.5 77.197c.11 0 .278-.055.5-.055.166-.055.333-.055.444-.11s.222-.11.222-.275c.056-.11.056-.22.056-.33q0-.495-.333-.825c-.223-.22-.667-.33-1.223-.33-.277 0-.5 0-.722.055s-.389.11-.555.22-.278.22-.39.385c-.11.165-.166.385-.221.605h-.723c0-.33.111-.605.278-.88.167-.22.334-.44.556-.55q.333-.248.833-.33c.333-.055.611-.11 1-.11.333 0 .611.055.889.11s.5.165.722.275.389.33.5.55q.167.33.167.825v3.08q0 .412.166.495c.112.055.334.055.612-.055v.495c-.056 0-.167.055-.278.055-.111.055-.222.055-.334.055-.111 0-.222 0-.333-.055a.43.43 0 0 1-.278-.11c-.055-.055-.111-.11-.166-.22-.056-.055-.056-.165-.111-.275v-.275c-.334.33-.667.55-1.056.715s-.833.22-1.278.22c-.278 0-.555-.055-.778-.11a1.27 1.27 0 0 1-.666-.33c-.222-.165-.334-.33-.445-.495a1.5 1.5 0 0 1-.166-.715c0-.935.722-1.54 2.222-1.705zm1.278.33c-.334.11-.612.165-.945.22s-.611.055-.944.11q-.833.083-1.334.33c-.333.165-.444.495-.444.88 0 .165.055.33.111.44q.084.165.333.33c.111.11.278.165.445.165.166.055.333.055.5.055.278 0 .555-.055.833-.11s.5-.165.722-.275c.223-.11.389-.33.5-.495.111-.22.223-.44.223-.715zM105.833 80.497c-.111 0-.222.055-.333.055-.167.055-.333.055-.5.055-.389 0-.667-.11-.833-.22-.167-.165-.278-.44-.278-.88v-4.125H103v-.55h.889v-1.54h.722v1.54h1.167v.55h-1.167v4.235c0 .11.056.165.056.275l.166.165a.7.7 0 0 0 .334.055h.277c.112 0 .223-.055.278-.055v.44zM107.277 73.622v-.99h.834v.99zm0 6.875v-5.665H108v5.665zM112.61 80.662c-.388 0-.777-.055-1.166-.22-.334-.11-.667-.33-.945-.55s-.5-.55-.611-.935c-.166-.385-.222-.825-.222-1.32q0-.66.167-1.155c.111-.385.333-.66.555-.935s.556-.495.945-.66.777-.22 1.277-.22.945.055 1.278.22c.389.165.667.385.945.605.222.275.444.55.555.935q.167.578.167 1.155c0 .44-.056.88-.222 1.21-.111.385-.334.66-.611.935-.278.275-.556.44-.945.605q-.5.33-1.167.33m2.167-2.97c0-.33-.055-.66-.111-.935s-.222-.55-.389-.77a1.5 1.5 0 0 0-.667-.495q-.416-.165-1-.165c-.388 0-.722.055-1 .22-.277.11-.5.33-.666.55s-.278.495-.389.77a4.7 4.7 0 0 0-.111.88q0 .495.166.99c.112.275.223.55.389.77q.25.33.667.495c.278.11.556.165.944.165.389 0 .723-.055 1-.22.278-.11.5-.33.667-.55s.278-.495.389-.77c.056-.33.111-.66.111-.935M117.777 80.497h-.722v-5.665h.722v.77c.278-.275.611-.495.889-.66a2.36 2.36 0 0 1 1.111-.275c.389 0 .778.055 1.111.165s.611.33.833.605c.167.22.223.385.278.605s.056.44.056.66v3.685h-.723v-3.685c0-.495-.111-.88-.388-1.155-.278-.275-.667-.385-1.278-.385-.222 0-.445.055-.611.11-.167.055-.334.165-.5.22-.167.11-.278.22-.389.33s-.167.275-.222.44c-.056.165-.112.33-.112.495v3.74zM127 75.382v-.55h.944v-.88c0-.44.112-.825.278-1.045.222-.275.556-.385 1.056-.385h.333c.111 0 .222 0 .278.055v.605c-.167-.055-.333-.055-.445-.055-.166 0-.333.055-.444.11s-.167.165-.222.22c-.056.11-.056.22-.111.33v1.1h1.222v.55h-1.222v5.115h-.723v-5.115H127zM133.722 80.662c-.389 0-.778-.055-1.167-.22-.333-.11-.667-.33-.944-.55-.278-.22-.5-.55-.611-.935-.167-.385-.223-.825-.223-1.32q0-.66.167-1.155c.111-.385.333-.66.556-.935.222-.275.555-.495.944-.66s.778-.22 1.278-.22.944.055 1.278.22c.388.165.666.385.944.605.222.275.444.55.556.935q.166.578.166 1.155c0 .44-.055.88-.222 1.21-.111.385-.333.66-.611.935s-.556.44-.945.605c-.277.22-.722.33-1.166.33m2.166-2.97c0-.33-.055-.66-.111-.935-.055-.275-.222-.55-.389-.77a1.5 1.5 0 0 0-.666-.495q-.417-.165-1-.165c-.389 0-.722.055-1 .22-.278.11-.5.33-.667.55s-.278.495-.389.77a5 5 0 0 0-.111.88q0 .495.167.99c.111.275.222.55.389.77q.25.33.666.495c.278.11.556.165.945.165s.722-.055 1-.22c.278-.11.5-.33.666-.55s.278-.495.389-.77c.056-.33.111-.66.111-.935M139 80.497h-.723v-5.665H139v1.045c.222-.44.444-.77.777-.935.334-.165.723-.275 1.278-.275v.715c-.389 0-.778.055-1 .165q-.417.165-.667.495c-.166.22-.277.44-.333.77a5 5 0 0 0-.111.88v2.805zM148.279 80.497c-.111 0-.223.055-.334.055-.166.055-.333.055-.5.055-.389 0-.666-.11-.833-.22-.167-.165-.278-.44-.278-.88v-4.125h-.889v-.55h.889v-1.54h.722v1.54h1.167v.55h-1.167v4.235c0 .11.056.165.056.275l.167.165a.7.7 0 0 0 .333.055h.278c.111 0 .222-.055.278-.055v.44zM149.666 80.497v-7.865h.722v2.97c.278-.275.611-.495.889-.66a2.4 2.4 0 0 1 1.111-.275c.389 0 .778.055 1.111.165.334.11.611.33.834.605.166.22.222.385.277.605 0 .22.056.44.056.66v3.685h-.722v-3.685c0-.495-.111-.88-.389-1.155s-.667-.385-1.278-.385c-.222 0-.444.055-.611.11s-.333.165-.5.22c-.167.11-.278.22-.389.33s-.167.275-.222.44c-.056.165-.111.33-.111.495v3.575h-.778zM157.055 77.802c0 .33.056.605.111.88.111.275.222.495.389.715q.25.33.667.495c.278.11.555.165.944.165.5 0 .889-.11 1.222-.33.334-.22.556-.55.667-.935h.833c-.111.275-.222.495-.333.77-.167.22-.333.44-.555.605s-.5.33-.778.385c-.278.11-.667.165-1.056.165-.5 0-.944-.055-1.333-.22a2.8 2.8 0 0 1-.889-.605 2.5 2.5 0 0 1-.5-.935 4.2 4.2 0 0 1-.167-1.155c0-.44.056-.825.223-1.155.111-.385.333-.66.555-.935s.556-.495.889-.66.778-.22 1.222-.22c.889 0 1.556.275 2.056.825s.722 1.32.722 2.31h-4.889zm4.167-.495c0-.275-.056-.55-.111-.77-.111-.22-.223-.44-.389-.605a2.5 2.5 0 0 0-.611-.44 2.3 2.3 0 0 0-.889-.165c-.334 0-.611.055-.889.165a2.434 2.434 0 0 0-1.056 1.045c-.111.22-.166.495-.222.77zM61.945 85.667v6.82h-.834v-7.865h.945l5.11 6.875v-6.875H68v7.865h-.944zM72.945 89.187c.111 0 .278-.055.5-.055.167-.055.333-.055.445-.11.11-.055.222-.11.222-.275.055-.11.055-.22.055-.33q0-.495-.333-.825c-.222-.22-.667-.33-1.222-.33-.278 0-.5 0-.722.055-.223.055-.39.11-.556.22s-.278.22-.389.385-.167.385-.222.605H70c0-.33.11-.605.277-.88.167-.22.334-.44.556-.55q.333-.248.833-.33c.334-.055.611-.11 1-.11.334 0 .611.055.89.11.277.055.5.165.721.275.223.11.39.33.5.55q.167.33.167.825v3.08q0 .412.167.495c.11.055.333.055.61-.055v.495c-.055 0-.166.055-.277.055-.111.055-.222.055-.333.055s-.222 0-.334-.055a.43.43 0 0 1-.277-.11c-.056-.055-.112-.11-.167-.22-.056-.055-.056-.165-.111-.275v-.275a3.3 3.3 0 0 1-1.056.715c-.389.165-.833.22-1.278.22a3.3 3.3 0 0 1-.777-.11 1.27 1.27 0 0 1-.667-.33c-.222-.165-.333-.33-.444-.495a1.5 1.5 0 0 1-.167-.715c0-.935.722-1.54 2.222-1.705zm1.222.33a6 6 0 0 1-.944.22c-.334.055-.611.055-.945.11q-.833.083-1.333.33c-.333.165-.444.495-.444.88 0 .165.055.33.11.44q.084.165.334.33c.111.11.278.165.445.165.166.055.333.055.5.055.277 0 .555-.055.833-.11s.5-.165.722-.275.389-.33.5-.495c.111-.22.222-.44.222-.715zM79.222 92.487c-.111 0-.222.055-.333.055-.167.055-.334.055-.5.055-.39 0-.667-.11-.834-.22-.166-.165-.277-.44-.277-.88v-4.125h-.89v-.55h.89v-1.54H78v1.54h1.166v.55H78v4.235c0 .11.055.165.055.275l.167.165c.111.055.222.055.333.055h.278c.111 0 .222-.055.278-.055v.44zM80.666 85.612v-.99h.833v.99zm.056 6.875v-5.665h.722v5.665zM86 92.652c-.39 0-.779-.055-1.168-.22-.333-.11-.666-.33-.944-.55s-.5-.55-.611-.935c-.167-.385-.222-.825-.222-1.32q0-.66.166-1.155c.111-.385.334-.66.556-.935s.555-.495.944-.66c.39-.165.778-.22 1.278-.22s.945.055 1.278.22c.389.165.667.385.944.605.223.275.445.55.556.935q.167.577.167 1.155c0 .44-.056.88-.223 1.21-.11.385-.333.66-.61.935-.279.275-.556.44-.945.605-.334.275-.722.33-1.167.33m2.166-2.97c0-.33-.056-.66-.111-.935-.056-.275-.223-.55-.39-.77a1.5 1.5 0 0 0-.666-.495q-.417-.165-1-.165c-.389 0-.722.055-1 .22-.278.11-.5.33-.666.55s-.278.495-.39.77a5 5 0 0 0-.11.88q0 .495.166.99c.111.275.222.55.389.77q.25.33.667.495c.277.11.555.165.944.165s.722-.055 1-.22c.278-.11.5-.33.667-.55.166-.22.278-.495.389-.77.055-.33.11-.66.11-.935M91.222 92.487H90.5v-5.665h.722v.77c.278-.275.611-.495.89-.66a2.4 2.4 0 0 1 1.11-.275c.39 0 .778.055 1.111.165.334.11.611.33.834.605.166.22.222.385.277.605s.056.44.056.66v3.685h-.722v-3.685c0-.495-.111-.88-.39-1.155-.277-.275-.666-.385-1.277-.385-.222 0-.444.055-.611.11s-.333.165-.5.22c-.167.11-.278.22-.389.33s-.167.275-.222.44c-.056.165-.111.33-.111.55v3.685zM100.388 89.187c.112 0 .278-.055.5-.055.167-.055.334-.055.445-.11s.222-.11.222-.275c.056-.11.056-.22.056-.33q0-.495-.334-.825c-.222-.22-.666-.33-1.222-.33-.278 0-.5 0-.722.055s-.389.11-.556.22c-.166.11-.277.22-.389.385-.11.165-.166.385-.222.605h-.722c0-.33.111-.605.278-.88.166-.22.333-.44.555-.55q.334-.248.834-.33c.333-.055.61-.11 1-.11.333 0 .611.055.889.11.277.055.5.165.722.275s.389.33.5.55q.166.33.166.825v3.08q0 .412.167.495c.111.055.333.055.611-.055v.495c-.055 0-.166.055-.278.055-.111.055-.222.055-.333.055s-.222 0-.333-.055a.43.43 0 0 1-.278-.11.8.8 0 0 1-.167-.22c-.055-.055-.055-.165-.111-.275v-.275c-.333.33-.666.55-1.055.715s-.834.22-1.278.22a3.3 3.3 0 0 1-.778-.11 1.27 1.27 0 0 1-.667-.33 1.8 1.8 0 0 1-.444-.495 1.5 1.5 0 0 1-.167-.715c0-.935.723-1.54 2.223-1.705zm1.223.33c-.334.11-.611.165-.945.22s-.611.055-.944.11q-.834.083-1.334.33c-.333.165-.444.495-.444.88 0 .165.056.33.111.44q.084.165.333.33c.112.11.278.165.445.165.167.055.333.055.5.055.278 0 .555-.055.833-.11s.5-.165.722-.275c.223-.11.389-.33.5-.495.112-.22.223-.44.223-.715zM104.555 92.487v-7.865h.722v7.865zM111.334 92.487v-7.865h.833v7.865zM115.277 92.487h-.722v-5.665h.722v.77c.278-.275.611-.495.889-.66a2.36 2.36 0 0 1 1.111-.275c.389 0 .778.055 1.111.165s.611.33.833.605c.167.22.223.385.278.605s.056.44.056.66v3.685h-.723v-3.685c0-.495-.111-.88-.388-1.155-.278-.275-.667-.385-1.278-.385-.222 0-.445.055-.611.11-.167.055-.334.165-.5.22-.167.11-.278.22-.389.33s-.167.275-.222.44c-.056.165-.112.33-.112.55v3.685zM121.945 90.727c.111.495.333.825.611 1.045s.722.275 1.278.275c.277 0 .5-.055.722-.11s.333-.11.5-.22c.111-.11.222-.22.278-.33.055-.11.111-.275.111-.385 0-.275-.111-.495-.278-.605a5.5 5.5 0 0 0-.778-.33c-.278-.055-.611-.165-1-.22-.333-.055-.667-.11-1-.22a2.3 2.3 0 0 1-.778-.495c-.222-.22-.277-.495-.277-.88 0-.495.166-.88.555-1.155s.945-.44 1.667-.44c.666 0 1.222.11 1.666.385.445.275.667.715.778 1.375h-.722c-.056-.44-.278-.715-.556-.935a2.4 2.4 0 0 0-1.166-.275c-.445 0-.834.11-1.056.275s-.389.44-.389.715.111.44.278.605c.222.11.445.22.778.33.278.11.611.165 1 .22.333.055.667.165 1 .275.278.11.555.275.778.495s.277.495.277.825c0 .275-.055.495-.222.715-.111.22-.333.385-.555.495q-.334.165-.834.33c-.333.055-.666.11-1.055.11q-.583 0-1-.165c-.278-.11-.556-.22-.722-.385a1.7 1.7 0 0 1-.5-.605c-.112-.22-.167-.495-.223-.77h.834zM130.056 92.487c-.111 0-.222.055-.333.055-.167.055-.334.055-.5.055-.389 0-.667-.11-.834-.22-.166-.165-.277-.44-.277-.88v-4.125h-.889v-.55h.889v-1.54h.722v1.54H130v.55h-1.166v4.235c0 .11.055.165.055.275l.167.165a.7.7 0 0 0 .333.055h.278c.111 0 .222-.055.278-.055v.44zM131.445 85.612v-.99h.834v.99zm.056 6.875v-5.665h.722v5.665zM136.499 92.487c-.111 0-.222.055-.333.055-.167.055-.333.055-.5.055-.389 0-.667-.11-.833-.22-.167-.165-.278-.44-.278-.88v-4.125h-.889v-.55h.889v-1.54h.722v1.54h1.167v.55h-1.167v4.235c0 .11.056.165.056.275l.166.165c.111.055.223.055.389.055h.278c.111 0 .222-.055.278-.055v.44zM142.166 86.877h.723v5.665h-.723v-.77l-.333.33c-.111.11-.278.22-.444.275-.167.11-.334.165-.556.22s-.444.11-.722.11c-.445 0-.778-.055-1.056-.165-.277-.11-.5-.275-.666-.44s-.278-.385-.389-.66c-.056-.275-.111-.55-.111-.825v-3.74h.722v3.685c0 .495.111.88.389 1.1.278.275.666.385 1.222.385q.417 0 .833-.165c.223-.11.445-.275.611-.44.167-.165.278-.44.389-.66.111-.275.111-.55.111-.88zM147.111 92.487c-.111 0-.223.055-.334.055-.166.055-.333.055-.5.055-.389 0-.666-.11-.833-.22-.167-.165-.278-.44-.278-.88v-4.125h-.889v-.55h.889v-1.54h.722v1.54h1.167v.55h-1.167v4.235c0 .11.056.165.056.275l.167.165c.111.055.222.055.333.055h.278c.111 0 .222-.055.278-.055v.44zM148.889 89.847c0 .33.056.605.111.88.111.275.222.495.389.715q.25.33.667.495c.278.11.555.165.944.165.5 0 .889-.11 1.222-.33.334-.22.556-.55.667-.935h.833c-.111.275-.222.495-.333.77-.167.22-.333.44-.555.605s-.5.33-.778.385c-.278.11-.667.165-1.056.165-.5 0-.944-.055-1.333-.22a2.8 2.8 0 0 1-.889-.605 2.5 2.5 0 0 1-.5-.935 4.2 4.2 0 0 1-.167-1.155c0-.44.056-.825.223-1.155.111-.385.333-.66.555-.935s.556-.495.889-.66.778-.22 1.222-.22c.889 0 1.556.275 2.056.825s.722 1.32.722 2.31h-4.889zm4.167-.55c0-.275-.056-.55-.111-.77-.111-.22-.223-.44-.389-.605a2.5 2.5 0 0 0-.611-.44 2.3 2.3 0 0 0-.889-.165c-.334 0-.611.055-.889.165a2.434 2.434 0 0 0-1.056 1.045c-.111.22-.166.495-.222.77zM155.888 90.727c.111.495.333.825.611 1.045s.722.275 1.278.275c.278 0 .5-.055.722-.11s.333-.11.5-.22c.111-.11.222-.22.278-.33.055-.11.111-.275.111-.385 0-.275-.111-.495-.278-.605-.222-.11-.444-.22-.778-.33-.277-.055-.611-.165-1-.22a6.5 6.5 0 0 1-1-.22 2.3 2.3 0 0 1-.777-.495c-.223-.22-.278-.495-.278-.88 0-.495.167-.88.555-1.155.389-.275.945-.44 1.667-.44.667 0 1.222.11 1.667.385.444.275.666.715.778 1.375h-.723c-.055-.44-.277-.715-.555-.935a2.44 2.44 0 0 0-1.167-.275c-.444 0-.833.11-1.055.275-.223.165-.389.44-.389.715s.111.44.277.605c.223.11.445.22.778.33.278.11.611.165 1 .22.334.055.667.165 1 .275.278.11.556.275.778.495s.278.495.278.825c0 .275-.056.495-.222.715-.112.22-.334.385-.556.495q-.333.165-.833.33c-.334.055-.667.11-1.056.11q-.583 0-1-.165c-.278-.11-.555-.22-.722-.385a1.7 1.7 0 0 1-.5-.605c-.111-.22-.167-.495-.222-.77h.833zM167.833 92.652c-.389 0-.778-.055-1.167-.22-.333-.11-.666-.33-.944-.55s-.5-.55-.611-.935c-.167-.385-.222-.825-.222-1.32q0-.66.166-1.155c.111-.385.334-.66.556-.935s.555-.495.944-.66.778-.22 1.278-.22.945.055 1.278.22c.389.165.667.385.944.605.223.275.445.55.556.935q.167.577.167 1.155c0 .44-.056.88-.223 1.21-.111.385-.333.66-.611.935s-.555.44-.944.605c-.334.275-.722.33-1.167.33m2.167-2.97c0-.33-.056-.66-.111-.935-.056-.275-.223-.55-.389-.77a1.5 1.5 0 0 0-.667-.495q-.417-.165-1-.165c-.389 0-.722.055-1 .22-.278.11-.5.33-.667.55-.166.22-.277.495-.388.77a4.7 4.7 0 0 0-.112.88q0 .495.167.99c.111.275.222.55.389.77q.25.33.667.495c.277.11.555.165.944.165s.722-.055 1-.22c.278-.11.5-.33.667-.55.166-.22.278-.495.389-.77.055-.33.111-.66.111-.935M171.666 87.372v-.55h.944v-.88c0-.44.112-.825.278-1.045.222-.275.556-.385 1.056-.385h.333c.111 0 .222 0 .278.055v.605c-.167-.055-.333-.055-.445-.055-.166 0-.333.055-.444.11s-.167.165-.222.22c-.056.11-.056.22-.111.33v1.1h1.222v.55h-1.222v5.115h-.723v-5.115h-.944zM179.555 92.487v-7.865h.833v3.355h5.222v-3.355h.834v7.865h-.834v-3.85h-5.222v3.85zM188.944 89.847c0 .33.055.605.111.88.111.275.222.495.389.715q.25.33.666.495c.278.11.556.165.945.165.5 0 .889-.11 1.222-.33s.556-.55.667-.935h.833c-.111.275-.222.495-.333.77-.167.22-.334.44-.556.605s-.5.33-.778.385c-.277.11-.666.165-1.055.165-.5 0-.945-.055-1.333-.22a2.8 2.8 0 0 1-.889-.605 2.5 2.5 0 0 1-.5-.935 4.2 4.2 0 0 1-.167-1.155c0-.44.056-.825.222-1.155.111-.385.334-.66.556-.935s.555-.495.889-.66.777-.22 1.222-.22c.889 0 1.555.275 2.055.825s.723 1.32.723 2.31h-4.889zm4.166-.55c0-.275-.055-.55-.111-.77-.111-.22-.222-.44-.389-.605a2.4 2.4 0 0 0-.611-.44 2.3 2.3 0 0 0-.889-.165c-.333 0-.611.055-.888.165-.223.11-.445.275-.612.44a2.5 2.5 0 0 0-.444.605c-.111.22-.167.495-.222.77zM198.388 89.187c.112 0 .278-.055.5-.055.167-.055.334-.055.445-.11s.222-.11.222-.275c.056-.11.056-.22.056-.33q0-.495-.334-.825c-.222-.22-.666-.33-1.222-.33-.278 0-.5 0-.722.055s-.389.11-.556.22a1.3 1.3 0 0 0-.389.385c-.111.165-.166.385-.222.605h-.722c0-.33.111-.605.278-.88.166-.22.333-.44.555-.55q.334-.248.834-.33c.277-.055.611-.11 1-.11.333 0 .611.055.889.11.277.055.5.165.722.275s.389.33.5.55q.166.33.166.825v3.08q0 .412.167.495c.111.055.333.055.611-.055v.495c-.055 0-.166.055-.278.055-.111.055-.222.055-.333.055s-.222 0-.333-.055a.43.43 0 0 1-.278-.11.8.8 0 0 1-.167-.22c-.055-.055-.055-.165-.111-.275v-.275c-.333.33-.666.55-1.055.715s-.834.22-1.278.22c-.278 0-.556-.055-.778-.11a1.27 1.27 0 0 1-.667-.33c-.222-.165-.333-.33-.444-.495a1.5 1.5 0 0 1-.167-.715c0-.935.723-1.54 2.223-1.705zm1.223.33c-.334.11-.611.165-.945.22s-.611.055-.944.11q-.833.083-1.334.33c-.333.165-.444.495-.444.88 0 .165.056.33.111.44q.084.165.333.33c.112.11.278.165.445.165.167.055.333.055.5.055.278 0 .555-.055.833-.11s.5-.165.722-.275c.223-.11.389-.33.5-.495.112-.22.223-.44.223-.715zM202.555 92.487v-7.865h.722v7.865zM207.611 92.487c-.111 0-.223.055-.334.055-.166.055-.333.055-.5.055-.389 0-.666-.11-.833-.22-.167-.165-.278-.44-.278-.88v-4.125h-.889v-.55h.889v-1.54h.722v1.54h1.167v.55h-1.167v4.235c0 .11.056.165.056.275l.167.165c.111.055.222.055.333.055h.278c.111 0 .222-.055.278-.055v.44zM208.945 92.487v-7.865h.723v2.97a4.6 4.6 0 0 1 .888-.66 2.4 2.4 0 0 1 1.112-.275c.388 0 .777.055 1.111.165s.611.33.833.605c.167.22.222.385.278.605.055.22.055.44.055.66v3.685h-.722v-3.685c0-.495-.111-.88-.389-1.155s-.666-.385-1.278-.385c-.222 0-.444.055-.611.11s-.333.165-.5.22c-.166.11-.277.22-.389.33s-.166.275-.222.44-.111.33-.111.55v3.575h-.778z"/><path fill="#006394" d="M62.092 15.906h36.634v6.54H71.403v11.306H95.4v6.152H71.403V59.08h-9.311zM103.604 15.906h9.809l24.22 31.813h.166V15.906h8.868V59.08h-9.81L112.693 27.38h-.222V59.08h-8.867zM154.26 15.906h9.311V59.08h-9.311zM173.213 15.906h9.311v17.181h24.164V15.906h9.311V59.08h-9.311V39.627h-24.164V59.08h-9.311z"/><path fill="#aac9de" d="M50.065 43.895c-.665-.444-19.01-12.138-21.504-13.745.665-.388 1.386-.776 1.996-1.164-1.275-.776-2.384-1.497-3.326-2.106-4.267 2.494-8.701 5.043-12.636 7.316 1.108.72 2.272 1.44 3.325 2.106a471 471 0 0 0 7.094-4.157l22.613 14.244s-11.251 6.54-21.615 12.58A8681 8681 0 0 1 3.4 44.726s.775-.444 2.106-1.22c-1.275-.83-2.439-1.551-3.326-2.16-.277.165-.443.276-.499.276C.074 42.564.074 44.116.074 44.45v.72c0 .61.166 1.608.942 2.05.665.389 18.234 11.64 21.504 13.746-6.761 3.99-12.58 7.37-13.578 7.98-2.716 1.608-3.436 6.042-3.436 6.042S48.126 50.268 49.4 49.492c1.608-.942 1.608-2.494 1.608-2.826v-.72c0-.61-.167-1.608-.943-2.051M45.798 16.073s-2.438 1.44-6.151 3.602c1.053.665 2.161 1.386 3.214 2.05 1.829-1.773 2.937-5.652 2.937-5.652"/><path fill="#287cb0" d="M1.016 31.092c.665.443 19.065 12.138 21.559 13.745-.665.388-1.386.776-1.995 1.164 1.275.776 2.383 1.496 3.325 2.106 4.268-2.494 8.701-5.044 12.636-7.316-1.108-.72-2.272-1.441-3.325-2.106a471 471 0 0 0-7.094 4.157l-22.668-14.3s11.251-6.54 21.615-12.58c2.66 1.662 18.068 11.361 22.557 14.243 0 0-.776.444-2.106 1.22 1.275.83 2.438 1.551 3.325 2.161.277-.166.444-.277.5-.277 1.606-.942 1.606-2.494 1.606-2.827v-.72c0-.61-.166-1.607-.942-2.05-.61-.389-18.123-11.64-21.448-13.745C35.378 10.03 41.14 6.65 42.195 6.04 44.91 4.434 45.63 0 45.63 0S3.01 24.718 1.736 25.494C.13 26.436.13 27.988.13 28.321v.72c0 .61.166 1.552.887 2.051M5.34 58.914s2.438-1.44 6.152-3.547c-1.053-.665-2.162-1.386-3.215-2.05-1.829 1.718-2.937 5.597-2.937 5.597"/><path fill="#78a22f" d="M42.196 14.133c2.715-1.607 3.436-6.041 3.436-6.041s-5.487 3.159-12.58 7.316c.941.61 2.105 1.33 3.324 2.106 3.049-1.718 5.21-2.993 5.82-3.381m7.87 21.67c-.665-.388-18.234-11.639-21.504-13.745.665-.388 1.385-.776 2.05-1.164-1.274-.775-2.383-1.496-3.325-2.106A7196 7196 0 0 1 7.945 29.984c1.053.665 2.161 1.385 3.38 2.106 3.99-2.328 8.979-5.21 13.745-7.981a8656 8656 0 0 1 22.613 14.243s-.776.444-2.106 1.22c1.274.831 2.438 1.552 3.325 2.161.277-.166.443-.277.499-.277 1.607-.942 1.607-2.494 1.607-2.826v-.72c0-.666-.166-1.608-.942-2.107m-23.998 15.13L3.455 36.634s.776-.443 2.162-1.219c-1.275-.831-2.439-1.552-3.325-2.161-.278.166-.444.277-.5.277-1.606.942-1.606 2.494-1.606 2.826v.72c0 .61.166 1.608.942 2.051.665.444 19.065 12.138 21.56 13.745-.666.388-1.386.776-1.996 1.164 1.275.776 2.383 1.496 3.325 2.106a6702 6702 0 0 1 19.287-11.195c-1.108-.72-2.272-1.441-3.325-2.106-2.494 1.385-11.528 6.706-13.911 8.091M8.942 60.799c-2.716 1.607-3.436 6.04-3.436 6.04s5.487-3.158 12.58-7.315c-.941-.61-2.105-1.33-3.325-2.106-3.048 1.773-5.21 3.048-5.819 3.38"/></svg>