<svg width="174" height="56" viewBox="0 0 174 56" fill="none" xmlns="http://www.w3.org/2000/svg">
<path d="M49.9766 11.7748H79.4976V16.6161H57.4796V24.9857H76.8179V29.5398H57.4796V43.7354H49.9766V11.7748Z" fill="#006394"/>
<path d="M83.4277 11.7747H91.3328L110.85 35.3246H110.984V11.7747H118.129V43.7353H110.224L90.7522 20.2674H90.5735V43.7353H83.4277V11.7747Z" fill="#006394"/>
<path d="M124.248 11.7747H131.751V43.7353H124.248V11.7747Z" fill="#006394"/>
<path d="M139.521 11.7747H147.025V24.4933H166.497V11.7747H174V43.7353H166.497V29.3345H147.025V43.7353H139.521V11.7747Z" fill="#006394"/>
<path d="M40.2844 32.4939C39.7485 32.1657 24.9656 23.5088 22.9559 22.319C23.4918 22.0318 24.0724 21.7446 24.5637 21.4574C23.5365 20.883 22.6432 20.3497 21.884 19.8984C18.4451 21.7446 14.8722 23.6319 11.7012 25.314C12.5945 25.8474 13.5323 26.3808 14.3809 26.8731C16.2567 25.8884 18.2218 24.8217 20.0975 23.796L38.3193 34.3401C38.3193 34.3401 29.2531 39.1814 20.9014 43.6534C18.7577 42.4226 6.34189 35.2428 2.67967 33.1093C2.67967 33.1093 3.30493 32.7811 4.3768 32.2067C3.34959 31.5913 2.41171 31.0579 1.69713 30.6066C1.47382 30.7297 1.33984 30.8118 1.29517 30.8118C-2.12961e-07 31.5092 0 32.658 0 32.9042V33.4375C0 33.8888 0.133984 34.6273 0.75924 34.9556C1.29517 35.2428 15.4528 43.5714 18.0878 45.1304C12.6391 48.0844 7.94969 50.5871 7.14579 51.0384C4.95739 52.2282 4.3768 55.5105 4.3768 55.5105C4.3768 55.5105 38.7213 37.2121 39.7485 36.6377C41.0436 35.9402 41.0436 34.7915 41.0436 34.5453V34.0119C41.0436 33.5606 40.9097 32.8221 40.2844 32.4939Z" fill="#AAC9DE"/>
<path d="M36.8461 11.898C36.8461 11.898 34.881 12.9647 31.8887 14.5648C32.7372 15.0571 33.6305 15.5905 34.479 16.0828C35.9528 14.77 36.8461 11.898 36.8461 11.898Z" fill="#AAC9DE"/>
<path d="M0.759501 23.0165C1.29544 23.3447 16.123 32.0016 18.1327 33.1914C17.5968 33.4786 17.0162 33.7658 16.5249 34.053C17.5521 34.6274 18.4453 35.1607 19.2046 35.612C22.6435 33.7658 26.2164 31.8785 29.3873 30.1964C28.4941 29.663 27.5562 29.1296 26.7077 28.6373C24.8319 29.622 22.8668 30.6887 20.991 31.7144L2.72459 21.1292C2.72459 21.1292 11.7908 16.288 20.1425 11.8159C22.2862 13.0468 34.702 20.2266 38.3196 22.3601C38.3196 22.3601 37.6943 22.6883 36.6225 23.2627C37.6497 23.8781 38.5875 24.4114 39.3021 24.8628C39.5254 24.7397 39.6594 24.6576 39.7041 24.6576C40.9992 23.9601 40.9992 22.8114 40.9992 22.5652V22.0318C40.9992 21.5805 40.8653 20.842 40.24 20.5138C39.7487 20.2266 25.6358 11.898 22.9561 10.3389C28.4494 7.42596 33.0942 4.92327 33.9428 4.47196C36.1312 3.28216 36.7118 -6.10352e-05 36.7118 -6.10352e-05C36.7118 -6.10352e-05 2.3673 18.2983 1.3401 18.8727C0.0449217 19.5702 0.0449219 20.719 0.0449219 20.9651V21.4985C0.0449219 21.9498 0.178905 22.6473 0.759501 23.0165Z" fill="#287CB0"/>
<path d="M4.24219 43.6124C4.24219 43.6124 6.20728 42.5457 9.19958 40.9867C8.35102 40.4943 7.45779 39.961 6.60923 39.4686C5.13541 40.7405 4.24219 43.6124 4.24219 43.6124Z" fill="#287CB0"/>
<path d="M33.943 10.4621C36.1314 9.27233 36.712 5.99011 36.712 5.99011C36.712 5.99011 32.2906 8.32869 26.5739 11.4058C27.3332 11.8571 28.2711 12.3904 29.2536 12.9648C31.71 11.693 33.4518 10.7493 33.943 10.4621ZM40.2849 26.504C39.749 26.2168 25.5914 17.8882 22.9564 16.3291C23.4923 16.0419 24.0729 15.7547 24.6088 15.4675C23.5816 14.8931 22.6884 14.3598 21.9292 13.9085C16.3912 16.8625 10.4512 20.0216 6.34241 22.1961C7.19098 22.6884 8.0842 23.2218 9.06675 23.7551C12.2824 22.032 16.3019 19.8985 20.1427 17.8471C22.2865 19.078 34.7023 26.2578 38.3645 28.3913C38.3645 28.3913 37.7392 28.7195 36.6674 29.2939C37.6946 29.9093 38.6325 30.4427 39.347 30.894C39.5704 30.7709 39.7043 30.6888 39.749 30.6888C41.0442 29.9913 41.0442 28.8426 41.0442 28.5964V28.063C41.0442 27.5707 40.9102 26.8732 40.2849 26.504ZM20.9466 37.7046L2.72486 27.1194C2.72486 27.1194 3.35011 26.7912 4.46664 26.2168C3.43943 25.6014 2.50155 25.068 1.78697 24.6167C1.56366 24.7398 1.42968 24.8219 1.38502 24.8219C0.089844 25.5193 0.0898438 26.6681 0.0898438 26.9143V27.4476C0.0898438 27.8989 0.223827 28.6374 0.849084 28.9657C1.38502 29.2939 16.2125 37.9507 18.2223 39.1405C17.6864 39.4277 17.1058 39.7149 16.6145 40.0021C17.6417 40.5765 18.5349 41.1099 19.2942 41.5612C22.7331 39.7149 31.6653 34.9557 34.8363 33.2736C33.943 32.7402 33.0052 32.2068 32.1566 31.7145C30.1468 32.7402 22.8671 36.6789 20.9466 37.7046Z" fill="#78A22F"/>
<path d="M7.14595 45.0075C4.95755 46.1973 4.37695 49.4795 4.37695 49.4795C4.37695 49.4795 8.79841 47.1409 14.515 44.0638C13.7558 43.6125 12.8179 43.0791 11.8354 42.5048C9.37901 43.8176 7.63722 44.7613 7.14595 45.0075Z" fill="#78A22F"/>
</svg>
