<svg xmlns="http://www.w3.org/2000/svg" viewBox="0 0 184 46"><path fill="#14678f" d="M77.535.744h-9.522L55.795 33.023V.743h-13.82l-6.193 23.65h-.1L29.487.747H15.69V36.21h8.81V9.287h.1l7.555 26.923h7.162l7.554-26.923h.101V36.21h17.215l2.275-6.358h12.539l2.207 6.358h9.77zM68.62 22.996l4.078-12.416h.084l3.977 12.416zM113.544 8.693h-10.731V36.21h-9.366V8.693H82.721V.743h30.823z"/><path fill="#14678f" d="M136.505 13.41c-.501-3.562-3.324-5.465-7.267-5.465-6.042 0-8.359 5.27-8.359 10.534s2.334 10.53 8.359 10.53c4.381 0 6.901-2.494 7.25-6.558h9.37c-.505 9.142-7.305 14.503-16.431 14.503-10.849 0-17.885-8.195-17.885-18.475S118.578 0 129.457 0c7.756 0 16.165 4.866 16.431 13.41zM148.745 1.077h9.365v12.915h12.341V1.077h9.365v35.467h-9.365V21.942H158.11v14.602h-9.365zM2.844 25.456v3.74h9.859v3.262h-9.86v3.74H0V25.455zM0 24.056v-3.262h4.634v-4.297H0V13.23h12.703v3.266H7.478v4.297h5.225v3.261zM0 11.024V1.051h2.65v6.72h2.225V1.62h2.561v6.15h2.419V.867h2.848v10.156zM.22 39.472h.686l3.745 5.402v-5.402h.616v6.37h-.67L.85 40.44v5.402H.22zM8.633 39.472h.682l2.528 6.37h-.661l-.784-1.978h-2.92l-.775 1.978h-.665zm-.973 3.873h2.528l-1.264-3.266zM11.119 39.472h5.098v.515h-2.242v5.855h-.598v-5.855h-2.258zM16.865 39.472h.611v6.37h-.61zM21.512 39.351c2.018 0 3.025 1.584 3.025 3.325 0 1.74-1.007 3.324-3.025 3.324s-3.033-1.583-3.033-3.324c0-1.742 1.006-3.325 3.033-3.325m0 6.125c1.685 0 2.414-1.408 2.414-2.8s-.72-2.805-2.414-2.805-2.423 1.408-2.423 2.805c0 1.396.72 2.784 2.423 2.784zM25.485 39.472h.683l3.75 5.402v-5.402h.61v6.37h-.665l-3.75-5.402v5.402h-.628zM34.076 39.472h.687l2.527 6.37h-.665l-.784-1.978h-2.928l-.771 1.978h-.649zm-.973 3.873h2.527l-1.264-3.266zM37.868 39.472h.615v5.855h3.602v.515h-4.213zM44.132 39.472h2.95c1.061 0 1.954.507 1.954 1.662a1.52 1.52 0 0 1-.316 1.051c-.233.3-.57.504-.947.574.842.108 1.078.681 1.124 1.438.026.44.026 1.313.295 1.633h-.674a2.6 2.6 0 0 1-.173-.99c-.05-.893-.122-1.882-1.285-1.84h-2.325v2.83h-.603zm.611 3.025h2.288a1.28 1.28 0 0 0 .974-.32 1.25 1.25 0 0 0 .412-.927c0-.777-.468-1.246-1.386-1.246h-2.288zM50.136 39.472h4.44v.515h-3.829v2.302h3.586v.52h-3.586v2.518h3.872v.515h-4.483zM55.765 43.748c-.03 1.309.927 1.712 2.106 1.712.675 0 1.686-.366 1.686-1.293 0-.723-.73-1.01-1.323-1.155l-1.433-.345c-.758-.187-1.449-.544-1.449-1.537 0-.623.421-1.795 2.212-1.795 1.264 0 2.389.681 2.38 1.982h-.615c-.034-.973-.842-1.463-1.752-1.463-.843 0-1.614.32-1.614 1.267 0 .599.45.832.973.973l1.568.386c.91.241 1.685.632 1.685 1.663 0 .44-.177 1.824-2.456 1.824-1.526 0-2.642-.682-2.57-2.232zM61.196 39.472h.632v6.37h-.632zM63.15 39.472h2.225c1.934.041 2.95 1.097 2.95 3.187s-1.02 3.142-2.95 3.183h-2.224zm.612 5.855h1.306c1.845 0 2.65-.769 2.65-2.668s-.805-2.68-2.65-2.672h-1.306zM69.319 39.472h4.44v.515h-3.83v2.302h3.586v.52H69.93v2.518h3.876v.515h-4.487zM74.652 39.472h.683l3.745 5.402h.021v-5.402h.611v6.37h-.682l-3.75-5.402v5.402h-.61zM80.306 39.472h5.115v.515h-2.242v5.855h-.615v-5.855h-2.241zM88.493 39.472h.901l2.225 5.585 2.229-5.585h.901v6.37h-.615v-5.506l-2.195 5.506h-.62l-2.207-5.506v5.506h-.615zM97.896 39.472h.687l2.528 6.37h-.657l-.784-1.978h-2.95l-.766 1.978h-.661zm-.973 3.873h2.528l-1.243-3.266zM100.382 39.472h5.098v.515h-2.242v5.855h-.611v-5.855h-2.245zM110.789 41.4a1.93 1.93 0 0 0-.702-1.13 1.97 1.97 0 0 0-1.274-.416c-1.686 0-2.423 1.409-2.423 2.805s.721 2.8 2.423 2.8c1.192 0 1.946-.91 2.064-2.044h.611c-.168 1.563-1.171 2.564-2.675 2.564-2.027 0-3.034-1.583-3.034-3.324s1.007-3.324 3.034-3.324c1.217 0 2.422.723 2.587 2.077zM112.427 39.472h.611v2.788h3.817v-2.767h.615v6.37h-.615v-3.087h-3.817v3.087h-.611zM118.81 39.472h.615v6.37h-.615zM120.757 39.472h.682l3.75 5.402v-5.402h.611v6.37h-.683l-3.745-5.402h-.021v5.402h-.611zM132.781 45.842h-.442l-.08-1.16c-.199.41-.517.75-.913.982-.396.23-.853.34-1.312.315-2.026 0-3.037-1.583-3.037-3.324s1.011-3.324 3.037-3.324c1.348 0 2.448.723 2.684 2.115h-.615a1.98 1.98 0 0 0-.733-1.179 2.02 2.02 0 0 0-1.336-.417c-1.685 0-2.427 1.409-2.427 2.805s.725 2.8 2.427 2.8c1.42 0 2.25-.988 2.225-2.339h-2.191v-.515h2.73zM136.644 39.472h2.857c1.15 0 1.909.669 1.909 1.82s-.759 1.82-1.909 1.82h-2.258v2.73h-.611zm.599 3.12h2.106c.843 0 1.429-.415 1.429-1.3s-.586-1.305-1.429-1.305h-2.106zM142.319 39.472h2.95c1.061 0 1.954.507 1.954 1.662.03.377-.083.751-.316 1.051a1.56 1.56 0 0 1-.948.574c.843.108 1.079.681 1.125 1.438.026.44.026 1.313.295 1.633h-.674a2.6 2.6 0 0 1-.173-.99c-.054-.893-.126-1.882-1.285-1.84h-2.317v2.83h-.611zm.611 3.025h2.288a1.28 1.28 0 0 0 .974-.32 1.23 1.23 0 0 0 .412-.927c0-.777-.468-1.246-1.386-1.246h-2.288zM151.02 39.351c2.018 0 3.025 1.584 3.025 3.325 0 1.74-1.007 3.324-3.025 3.324s-3.038-1.583-3.038-3.324c0-1.742 1.011-3.325 3.038-3.325m0 6.125c1.685 0 2.414-1.408 2.414-2.8s-.721-2.805-2.414-2.805-2.402 1.392-2.402 2.805c0 1.412.7 2.784 2.402 2.784zM160.495 45.842h-.443l-.08-1.16h-.021c-.198.41-.516.752-.912.983s-.853.34-1.312.314c-2.027 0-3.034-1.583-3.034-3.324s1.007-3.324 3.034-3.324c1.352 0 2.452.723 2.684 2.115h-.611a1.98 1.98 0 0 0-.735-1.18 2.02 2.02 0 0 0-1.338-.416c-1.685 0-2.423 1.409-2.423 2.805s.721 2.8 2.423 2.8c1.424 0 2.254-.988 2.224-2.339h-2.186v-.515h2.73zM161.679 39.472h2.949c1.062 0 1.955.507 1.955 1.662.029.377-.084.751-.317 1.051s-.57.504-.947.574c.842.108 1.078.681 1.125 1.438.025.44.025 1.313.295 1.633h-.674a2.6 2.6 0 0 1-.173-.99c-.055-.893-.127-1.882-1.285-1.84h-2.326v2.83h-.602zm.611 3.025h2.287a1.28 1.28 0 0 0 .974-.32 1.24 1.24 0 0 0 .412-.927c0-.777-.467-1.246-1.386-1.246h-2.287zM169.562 39.472h.686l2.528 6.37h-.657l-.784-1.978h-2.915l-.775 1.978h-.658zm-.969 3.873h2.527l-1.264-3.266zM173.336 39.472h.902l2.225 5.585 2.216-5.585h.901v6.37h-.627v-5.506l-2.2 5.506h-.573l-2.207-5.506h-.021v5.506h-.611zM182.277 39.264c.343.002.678.105.962.295s.504.459.633.772c.129.314.162.658.092.99a1.7 1.7 0 0 1-.48.873 1.759 1.759 0 0 1-1.893.36 1.73 1.73 0 0 1-.775-.634 1.702 1.702 0 0 1 .793-2.532 1.8 1.8 0 0 1 .668-.124m0 3.17c.294.01.584-.068.833-.222a1.47 1.47 0 0 0 .565-.644 1.44 1.44 0 0 0-.287-1.603 1.499 1.499 0 0 0-1.614-.343 1.48 1.48 0 0 0-.673.533 1.45 1.45 0 0 0-.257.813 1.41 1.41 0 0 0 .4 1.034 1.43 1.43 0 0 0 1.033.433m-.674-2.46h.783c.481 0 .708.188.708.57a.5.5 0 0 1-.145.39.52.52 0 0 1-.39.154l.582.885h-.338l-.551-.86h-.35v.86h-.312zm.311.886h.333c.278 0 .531 0 .531-.329 0-.328-.232-.307-.446-.307h-.422zM182.277.769c.343.002.678.105.962.295s.504.459.633.772c.129.314.162.658.092.99a1.7 1.7 0 0 1-.48.873 1.758 1.758 0 0 1-1.893.36 1.73 1.73 0 0 1-.775-.634 1.702 1.702 0 0 1 .793-2.534c.212-.084.439-.126.668-.122m0 3.17a1.45 1.45 0 0 0 1.027-.435 1.4 1.4 0 0 0 .397-1.032c0-.373-.151-.731-.418-.996a1.44 1.44 0 0 0-2.02 0 1.4 1.4 0 0 0-.419.996 1.41 1.41 0 0 0 .4 1.035 1.43 1.43 0 0 0 1.033.432m-.674-2.46h.783c.481 0 .708.187.708.57a.514.514 0 0 1-.535.544l.582.88h-.338l-.551-.855h-.35v.856h-.312zm.299.89h.333c.278 0 .531 0 .531-.329 0-.328-.232-.307-.447-.307h-.421z"/></svg>