<svg xmlns="http://www.w3.org/2000/svg" version="1.0" viewBox="8 9 605 110" preserveAspectRatio="xMidYMid meet">

<g transform="translate(0.000000,125.000000) scale(0.100000,-0.100000)" fill="var(--color-black)" stroke="none">
<path d="M80 611 l0 -551 200 0 200 0 0 165 0 165 158 0 c235 0 350 32 447 121 113 104 144 284 73 423 -30 59 -104 133 -163 161 -111 55 -132 57 -537 62 l-378 5 0 -551z m658 243 c49 -10 72 -38 72 -88 0 -81 -53 -104 -237 -105 l-93 -1 0 100 0 100 114 0 c62 0 127 -3 144 -6z"/>
<path d="M1457 1133 c-20 -39 -457 -1060 -457 -1067 0 -4 91 -5 202 -4 l202 3 34 93 34 92 181 -2 180 -3 31 -90 31 -90 208 -3 c114 -1 207 1 207 5 0 5 -103 251 -229 548 l-229 540 -191 3 -190 2 -14 -27z m246 -504 c21 -58 37 -108 37 -112 0 -4 -39 -7 -86 -7 -65 0 -85 3 -82 13 3 6 22 60 44 119 21 59 41 104 44 100 4 -4 23 -55 43 -113z"/>
<path d="M2355 1149 c-3 -8 -4 -255 -3 -549 l3 -535 200 0 200 0 3 163 2 162 153 0 c292 1 443 64 519 218 30 61 33 74 33 162 0 82 -4 103 -27 152 -48 103 -143 177 -275 215 -80 22 -800 33 -808 12z m680 -303 c45 -19 61 -54 49 -103 -15 -59 -51 -74 -199 -81 l-125 -5 0 102 0 101 120 0 c83 0 132 -5 155 -14z"/>
<path d="M3535 1148 c-3 -7 -4 -254 -3 -548 l3 -535 533 -3 532 -2 0 150 0 150 -330 0 -330 0 0 55 0 55 290 0 290 0 0 140 0 140 -290 0 -290 0 0 55 0 55 320 0 320 0 0 150 0 150 -520 0 c-407 0 -522 -3 -525 -12z"/>
<path d="M4690 611 l0 -551 200 0 200 0 0 186 0 187 129 -5 c185 -7 204 -22 227 -190 8 -57 19 -120 25 -140 l10 -38 199 0 c110 0 200 3 200 8 0 4 -6 28 -14 53 -8 25 -17 81 -21 125 -3 43 -15 110 -26 148 -18 60 -29 78 -78 125 l-56 56 44 30 c28 19 56 50 75 85 28 50 31 63 31 145 0 69 -5 99 -20 130 -25 51 -85 108 -141 135 -103 51 -123 53 -566 57 l-418 5 0 -551z m693 258 c50 -14 77 -42 77 -80 0 -81 -42 -99 -230 -99 l-140 0 0 95 0 95 128 0 c70 0 144 -5 165 -11z"/>
<path d="M5936 1131 c-40 -27 -55 -57 -56 -114 0 -40 5 -53 34 -85 32 -34 38 -37 91 -37 53 0 59 3 91 37 28 32 34 45 34 84 0 80 -51 134 -127 134 -21 0 -51 -9 -67 -19z m140 -35 c46 -46 48 -101 5 -148 -25 -28 -36 -33 -76 -33 -40 0 -51 5 -76 33 -43 47 -41 102 5 148 26 26 42 34 71 34 29 0 45 -8 71 -34z"/>
<path d="M5950 1021 c0 -56 3 -71 15 -71 9 0 15 9 15 25 0 18 5 25 20 25 13 0 22 -9 26 -25 8 -32 34 -33 34 -1 0 14 -5 28 -10 31 -8 5 -7 11 0 20 6 8 10 24 8 37 -3 20 -9 23 -55 26 l-53 3 0 -70z m75 29 c0 -8 -10 -16 -22 -18 -18 -3 -23 2 -23 18 0 16 5 21 23 18 12 -2 22 -10 22 -18z"/>
</g>
</svg>
