<svg xmlns="http://www.w3.org/2000/svg" viewBox="0 0 715.748 119.055"><defs><clipPath id="a-sbd"><path d="M0 731.321h206.17v31.214H0z"/></clipPath></defs><path d="M0 0h179.454l17.986 31.162H0z" style="fill:var(--color-black);fill-opacity:1;fill-rule:nonzero;stroke:none" transform="matrix(3.58925 0 0 -3.58925 3.543 115.452)"/><g clip-path="url(#a-sbd)" transform="matrix(3.58925 0 0 -3.58925 2.183 2742.009)"><path d="M0 0c-.741.562-1.552.808-2.541.808-1.04 0-1.915-.659-1.915-1.451 0-.462.28-.841 1.058-1.106l1.32-.447C-.594-2.689.18-3.482.18-4.784c0-2.495-2.128-4.54-5.561-4.54-1.617 0-2.821.428-3.776 1.04l1.219 1.766c.959-.563 1.815-.891 2.969-.891 1.456 0 2.395.759 2.395 1.898 0 .579-.397.959-1.221 1.237L-5-3.861c-1.302.444-2.095 1.073-2.095 2.41 0 2.311 2.177 4.191 4.899 4.191 1.404 0 2.743-.428 3.584-1.154z" style="fill:#000;fill-opacity:1;fill-rule:nonzero;stroke:none" transform="translate(34.549 751.66)"/><path d="M0 0h-1.469l-.891-4.241a3.3 3.3 0 0 1-.084-.744c0-.461.248-.611.745-.611.196 0 .577.068.823.166v-1.338a5.4 5.4 0 0 0-1.879-.363c-1.271 0-1.998.627-1.998 1.453 0 .297.033.693.117 1.09L-3.664 0h-.841l.328 1.519h.844c.165.826.28 1.369.511 1.997l2.327.561a28 28 0 0 1-.678-2.558H.793z" style="fill:#000;fill-opacity:1;fill-rule:nonzero;stroke:none" transform="translate(40.723 749.516)"/><path d="M0 0c-.547 0-.957-.033-1.551-.727-.693-.824-1.041-2.491-1.041-3.613 0-.761.199-1.089.678-1.089.693 0 1.402.709 1.635 1.318l.874 3.98C.496-.066.199 0 0 0m2.56-.942-.677-3.2c-.15-.727-.085-1.219.311-1.652L.364-7.162c-.397.264-.578.707-.643 1.04-.629-.662-1.322-1.007-2.246-1.007-1.535 0-2.326.941-2.326 2.691 0 2.028.773 3.828 1.781 4.835.923.924 1.962 1.319 3.367 1.319.991 0 2.095-.163 2.807-.576C2.922.629 2.69-.299 2.56-.942" style="fill:#000;fill-opacity:1;fill-rule:nonzero;stroke:none" transform="translate(46.087 749.483)"/><path d="M0 0c.148-.28.248-1.007.215-1.37C.922-.612 1.83-.101 3.067-.101c1.074 0 1.701-.643 1.701-1.666 0-.364-.052-.825-.131-1.189L3.416-8.731H1.237l1.174 5.496c.063.33.112.577.112.758 0 .414-.18.529-.578.529-.527 0-1.153-.33-1.846-1.27l-1.174-5.513h-2.178l1.205 5.693c.198.924.181 1.651 0 2.229z" style="fill:#000;fill-opacity:1;fill-rule:nonzero;stroke:none" transform="translate(53.004 751.315)"/><path d="m0 0-1.338-6.254c-.214-.99-.279-1.405-.279-1.636 0-.312.132-.479.429-.479a.6.6 0 0 1 .246.034l.101-1.321a4 4 0 0 0-1.371-.231c-1.187 0-1.749.643-1.749 1.518 0 .299.116.928.248 1.535l1.334 6.306c.234 1.105.364 1.881.201 2.442l2.343.71C.232 2.244.232 1.072 0 0" style="fill:#000;fill-opacity:1;fill-rule:nonzero;stroke:none" transform="translate(62.691 752.272)"/><path d="M0 0c.959 0 2.063.329 2.063 1.17 0 .513-.23.874-.89.874C.33 2.044-.299 1.55-.628.082-.628.082-.299 0 0 0m3.25-4.046C2.112-4.837 1.007-5.2-.182-5.2c-2.013 0-3.199 1.057-3.199 3.101 0 1.751.774 3.55 1.898 4.641.837.807 1.779 1.119 2.905 1.119 1.664 0 2.868-.659 2.868-2.31 0-1.6-1.469-2.904-4.272-2.904-.578 0-1.009.117-1.009.117s-.082-.546-.082-.76c0-.958.496-1.352 1.421-1.352.757 0 1.549.329 2.342.889z" style="fill:#000;fill-opacity:1;fill-rule:nonzero;stroke:none" transform="translate(66.553 747.553)"/><path d="m0 0 .414-4.936c.031-.508.065-1.748.065-1.748s.578 1.469 1.138 2.525L3.746-.131h2.375L1.222-8.715c-.924-1.634-1.503-2.341-2.214-2.787a5.3 5.3 0 0 0-2.211-.774l-.444 1.484c.511.115 1.106.298 1.485.527.677.409.94.791 1.468 1.683h-.609a33 33 0 0 1-.216 2.377l-.759 5.941z" style="fill:#000;fill-opacity:1;fill-rule:nonzero;stroke:none" transform="translate(74.212 751.166)"/><path d="M0 0h1.353c.631 0 .926.132 1.208.332.361.264.693.726.693 1.286 0 .711-.316 1.008-1.27 1.008H.548zm-1.053-5H.448c.479 0 .889.132 1.187.333.513.345.874 1.056.874 1.7 0 .807-.444 1.071-1.467 1.071H-.395zm3.811 9.59c1.735 0 2.985-.826 2.985-2.476 0-1.123-.707-2.409-2.406-2.906 1.054-.229 1.716-1.154 1.716-2.226 0-.725-.299-1.85-1.074-2.643C3.136-6.519 2.181-6.88.398-6.88h-4.16l2.444 11.47z" style="fill:#000;fill-opacity:1;fill-rule:nonzero;stroke:none" transform="translate(83.661 749.465)"/><path d="m0 0-1.337-6.254c-.215-.99-.281-1.405-.281-1.636 0-.312.133-.479.43-.479.081 0 .164 0 .248.034l.099-1.321a4.1 4.1 0 0 0-1.373-.231c-1.186 0-1.747.643-1.747 1.518 0 .299.115.928.246 1.535l1.339 6.306c.231 1.105.366 1.881.197 2.442l2.343.71C.23 2.244.23 1.072 0 0" style="fill:#000;fill-opacity:1;fill-rule:nonzero;stroke:none" transform="translate(93.962 752.272)"/><path d="M0 0c-.546 0-.959-.033-1.554-.727-.691-.824-1.037-2.491-1.037-3.613 0-.761.197-1.089.676-1.089.693 0 1.401.709 1.633 1.318l.875 3.98C.493-.066.197 0 0 0m2.558-.942-.68-3.2c-.149-.727-.081-1.219.317-1.652L.361-7.162c-.395.264-.576.707-.643 1.04-.627-.662-1.319-1.007-2.243-1.007-1.535 0-2.329.941-2.329 2.691 0 2.028.778 3.828 1.786 4.835.921.924 1.96 1.319 3.364 1.319.991 0 2.095-.163 2.807-.576-.184-.511-.414-1.439-.545-2.082" style="fill:#000;fill-opacity:1;fill-rule:nonzero;stroke:none" transform="translate(99.542 749.483)"/><path d="M0 0c-.363.413-.84.628-1.253.628-.399 0-.743-.164-1.041-.496-.61-.693-1.171-2.439-1.171-3.746 0-.875.412-1.253 1.006-1.253.61 0 1.222.345 1.848.842l.742-1.372c-.923-.71-1.864-1.121-3.104-1.121-1.878 0-2.9 1.089-2.9 2.904 0 2.096.974 4.011 2.143 5.001.757.644 1.6 1.007 2.774 1.007a3 3 0 0 0 2.242-1.007z" style="fill:#000;fill-opacity:1;fill-rule:nonzero;stroke:none" transform="translate(109.163 748.888)"/><path d="m0 0-3.448-3.665 2.278-4.786h-2.608l-1.816 4.786L-2.738 0zm-4.439 3.861c.114-.412.098-1.419-.28-3.186l-1.947-9.126h-2.211L-6.894.825c.244 1.172.279 1.847.164 2.326z" style="fill:#000;fill-opacity:1;fill-rule:nonzero;stroke:none" transform="translate(119.279 751.035)"/><path d="M0 0c0 .479-.33.81-.824.81C-1.552.81-2.16.199-2.16-.545c0-.345.147-.726.658-1.319C-.561-1.484 0-.742 0 0m-3.924-6.057c0-.758.56-1.204 1.549-1.204.79 0 1.435.215 1.878.592l-2.145 2.577c-.82-.445-1.282-1.122-1.282-1.965m7.358 3.021c-.194-1.123-.66-2.408-1.252-3.235l1.896-2.376H1.159l-.563.727c-.808-.564-1.783-.958-3.385-.958-2.291 0-3.563 1.137-3.563 2.642 0 1.383.957 2.607 2.776 3.364-.681.629-.862 1.174-.862 1.899 0 1.832 1.7 3.317 3.927 3.317 1.701 0 2.774-.841 2.774-2.047 0-1.27-.463-2.228-2.545-3.186l-.215-.099L1.024-4.82c.298.465.528 1.47.562 1.784z" style="fill:#000;fill-opacity:1;fill-rule:nonzero;stroke:none" transform="translate(125.403 751.232)"/><path d="M0 0h1.138c.989 0 1.734.545 2.146 1.191 1.023 1.599 1.239 3.91 1.239 4.52 0 1.056-.299 2.063-1.831 2.063H1.648zm2.329 9.59c1.912 0 3.087-.214 3.809-1.123.529-.678.874-1.434.874-2.789 0-1.882-.678-4.339-2.092-5.842C3.712-1.437 2.559-1.881.033-1.881h-2.792L-.317 9.59z" style="fill:#000;fill-opacity:1;fill-rule:nonzero;stroke:none" transform="translate(133.327 744.465)"/><path d="M0 0c.958 0 2.063.329 2.063 1.17 0 .513-.23.874-.888.874C.33 2.044-.294 1.55-.628.082-.628.082-.294 0 0 0m3.249-4.046C2.113-4.837 1.008-5.2-.181-5.2c-2.012 0-3.203 1.057-3.203 3.101 0 1.751.778 3.55 1.901 4.641.839.807 1.782 1.119 2.903 1.119 1.665 0 2.87-.659 2.87-2.31 0-1.6-1.466-2.904-4.274-2.904-.577 0-1.005.117-1.005.117s-.082-.546-.082-.76c0-.958.493-1.352 1.419-1.352.76 0 1.552.329 2.341.889z" style="fill:#000;fill-opacity:1;fill-rule:nonzero;stroke:none" transform="translate(144.302 747.553)"/><path d="M0 0c-.363.413-.842.628-1.253.628-.396 0-.745-.164-1.038-.496-.613-.693-1.174-2.439-1.174-3.746 0-.875.41-1.253 1.005-1.253.614 0 1.222.345 1.852.842l.741-1.372c-.925-.71-1.862-1.121-3.102-1.121-1.885 0-2.909 1.089-2.909 2.904 0 2.096.977 4.011 2.149 5.001.76.644 1.599 1.007 2.772 1.007.775 0 1.631-.315 2.244-1.007z" style="fill:#000;fill-opacity:1;fill-rule:nonzero;stroke:none" transform="translate(155.212 748.888)"/><path d="m0 0-3.445-3.665 2.278-4.786h-2.609l-1.818 4.786L-2.736 0zm-4.438 3.861c.117-.412.099-1.419-.281-3.186l-1.948-9.126h-2.21l1.98 9.276c.248 1.172.282 1.847.166 2.326z" style="fill:#000;fill-opacity:1;fill-rule:nonzero;stroke:none" transform="translate(165.327 751.035)"/><path d="M0 0c.957 0 2.064.329 2.064 1.17 0 .513-.231.874-.894.874-.84 0-1.466-.494-1.798-1.962C-.628.082-.296 0 0 0m3.251-4.046C2.113-4.837 1.008-5.2-.18-5.2c-2.016 0-3.206 1.057-3.206 3.101 0 1.751.778 3.55 1.9 4.641.844.807 1.784 1.119 2.908 1.119 1.666 0 2.866-.659 2.866-2.31 0-1.6-1.467-2.904-4.273-2.904-.578 0-1.006.117-1.006.117s-.082-.546-.082-.76c0-.958.495-1.352 1.419-1.352.761 0 1.554.329 2.345.889z" style="fill:#000;fill-opacity:1;fill-rule:nonzero;stroke:none" transform="translate(168.466 747.553)"/><path d="M0 0c.135-.28.266-.893.199-1.37C.942-.612 1.733-.084 2.56-.084c.313 0 .462-.033.759-.181l-.956-1.947a1.2 1.2 0 0 1-.644.165c-.428 0-.909-.248-1.6-1.155l-1.173-5.529h-2.213l1.188 5.579c.229 1.055.199 1.797.033 2.343z" style="fill:#000;fill-opacity:1;fill-rule:nonzero;stroke:none" transform="translate(176.503 751.315)"/></g></svg>
