<svg xmlns="http://www.w3.org/2000/svg" xml:space="preserve" id="Layer_1" x="0" y="0" style="enable-background:new 0 0 300 72" viewBox="0 0 300 72"><style>.st1{fill-rule:evenodd;clip-rule:evenodd;fill:#fff}</style><g id="Logos_x2F_United-Logo_x5F_Rebrand_x5F_Large"><g id="Group"><g id="united_globe_4p_h_rgb_r_21Apr2022"><defs><filter id="Adobe_OpacityMaskFilter" width="63" height="62.7" x="0" y="9.2" filterUnits="userSpaceOnUse"><feColorMatrix values="1 0 0 0 0 0 1 0 0 0 0 0 1 0 0 0 0 0 1 0"/></filter></defs><mask id="mask-2_1_" width="63" height="62.7" x="0" y="9.2" maskUnits="userSpaceOnUse"><g style="filter:url(#Adobe_OpacityMaskFilter)"><path id="path-1_1_" d="M0 0h72v72H0z" class="st1"/></g></mask><path id="Fill-1" d="M15.9 9.2c-5.4 0-10.8.9-15.9 2.8v1.9c.3-.1.8-.3 1.6-.5.4-.1.8-.2 1.2-.2.1 0 .3 0 .4-.1 5-.7 9.3.3 11.9 3.3 5.7 6.5 1 19.8-10.5 29.8-1.5 1.3-3 2.4-4.5 3.5l-.1.1V53c.5-.3.9-.6 1.4-1 .6 1 4.7 7.6 4.8 7.7.3-.2 1.2-.8 2.3-1.5 1.2-.9 2.7-1.9 4.1-3.1l.2-.2-6.3-7.3c.6-.6 2.8-2.8 4.5-4.8.4.3 5.7 4.4 7.8 6.3a46 46 0 0 0 4.5-5.6c-2.9-1.9-8.9-5.4-8.9-5.4 1-1.6 1.9-3.2 2.6-4.8 0 0 7 2.8 9.9 4.2.8-1.5 1.4-3.1 1.9-4.6.1-.2.1-.5.2-.7-3.6-1.4-9.9-3-10.5-3.1.4-1.4.6-2.7.7-4 5.2.5 9.9 1.7 10.8 1.9.1-1.5.1-2.9-.1-4.2-5.7-1-10.3-1-10.9-1-.1-1-.4-2-.7-2.9 0 0 5.1-.4 10.4.2-.3-.6-.6-1.2-1-1.7-.3-.4-.9-1.1-.9-1.1s-4.5-.3-9.7.4c-.5-.7-1.1-1.3-1.6-1.8.1 0 4.1-.9 8.8-.9-1.3-.9-2.7-1.5-2.7-1.5-3.7.1-7.6 1.1-7.9 1.2-1.1-.6-1.9-.9-2-.9.3-.1 3.1-1 5.2-1.2-2.8-.4-6.7.5-7.2.6-.6-.1-1.5-.2-2.1-.3 0 0 2.1-.6 4.9-1 2.5-.4 11-1.4 16.5 5.9 5.1 6.9 3.3 17.7-3.7 28q-2.7 4.2-6.6 8.1c-2.1 2.2-4.3 4.1-6.4 5.8-3.2 2.6-6.7 4.8-10.2 6.6-.7.4-1.5.8-2.2 1.1v3.3c6-2.8 9.5-5.5 9.5-5.5l5 7.1s3.9-2.4 7.8-5.7l-6-6.8c2.3-2 4.4-4.2 6.3-6.4 0 0 6.2 5.5 6.9 6.2 2-2.2 3.8-4.6 5.4-7-3.2-2.6-7.5-5.5-7.5-5.5s2.5-4.1 3.6-6.6c0 0 4.1 2.2 8 4.8 1-2.1 1.7-4.3 2.3-6.6-2.6-1.5-8.2-4.1-8.2-4.1.5-1.9.8-3.8.9-5.6 0 0 4.1 1.3 8.3 3.4.1-1.8 0-3.5-.4-5.2-3.5-1.7-8.2-2.8-8.2-2.8-.2-1.4-.7-2.8-1.2-4 0 0 4.3.8 8 2.3-.9-2.1-2.1-3.3-2.1-3.3-2.4-1.3-7.9-2.3-7.9-2.3-.6-.8-1.3-1.5-2-2.1 1.7.2 4.4.9 4.4.9-3-1.5-6.3-2.3-6.3-2.3s-.7-.4-1.5-.9c0 0 8.3 1.7 12.8 5.1.4.3.8.7 1.2 1 .5.4.8.9 1.2 1.4 9 12.3 1.2 35.9-20.6 52.5h8.1c-.4-.5-1.5-1.7-1.7-1.8 2.6-2.4 5-4.9 7.2-7.6l5.4 5.4c2.1-2.4 4.1-5 5.8-7.7 0 0-2.8-2.7-5.9-5.4 2.4-3.9 3.9-7.8 3.9-7.8.2.2 3.2 2.4 6.2 5.2 1.5-3.2 2.4-7.3 2.4-7.3-3.1-2.9-6.4-4.9-6.4-4.9q.75-3.3.9-6.6s3.4 2 6.4 4.6c0-1.9-.1-3.9-.5-5.7-2.9-2.5-6.2-4.2-6.2-4.2s-.3-2.1-1.4-4.7c.2.1 1.8.9 4.5 2.9-2.1-2.8-5.8-5.5-5.8-5.5l-1.2-1.8c3 2.1 5.8 4.5 8.2 7.2.9 1.1 1.7 2.6 2.4 4.2.2.5.3.9.5 1.4 2 6.8.8 14.4-1.5 20.6-2.6 7.2-7 13.9-12.1 19.6h9.6c.9-1.3 1.8-2.6 2.6-4-.6-1-3.6-4.4-3.6-4.4 1.6-2.6 3.1-5.5 4.2-8.3 0 0 2 2.2 3.5 4.4 1.5-3.6 2.2-7.4 2.2-7.4-1-1.7-3.3-4.4-3.3-4.4.5-2.3.8-4.6.8-7 1.2 1.4 2.7 3.6 2.7 3.6-.3-4.3-2.5-8.2-3-9V35c-.3-1.5-.8-3.1-1.1-4 2.5 3.7 4.1 7.8 4.1 7.8 1 2.7 1.6 6 1.6 9.6 0 1.9-.4 12-8.1 23.4h2.4c1.4-2.7 3-6 4.1-8.8 0 .1.6 1.5 1 2.9.8-2.9 1.4-5.9 1.7-9-.1-.4-.3-1-.4-1.4 0 0 .5-2.6.7-5.6.3 2.1.4 4.1.4 6.3 0 3.7-.4 7.2-1.3 10.7-.4 1.7-1 3.4-1.5 5h2.1c1.7-5 2.6-10.2 2.6-15.5.2-26-20.9-47.2-46.9-47.2M0 40.3v6.3q1.65-1.05 3.3-2.4zm1.5-26c-.5.3-1 .7-1.5 1.1v1.5c1.3-1 3-2.2 4.4-3-.9.1-1.9.2-2.9.4M5.7 39C4 37.8 0 35 0 35v-3.4c2.9-4.2 3.3-8.9.8-11.3-.2-.2-.5-.4-.8-.6V18s3.7-2.9 6.6-4.2c.7.1 1.4.1 2 .3C4.2 15.9 1 18.2.8 18.4c.4.3.9.6.9.6.1 0 4.3-2.7 8.9-4.3.6.3 1.2.6 1.8 1.1-5.1 1.4-9.9 4-9.9 4 .3.3.5.7.7 1h.1C8.5 18.7 14 17.5 14 17.5c.4.6.8 1.2 1.1 2 0 0-4.9.6-11.3 2.6.2.9.3 1.5.3 1.5s6-1.3 11.5-1.5c.1.9 0 1.9-.1 2.9-3.3-.2-11.1.2-11.4.3 0 0 0 1.1-.3 2.2 0 0 5.7.2 10.9 1.1-.4 1.2-.9 2.5-1.5 3.7-3.4-1-8.7-2.3-10.1-2.6-.4.9-.8 1.8-1.4 2.6 0 0 6.4 2.8 8.8 4.2-1.1 1.6-3.2 3.8-3.2 3.8-.4-.4-1-.9-1.6-1.3" style="mask:url(#mask-2_1_);fill-rule:evenodd;clip-rule:evenodd;fill:#fff"/><defs><filter id="Adobe_OpacityMaskFilter_1_" width="71.9" height="71.9" x="0" y="0" filterUnits="userSpaceOnUse"><feColorMatrix values="1 0 0 0 0 0 1 0 0 0 0 0 1 0 0 0 0 0 1 0"/></filter></defs><mask id="mask-2_2_" width="71.9" height="71.9" x="0" y="0" maskUnits="userSpaceOnUse"><g style="filter:url(#Adobe_OpacityMaskFilter_1_)"><path id="path-1_2_" d="M0 0h72v72H0z" class="st1"/></g></mask><path id="Fill-3" d="M15.9 9.2c25.9 0 47 21.2 47 47.2 0 5.3-.9 10.5-2.6 15.5h11.5V0H0v12c5.1-1.9 10.5-2.8 15.9-2.8M0 31.6c2.9-4.2 3.3-8.9.8-11.3-.2-.2-.5-.4-.8-.6zm15-15.2c-2.6-3-6.9-4-11.9-3.3-.1 0-.3 0-.4.1-.4.1-.8.1-1.2.2-.8.2-1.3.4-1.6.5v1.5c.5-.4 1-.8 1.5-1.1 1-.2 2-.3 2.9-.4-1.4.8-3.1 1.9-4.4 3V18s3.7-2.9 6.6-4.2c.7.1 1.4.1 2 .3C4.1 15.9.9 18.2.7 18.4c.4.3.9.6.9.6.1 0 4.3-2.7 8.9-4.3.6.3 1.2.6 1.8 1.1-5.1 1.4-9.9 4-9.9 4 .3.3.5.7.7 1h.1C8.5 18.7 14 17.5 14 17.5c.4.6.8 1.2 1.1 2 0 0-4.9.6-11.3 2.6.2.9.3 1.5.3 1.5s6-1.3 11.5-1.5c.1.9 0 1.9-.1 2.9-3.3-.2-11.1.2-11.4.3 0 0 0 1.1-.3 2.2 0 0 5.7.2 10.9 1.1-.4 1.2-.9 2.5-1.5 3.7-3.4-1-8.7-2.3-10.1-2.6-.4.9-.8 1.8-1.4 2.6 0 0 6.4 2.8 8.8 4.2-1.1 1.6-3.2 3.8-3.2 3.8-.6-.5-1.2-.9-1.7-1.3C4 37.8 0 35 0 35v5.3l3.3 3.9Q1.65 45.55 0 46.6v3.2l.1-.1c1.5-1 3-2.2 4.5-3.5C16 36.2 20.7 22.9 15 16.4m14.1.6c-5.4-7.3-13.9-6.3-16.5-5.9-2.8.4-4.9 1-4.9 1 .6.1 1.5.2 2.1.3.5-.1 4.4-1 7.2-.6-2.1.2-4.9 1.1-5.2 1.2.1 0 .9.3 2 .9.3-.1 4.2-1.1 7.9-1.2 0 0 1.4.6 2.7 1.5-4.8 0-8.7.9-8.8.9.6.5 1.1 1.1 1.6 1.8 5.2-.8 9.7-.4 9.7-.4s.6.7.9 1.1c.3.5.7 1.1 1 1.7-5.3-.6-10.4-.2-10.4-.2.3.9.5 1.9.6 2.9.6 0 5.1 0 10.9 1 .2 1.3.2 2.7.1 4.2-1-.3-5.7-1.4-10.8-1.9-.1 1.3-.3 2.6-.7 4 .6.1 6.9 1.7 10.5 3.1-.1.2-.1.4-.2.7-.5 1.5-1.1 3.1-1.9 4.6-2.9-1.4-9.9-4.2-9.9-4.2-.7 1.6-1.6 3.2-2.6 4.8 0 0 6 3.4 8.9 5.4-1.3 1.9-2.9 3.8-4.5 5.6-2.1-1.9-7.4-6-7.8-6.3-1.7 2-3.8 4.2-4.5 4.8l6.3 7.3-.2.2c-1.4 1.1-2.8 2.2-4.1 3.1-1.1.7-2 1.3-2.3 1.5-.1-.3-4.2-6.9-4.8-8-.5.3-.9.7-1.4 1v13.6c.7-.4 1.5-.7 2.2-1.1q5.4-2.7 10.2-6.6c2.1-1.6 4.2-3.6 6.4-5.8q3.75-3.9 6.6-8.1c7-10.3 8.9-21 3.7-27.9m11.1 2.4c-.4-.5-.7-1-1.2-1.4-.4-.4-.8-.7-1.2-1-4.5-3.4-12.8-5.1-12.8-5.1.8.4 1.4.9 1.5.9 0 0 3.4.8 6.3 2.3 0 0-2.7-.6-4.4-.9.7.6 1.4 1.4 2 2.1 0 0 5.5 1 7.9 2.3 0 0 1.2 1.2 2.1 3.3-3.8-1.5-8-2.3-8-2.3.6 1.3 1 2.6 1.2 4 0 0 4.7 1.1 8.2 2.8.3 1.7.4 3.4.4 5.2-4.2-2.1-8.3-3.4-8.3-3.4-.1 1.8-.4 3.7-.9 5.6 0 0 5.7 2.5 8.2 4.1-.6 2.3-1.4 4.5-2.3 6.6-3.9-2.5-8-4.8-8-4.8-1 2.5-3.6 6.6-3.6 6.6.1 0 4.3 3 7.5 5.5-1.6 2.4-3.4 4.8-5.4 7-.7-.7-6.9-6.2-6.9-6.2-1.9 2.2-4 4.3-6.3 6.4l6 6.8c-3.9 3.2-7.8 5.7-7.8 5.7l-5-7.1s-3.5 2.7-9.5 5.5V72h19.6c21.9-16.6 29.7-40.3 20.7-52.6m-1.4 52.5c5.1-5.7 9.5-12.4 12.1-19.6 2.3-6.2 3.5-13.9 1.5-20.6-.1-.4-.3-.9-.5-1.4-.6-1.7-1.5-3.1-2.4-4.2-2.4-2.7-5.2-5.2-8.2-7.2.4.6.9 1.2 1.2 1.8 0 0 3.7 2.7 5.8 5.5-2.7-2-4.3-2.7-4.5-2.9 1 2.6 1.4 4.7 1.4 4.7s3.3 1.7 6.2 4.2c.4 1.9.6 3.8.5 5.7-3-2.6-6.4-4.6-6.4-4.6q-.15 3.3-.9 6.6s3.2 2 6.4 4.9c0 0-.9 4.1-2.4 7.3-3-2.8-6-5-6.2-5.2 0 0-1.5 3.9-3.9 7.8 3 2.6 5.9 5.4 5.9 5.4-1.7 2.7-3.7 5.3-5.8 7.7l-5.4-5.4C31 65.1 28.6 67.7 26 70c.1.1 1.2 1.3 1.7 1.8h11.1zm9.7 0h2.7c7.7-11.4 8.1-21.4 8.1-23.4 0-3.6-.6-7-1.6-9.6 0 0-1.6-4.1-4.1-7.8.3.8.8 2.5 1.1 4v.3c.5.8 2.7 4.7 3 9 0 0-1.6-2.2-2.7-3.6 0 2.4-.3 4.7-.8 7 0 0 2.3 2.7 3.3 4.4 0 0-.7 3.8-2.2 7.4-1.5-2.2-3.5-4.4-3.5-4.4-1.1 2.8-2.6 5.7-4.2 8.3 0 0 2.9 3.4 3.6 4.4-1 1.5-1.8 2.7-2.7 4m5.1 0c1.4-2.7 3-6 4.1-8.8 0 .1.6 1.5 1 2.9.8-2.9 1.4-5.9 1.7-9-.1-.4-.3-1-.4-1.4 0 0 .5-2.6.7-5.6.3 2.1.4 4.1.4 6.3 0 3.7-.4 7.2-1.3 10.7-.4 1.7-1 3.4-1.5 5h-4.7z" style="mask:url(#mask-2_2_);fill-rule:evenodd;clip-rule:evenodd;fill:#1414d2"/></g><path id="Shape" d="M118 36.5V25h6.7v11.1c0 4.3 2 6.1 5.9 6.1s5.9-1.8 5.9-6.1V25h6.7v11.5c0 8-4 11.5-12.6 11.5S118 44.5 118 36.5m55.2 1.6L160.8 25h-6.6v22.5h6.2V33.2l13.5 14.2h5.4V25h-6.2v13.1zm17.8 9.4h6.7V25H191zM273.5 25h12.8c8.9 0 13 3.9 13 11.2s-4.1 11.2-13 11.2h-12.8zm6.7 16.4h5.9c4.3 0 6.3-1.6 6.3-5.2s-2-5.2-6.3-5.2h-5.9zM248 38.6h13.8v-4.8H248v-3.3h14.9V25h-21.6v22.5H263V42h-15zM207.5 31h8.6v16.4h6.7V31h8.6v-6h-24z" style="fill:#1414d2"/></g></g></svg>